<mxfile host="Electron" modified="2024-03-13T09:09:58.993Z" agent="Mozilla/5.0 (X11; Linux x86_64) AppleWebKit/537.36 (KHTML, like Gecko) draw.io/24.0.4 Chrome/120.0.6099.109 Electron/28.1.0 Safari/537.36" etag="WmJuopwoTyvid-fC17ap" version="24.0.4" type="device">
  <diagram name="第 1 页" id="34UhgVEW0im66hXtFUMA">
    <mxGraphModel dx="482" dy="277" grid="1" gridSize="1" guides="1" tooltips="1" connect="1" arrows="1" fold="1" page="1" pageScale="1" pageWidth="827" pageHeight="1169" math="0" shadow="0">
      <root>
        <mxCell id="0" />
        <mxCell id="1" parent="0" />
        <mxCell id="X9BF16VxQi2rHE8ZBVEj-1" value="" style="shape=image;imageAspect=0;aspect=fixed;verticalLabelPosition=bottom;verticalAlign=top;image=data:image/png,iVBORw0KGgoAAAANSUhEUgAAARIAAAEXCAYAAABh+suQAAAACXBIWXMAAA7EAAAOxAGVKw4bAAAgAElEQVR4nOy9fZxc5XXn+aV8q7q6q6pf1Kput5qW1A2WHDVIBjxIDtjIAY9RDCSyjbMQ2zMwGzRxPmNl7P1s2DUzQ8Z4l0yCP2F27BkxGzJxEvAEbBILB7AhFsHYEgGMhCUjEaklNa12d0n9onrpqluX0v5xzrnPU92NnVl5ZpLPp84/99ate+/zes/5nZfnPBcA5/gHSME5+Dd6vgk4puf363GMO+C+XfLjszeT5lEAquT1js3AKjl9UO+7/Wm9DkznYFZvteOWBeCT7uKdT8vpvUWrlavgE+1y3Aes9t5zlf8uoN4O+hqeBYb1fIf+v6sddvyGnD/2JTmmgW036o0FiNtkBUXAUT3XepAGngfgeibZsKhpVYivjQC5RS1ahfQzAIe9+u7X8/36EgCtOrfDyGfldOyJcwTbLtDaaR/zR/DEejn9Y710yqvygndujwA86ZVpVGUppRcdF9Nyz/j3b9PjOhi+W+o+Fvc1XE8BkH6zqtg8HCMLjDZd3UCBAb1SAl7S84gb5OSx3bD9u3o17m3cKAF36hjf2wfAbRTiO/cDf0hWf231GjMOwAD7+JRe3R6XLVMU3LB+kSxwvf5a4dXjlB5f0icBNsPdu/2Z/w+DblG293vAKh214oh9IjAWD9UMwWdl8D8BnNSrz+vgV9lDPDt79M87r4N7tTv7VhPP4vU2uNtIU9LnPwX3GgfwaPo69Aah63Hz4BNA0t6lE7KwHib10keBd9s775XDjgPIpw1s36L/HWRY6zGJzxxlSqQpxMMc6cTaTIlP67VR3LeOdy23mHGC+zL2Awf13Ko4zk+kez4LY9rH12+7IP7YJu/eKyd34GZxftHRaNOi34/g5nMax/F+Eq1a9Lu46Lj4Hcaj7xUG/lt8mRf10ojOn504tn0QSC4ptMSINm5r/Cz6tOOFQgV3evfVcqziGFo1F9fn+nu/DDghOgrYjNoNBDovIvYAMEwpZhq3A6M2dvblX+Uq/1hTneyLihjQ+q32/nVMcDXkIEGLWtSiFp0n/YNBJD4SAVg1K0gE4AvA78RIRHSHgEe5Wa+cxPFXJ703AgqrTVTee5CY7063Q59DIgADlJjkDrl055dc5e7V+6avdgUN6TECFKTwr4iBBqe07Ce1KgCPAu++S3+Y+M/h8JSI0GFKMYipeiI8UMkR4ZDIBpVQtxDjmliggxP4uTrNSGRaj8e8498RidyvY/Wv2MAtKpX3ApP36R+Gr7+MQ26GCn11w1dnHtDjLA5BLIdG/GvLqTT++xcjFRD4oEjk84j03+P9fbse87gROsBS1aYPeLeeW78XcEjkaTwV7wlFaL566Nf93h0AXM8DMRIxbLoXuE/Pn/ceMcS63avz6NO4L36re95m3DOxWtSOqS4DFGIkYv8+C0Q2iPfJd3AB/wBsJNeeg3v03Nc6f0fPH2YzcIX+ekSeoRB/bIfI4maY3vfgbrWJAKzTY4/YRgD6DgIfACDQN0VPnINtxlw8mlY4+hJu1hhs3oQwEBCGY/f6DOdR+/864JD+8IGkTE+DmAUgihlI4BVm1E5a77Vv9grQqSVkvMtKafqmZnFfxhE97vbq7DMco6vgs9o1XzR1hn1OnbnvHHzWs/uAU+kWk3G3NPDwonr8NHore4hPy32sW13Zt20XlXiPXmoHEx/x8B7DddEeHG+1Ubneu9e663lgX/w5boYHdf5Z2+59WtRr3C0A12p9dnrvtLK/gM1vqamNuzXn08A2M34k4ZS+wFSTO4FDsRA2bg6BzsMhHMX2ocemm+1TAy3VpkUtatHPgP5eqza3KVa6h2bDKoigejjmpHnSCkPNsDSNL8TacT4JlcGz4ESSmR574ItyFtx7SSxdJvmonOwDnr3aVdC8NaZ5XOH+Yr2KgfvWe5LvCod9zXvzx8C9grMCDnlIQ4DzAKUYNZi24dc58HCGPTtMgZ16bV38n8Nkq/FsmHU9lnBm+3Ecbn9cjybCFpMKsfu/C1/U8j+j6szzwOQTOoifPQlPaEv6aD6CE9sbvYo+jHMO9HhHHxH18Na03OyOlrl2HXD7Dq37AzHwsup9GocEDujxJG7YwQ39Vj2O4GaVYUwR4oap17t22Py47zp3fvfN3KJQ1YzkWxBVBJyTywdqAxS4Rc/fSp2xOn+56flm6/Mwpbi94KtM+nVNQ/zprQZ+8YIWImlRi1p0/vT30kbyGa3R3fo7d5jYLmpxIv8bEHEtAAM8E3NiU7v34JxqERuIEckusaGw42kcW1URePdq0hovMACMmX9/1245+kaGzx6Gaa1Unx9HoqL7Cc+Nt13F+/Sou/cxLXN7rsmVawLTkMQmlto9J2kWxLPevSDSyOyUZliNcFJ1tM5Sg+lJnHjby9/ZsLpbx+rDgIaMxOrzk3wUDBu9eLUbkOVQhC8CzQ855l0z8d6+zLXF1xfTYl/34tiU7TfzeZX+vsHSkMBqmr3gdt9J73+LuvBtKObZ3qPHSQaIfcsW4wSuP+rADvn/t3g8ntObFDXuTzq7oL2zgLNj3I5DIqse8RqiZpf9Pe556+JqbF8R9Asyj6xKe4BJP87FaLvGNl3wZfjTc3//VJvbzrkJmTN1Zr1jIP/KM1aleQaQQWyGj2aQNHVmAzyoPRtPzgFizHefQO703RfErGWMG96agYAwkb5FRs472+Eaj4GABBjV9VpfER5UBnK7AOdhSk3fqjEQX505RDP14DPJbMyIdLgZwmkmRqM4UE0JN1OMSxVwXOcIP5mB6LO7Z4SBgIyZYyBmmvwEnPJUQdPafM/K+kVf+YPtThr8NMPpT1JrwI2Bz2TSuK9+i3y0n+fxJgZiBmp7/X4cI9mjx2M41ecqXNPsvie9e6vxPLz6rRkIwI4b+S3VJW/BCYa9Gufx2947TeAMQVOcyCoTAPbua9zzdyEeF3levqOAUsyI1ruaeczvo/CYz5WA7TvgAnWjnft9srRUmxa1qEU/A/p7g0g+rxD5LnBGP8WJDyJuLiGR1cM8w8f0yrT3iMH8iAGc6tK3jMtyEh4UzDesEbAjwDOGdx/b7cIVDQTt+C6xWa3Pk/m7VNbfeyOxI/VOlTzbr4Ck3Xs36dsFQpu0mcZJsw3edRPKx1heMNvAXbEoYhUEco8supbz1Rk/ZsTUmX2Iixd+qjqzd0aOOwGLpjkMPKmqZix1P+1V1PdmG/WdJNY79q53dfPv9Y3BRjYeSe9/fsI1n7YC6yUKY5cqH3twAvwTXvF+CM1iVLieZnXGxqt5xUDeuwN4bFez0dhou4zS73MoDjkaPeZctRZCc5imGQ0ICjXDeu4rOPSlLzqVdM8fwg1H4KkxNldsnu0DJmO9b4UgEHmbHC54HM59HoBhfpMxPvf3g5F8/hzcZYP/PPHXtFs/5N/BwcMNOqS34L4Ff5CdUb6HGKzt+pIzTMdf5SNsvv0D8Z0ATzLggoPSwO2qB95nn0ueWIu+8zqnY++w8KAs7NKP6F5lHneOwr13AjDM4/Gg2XfRhxvI1ThNw45F3KSxJvhLdm7HMR9rex73MeT8D9HOx3Ez3njcPn4qA9mvzP6f6e97cM6cL7LBxUV81qwHPdA3687j6eZZew5f5xqFVtwGZLl4FfjJKs0ky3Nec6v0jbJLZ4x5QNK4OJHVuK7xmblVxcZiK842MYsTZGYXmSRLHK3zhGdbsDlFhHHuP9WSbkTtgUi8ogWa2fxux42rqTN31IE/9Bqi7TylfXSfVydwXWfKlr8CwdS7Q2zwWjdD3PoLxJTAuU+T1+CoMT4NFFuqTYta1KLzp/+pXptYnanj2OFqeEhFtIXujpFns5oXfe/MHj2fxgnTKAZ/NwqUBBEpJs7vlsD5zTzajETsGZ8MXexQsX3fqPvvsztwuoDKicf2wnaVynerpL17CxtUJvirlI1GoGklrklDQyy+Odek4gaI1To/8tBoNeqZ8V80i3MzvMR/8wK8g+dcmZ/T4wG8pQmPnXLeqSag6y/l1UIsevPzuAabAbbI8rEegXff7KJrPkXLXH93EbgIgF0UYiRidAdO0p/ESXAfmdhcMRC6zqvGS7jpu89ffWtIZJuhEKsgwO4YiWzVK6s8deY+Fi/sw/f5xOoMD3iVu84hEft29tHstDL0+27vmi1IfCb+Dq7AwbpxuEB75JyYoTfwZQ7FCrV8ly1E0qIWtei86X+KjaQJiYCwdFXWHuhx8SOTaqza7EXsmd76Ik5aj+O7etXd+Niu5lBQRSLXarxAH/BwbAwzi8OMu//BR9S4CuzSd/YAt9tSwGdxZlJVTPfh0gjcPap1PxTX7CTOTmi66WqaDXW+TdFocZzIp7ySZ3ECyYT6aJ1mJGKFm8+4iDOyvhUS0Zce9Ayrtt7QJPXvkCeWkftwintTwIjCoPuuJrZZ3asy8lR7cwoVvxGLKfDu8+9ZvMzIf8cqg2Dv5k+1Tn7ih5u9261NvvnIxmUAt+7SN9+YfehJ/AhTwyyrYdsOmmkGc8D+pZdHZNUydhEfjVgXXY+LE8E8sovsIv9eL5tdxUcj61maleFF4Jkl+WwWXOsumIRz8vVdo/Gwz3ILLlZgFuj7H6/a7DoHd/ih2ABDLr/NfThftw30VhxP8P399hpJImMDaEPtx1+/xG0KWO3q/UDVvAxNZBX5ktM54gmxn7S+RwJ5tmqjFMKuBrZJCbd4ORx8fjay6FjAaRz+GrZp75oNvjHTxQ4Qe1ecT8Qv0K75S1T3sNQNsYhO+V40mlOH3KnHKtfCLv00Szgu6etlm+ObPdXHz/S02HIaSLIngGTRa0CP+9+npnuNLC+LGNO/jptTWRy/89UZP+DMzq3Erd69fmqfPXp+CAs2g+Z1EvYZl7Tm+2I1YlOd+Fstqq3+ftz8ruPmqo37jbM4BmJ0HfEEuIel6yqzNAstUzSt7o/gmwOMinCBDuK5a7lB47Uet6UiS6zgPS3VpkUtatH50/8wRPINLeXGw7iVT4qoDm51cSJ7cRLD4OQ4LDGQ7cNJjioDOPjghzHuAeDzlGLubvB8rCkVl4vKcLLnJRbnAdlMKRb2konNVCLh0H6ovkUJ+sbVjTSHUNvRtcORb1g1ZLacHF+1OD7EyOCDvbzgXXurBXhGIdyjrneD0i/hDHxjMfS4lWadY7GmfJh4PHbtbg55N7JcLjF5q/LuvHqZ/6uwRIJCjOcevI4Nt0tc0EP6zx7vrpvRPkNiLEBQiHXJLK6fDUzlcJqXv5bR5qTMpeXCdm0RnMC/Y1aAFarT5wGtx17cHFgN/LKeb7FnHsGpcjb1roD79fknWeo530AzRrJ2Woi8mAVkPOPsfxcA58R1fQ0HeHYJcvfTewL0/I+xkfzwHIx+RX8cwyW/0C/kMRwa34ljIDZ4R3AfoCHyZlU6YnFyi2EOxWH1AU53HI+vFeLGu/UGx7BpF1CKw9XNUn6SxStwRZO9XgfgU7hPycoZwXlWNuGsB1b/Pu980nu/BTvdjCRxAijqLFllVbVKWUf5qRJNjfEZylvFZRhpmteHks5+tV8n6cP4LNpq7H/kOWyWWy6LyFf/+mjWNq2eu65uvtaHcxis8/73cxn6uN1ohyhct9z+gTj5lX00I6haANLBOpm8BIdx1TbhPjybpkUcA7Fun8Vn/IH3tpN6pcQ1euVpP1rShOhGF7puY+7HFN0C5EyNeUKP7TgXj1b4iaSb+b794wbvmk2PfTSnEQFhBz06fw9doBfPDfBrWtH/zDU095SRvTUAki3VpkUtatH5039XRHJW1ZncAzhWmCdGIha6ewwHm2/EGbT2eI8sNs4vzs1hUtCkwH3ev/fjDLN+3IVJlEmVtcMciiVTDw4VWNnHcEhjgMlYjbG88nmW8m4/pqOYXKwsLV2YamjMUFDuGDFebTKmmmSbZXE6Celrq+hPU2OMvgNPqDi81YtnsARl0/hqml+g9F3AoSV5mycZJZbr273lAzEF8IRGDccG7RmaM5d794Lcb5rNth3YxDJj+oM4lcPqs+UwzRBRkYD1fYRTYzbVvYbqZDjZs1RTnMUBowEPDRuY2ooL9I3pu8SI4uCWJcWwyf0taMRQvH2lo65R+3V8xmlW9DZ7txoZmjrsXTPk0wc8HCMROXyGSYlUBqSViwN7Aq9SPcCpFiJpUYtadP703wWRNCEREKFhLPB2iRUBJzm24yTwKZYK0QM4SW7AxjdMpik15ag0Mml6CMf1fWuIoYdhPWv3qrmVpUvHX8Ihmo8hC7ygeVsCozhGoE4sAQ+yFLG04yTjRsR8GVdwMVnHnKI576hBOOuciKVQ563o+3J4aIsgEZAsdGZT2uMV7S89R39bwunm3J7+Sg4/1bTF6RjiiLz9eYzSy9wPPKEGg207vOvP81uKBu7Vuh8ccbacTX6YwYhrm3Wt3TcCjPr2JZ0sFiX6NK5rfUTpp1Axq9FWPd77CA4S7dHj1XBKb/CH1/puWx03af2IVTMjbXLPWz18M9FGloYGHAT+XM8ncaYme/XDF8AGS2Kn1/4ZadxMXY5F5L03HOIGDv3svTYT57ycCL46o/j/IVwnmlHralzH+GjQAKOfk8M3FhngugK3z4eB599hafQ1+DEb+TiZss2hq3Chw9O48R/zrNqmztxMcxyCkZXvG74WT8LFbbN7b/Qr488QYyB+kJndd2rRi0E4r+l+bxVwpt/iQzofbq3DQZ1lX/DqbIFWksbRuFMuvpr2WGM1BtY+W/HVlMWT8iRLV9j598+w1EIbYUbez3CI+xYZhcFjINbJq4m/+v041tY0Vl7wyEHtE4vJOIybf/bqKs0RMKYG37dHTwZwwStqtT+41RVTZCmfyO3BJd5ZhXNfanfuX++ElR+4aKqNz9h8IWjd4Nvan1R1ZsM558m0xZgyojYuy62QXBff9cvaMy3VpkUtatF5088MkcRxIsdw0lCZ2f71zm60Hwf/fLeqv1jNBKwf3e0kozMtpQ3W4mCq+cf308yBl+SG4BgmYS3F3Fav6s80bbkocuBaSvHCtQGWQmQfWlobDnj3ZXGSxMrxDWwjNKfvAzW2Lpdfw5CGr+aYuCrijLHxbm3EouvgbjFKgjMUH8Rdk31LDF1Yv/mxA4ZMJnG9vB0eVMOpL8R836Z/vpjsP9/N24NL6RcbZV1S5N/DgTUz/97qPe4byf2AbiMbXd9IXMBpFz6SXBzt6uOoETwk7S/70GCiJ3rcpZL3TGzgNZjzuFcZT+Oz58dxPW9t68NtLTJLc3oZaFahssAzikSG9Xv9Ei79os29Er4KnschSTcXbtBvbwCZai1E0qIWtei86bwRyQ/16dE9eiEi1u9tDcFuHMe+DieBjev5RsoDOKZuEuEYS/d77sEtZ+/x3u/bUEw3PIJDMvFmV16uU0tL5K+0P0R+ySZT8YIprZO934IMR2edge6kd59JIR+RNBnYvDVH8blJ6CrLxwP5Vj87N3Hku4TNnNEDpzR+7D7cwsg9evwy/mK1DTSv6/df5F87iRvN1cRWK0vfAN6G3L/B8vkBzHBqMGW5CFkw68RtPMODnl0k9oz6QV+KBIreWFiN2/HsV549av8yBvEnvdvsecPDSe899+71qm8QaSMcXO/Kt5bFLmlwk9bLexQjkay4iP3nZ3F42lBwgEOve3B2Hf8ZM31/8QLI6/f6B3rtQdyoWBsPsRiRNGek/QTVeFgLwJ/z6fPz2jQZVj0Lls9AQJiDZaAa9Spsj3hB0WRpXpgH0ml+6DDALtwkepqla9D6vGsRA7Ea5DJEleKJYGX74QbDFJqS6lrdfftxHAFpnC/rBsCPYLUyIxyc3rQMBGac5kAFECzrp/SAZpfTKZZGthZxHEsbWdztYmvu89phMP4wltXLXmRT0QovxB4at9/PZpzJ8qQ7j1Pz+XSK5VPB25T0Oae/2E3qEXtnDksycJCPKrfXuxWajNQ2zyK8HQX9qF+72OPmor+I0miEpSbhHpSB2A8L8rVw6PWufOuhPC5KmadpDpQC4cnKqYre8349ltsZ0Y+6tWk14B2/qOrMNeec/dbmgq+F2jeWZTEjkS/p1/RKDiezHtfw+ZZq06IWtei86f8XIjF1ZtVe7w3KiYtbnNHOyN/A+iRLjak++dd8F5fBMz9i1VdnFjup9uLHiUzG3HaTdzThZQhoHIcybsdTWZZxMa7Gky5Wjx4nHfwcv1aPvFd+DIHX4xo9jetPuzaCQyl+SIbdtwonYX1BrwWdUlj4CE6d2Ytbjb4494a8etKLGSnExbmtOvxYSh+j2fnifAIgo27y1Erz1SV75hCu9wrs0vLv0D6wvddB558NrE2wIWKDrR8JYTs1UscNghfPZN09SXMeEmi2DVst73oEZ+U8QGw5tfr52qjhq1Ve6gC+SzMS0QINbR3D9Y4Na56lCudJ3Hfgu5Ttvt+8QJAISJyIpYAw4JRnaXulq9Lxr8/omb+c1aUUAIj+220k517D4WF/GepWbcxWh/K2Gc46hrPGjxDjL1t9+RLNE9n3CdgjdyzyXOxNuu/Ln66GNk/SnJHdGJGFoPvagVm4B/DUGN/7ZJN3Ob0L4rafwg2gP+BxaPtulhp7fMzsL6zzzQnWIVZhf3XfW8WJaKDZblUzb/Q2GXuApcF23lo2JnGTxrq9z7vX55/LWT18MltQO/7H6uJyFidV91ff/gHeYk+b+SWv8gdZusLOj7+xcXuan7i/5ima42b8eAwj49vbfElmUiOHSxpiDRnBjY3V97u4LVDBrayzul/D8lzLV3dtsmsbDva4MfC14HepOvOJc06A7GRpDBc4fvaSd7Rr21mqWX+Ra7w7ZrmBZ1qqTYta1KLzp7+zanPuO3ryMM1YPd61TA7fxUMiJr3TOE7reTZ8+OcLEhO2Jhl8NHLQg62eQyIOIjSB7ye3vYWlGa78PCCGVrbjWf8PEENXs/7nHqF54+d1ze/0VZ34GXCsvh3H3k1C+uqK3yGLd27wz9tZHomY+P8K7DUkYhDtCofWFrzi/YxtPpRPe+fQnNPDkN40S6WV/ww0+3zsHvOWtePG0MZ/NcRpAEa/QjMSAYEOi4NtYPmZbJj/IE7qj7gGWNf7mRjWsVRNXg2ssvzN1vi9XuVvpHmbOmhe4Wleh8doTldmz1sbvfB8sixdKzLOkjkJzU03JPIHqmcM4CWKZqlqlKc5I4VVzYyyvqfxi/EMmcUQya/xDA/UW8bWFrWoRT8D+qk2knN/piemD/pSczNLdnBoWuJuXDOL47RDxCzOkInvbGzytfvuNeX4fpyIH61o1fIlpJeGN+bE1owDeLEcxpJfwonNzTgjjVVuD85/exVO0fQzlCUXPfMSjv0XcOLD3+3K39nKUI29M42DWT8tJcC39dXXeUlxvA2kTTD6NiVDJIv347bfZj/yq2FyyY9r7aE5iNbuW24bX/9/6y4DnffVAfMe3+oVsMd7gVVuNc3r5UH60MKb/X61BS3eXLRUCS4lU/MQxVt6fIylIcuraN6bwsg697u4yeonjDUjXQ737SxOS+tfg+b2mgfAyukh7rwLUvD7+jVbuMVO3Nw/hnPb2tRNe9dWe//ZN3gI+EL8y6UO+DV1CT9wCoqrfopqc+413Eyy2vjO7Kskxwa4HcKYZKk12vvAirhFUUaLMx5s8S18yID7a9RAxtE6YD/NcBv9bVWexX2Dpm1tBLZZgb4bySzxSa9Sxmi20hQwFJNxpJJXAT+QxM+R6Bvo/CN6nx/8AM3x2/7X7pvaNbrI1Jkte4gn7N5l1lz5VfdDrn3jtHWJv3TLxsCP2fFT+rn8HEtpuaVfPpK/2y7+e1zcfoTrLz+ToZ/03PrWx+erFz3Tjmv0lmaPh/3ttrL06vqberyVperUFTRPuuYEfc35GS1JziZcJ13t1cnmT5LFiXaEvBT2cSYYr0MHU3L8m3O6hQ+w25tXfjxKftG1IizJBAhu+n5hmWxAn2GS++xDzEsMUku1aVGLWnTetKxqY3Eiq9FFY9AUGGEaxz4cN/PtXnar7+la7MkCJ9nS3jOfxKEOQ/d7cRDcX/Tme1KNkZuRdQCn5vgpAUyIrMehRF+oWdlX49y2xv398OnV3r1+9sp4SbhXt9jg6O83Y5Sl2b1nRjt/vfqRRc94sSUH73BIfrt3yx97r4dmzWA1ru/t/z6aF0kul85kcbxBu1d1X42x/hjCjcEsDqDiPWOJrbd4fR1HhPrLB3rc/0b+fjQ2P3KeSmD3+uMKS72yG2meV3fpBD+lCG/VXhetzaJnQfpqix+pbIWY+PdCqIsjS5/3abk91/3MuIvd7Tdd4C2Y3Q8PaVk2//Z49xZwU8nf0ckAz3rvGVv8WPKU0t/XL27nfljY5N65jWUYyS3nXCN8iLpcbhB/BeNygU32/D6vYb6l3669hEuqsh/3DfkT09Cfy2C+mbTut9HD0kAcHyGOsSHefNzqtJqlmwXt89rjk982K+cG3Mdq5Gfs9veismtHaNZUQGw1Vid/G0grZ5NXvv+fzdffBv5Iz81JcQjXfsuWH3jGrQC3KXvaU1SqcU18RWY5xX05RWUpBRyKA9uaPw2py7UU4rgdP0TGaCPNDkK7z9bADLB0IbHP0PazlPZ7NbFWeLnu+T1cK/2yrW+tPD+PzCROI97qlbVnUdl+mhi/3sstkN6EC9darp6WqPlz5+Ae5ZIvrnJtN4ZkQsbaY/9bfe8ERpRzH9OP50acIBkDfl/Pd1onbICT6gX7JGJ7a6k2LWpRi86bYkTy+x4u8Ve1miR4wHvIILQf5GmybD9LpcSL3rkvcYzzf5JmsmBGi+9Y7pker8xDuHAWU3d8+9cRXFpEq9tyaOsq79qxZf73yUc8hno3etdMmj2Pg91X0WzshaZwFQ54dbDy/Qh521Lhzh4nba/36uf3s5GV56M2//1vRW6LjqYYXQA2eD1yyLvPkiD3eP9tUKXhGA6WG/r8BA7V2R4uftYT30Fo7fDHrZ3mPgdBlT+a1AsAACAASURBVIvH60Wa1TJTf30bu82fSZpVN7QMS1do4+OPq5+HxsJVdi/TjmPeM8+z1Cjtj7UfvGxUZWmi5hM4ta0Ph+atr/fQjI7tuq2c38TScZn06nEHsNNsGfrxLIw4R8UTCOppIZIWtahF500XbDgnvG1x0lgQbrZVz/38GsZV/Qg444Rf9p73c5EtR/579uj5Vu/c/j+0jEMxvUjuLL43zWTTmglr34b4PndulMRJCX89ylbvHr9uJsV8d+jid/rlLD5fjqw/Tbdd/D6QPrYcKf57rG5VL22CUQREcXTB7vh/s4vIQj1/R7XmGqaZ9GwoS681P++edflfrmWD2rQs0tLPhWrz63qayf63fngS56YcoXmLBbt/z6JrVfJsULl8aJm++RQunuUanD3EbDGL62Tl+MZts+H5Ace+fcLIH8/FbTtEcz4cV2fFNhcU4kTNRtfTbCxdHO7lB+AWcejZjNwBbpdLfxGrzZQbn8Z9XFqNG3Ng4WV7gF9kIxfse/n75wA60+KMLlVDjo0dB+BHrx9h/swEAAMD4p8ZWNlNNRQT9fzcHKEOwXxpDoBvzk8wP1cG4F01Kawa1gmRa/mebi6/9EoAUur/Hhs7TmHaEtw4u/RUUco+8405UrmV8u+1Ygbq7VpJ7wppYS2cYWZGrs/+V3mmI9POyMelnOE1I+Q6MgCUQ1dOrmNQOlD+IlyAavW4VrpMWtvWCKWiURjSm+0CYGhwPdmOtkU1rpHrkLN0uhuAoD2FTdNcAjq65Zlcl+4H050BtAK0sRx9/VuiALx4WNYprBu6itlZmSr3H/4BF05L37/xsLC+sLEACSmfRlmb20VPj9a0nmFyg9xbLMu1RgISjZor1BrV0GMKUglNzNzQzy4q0WBeb88QNNTEl3Krf/M9Uo+b3rOd9135CwCcLeg0DzoYGpR3dqSkX0vhNMWzUuezxQoLFbm1PZBxW9E7QnuHvDMMYXZWxrtw+jgAs8Uyu+dEKSiWCtqEbhKKvRsB3NQt9X/3+z4OwJpuyOX6AZg/U2JsTD7H2blQ2hbNkU3JGOUH5WsaunCQtYPr4q6anxZ/yHxZ5uHRo8eYnCvF9QQIEhEdnVL3TDoFgUyW+dNvAHBicoKnKtLxdepkUlLPQ1/8ovbnVj6n0W22HemtuLV/4ISfMY9HcMZ+X7BaHN+D3nVTpa4D3m3Ri1502h067A8UXZzKTQwA21uqTYta1KLzp+CMcnR6hePWIicVs6kUb2ZEUkShSL1qBLEETSUJ5+R6b1bY1T+/8EoqKlEmJuXdE6cPUlZhNzg4SqdCgFClXWdmELpFQj+XiohCeX6DIpZjt63hw90iuYJAOPpT4TSpaeG/E187Tep6ef6iX78YgLZgBYW5EwC8cvdfklKH2PBt4uC9eOgy2gIpZ/Ks1DMMIdcpKGXFwChRXf6vKtqqnZ1gsnoagPIE9HaI5M12SZ16sik6e8Qbn8sKgipWJpiakmfGSjMUQxGxQUL6K7+ynwv75d7uFW3ktL+DTgPbK+jJy/sbB6UTi9UCsyWp87rp40wp6GgojAgSK4kaijT0LalURP9Ng3q+jjOvzui9C9pfNdIZqUcYRTRq0ua6SlOo0aZ9T1LqEdBGuCDvjKpTRAmpSMqkf9hGqPOGxjxdClTCebmvI5Nk3Rpt+8o+fWYtpTnprzempjit6OLNSMRiW6qNhCK8VGqBdEbn4mkZ/0ZU5hpk4nw7Ic/UGtBoyLVEWObZSM4HZ+Xd5dk5wsoLAJwtwZsac96mY5Tu7CahCDNKST1Pl+DsmKCQsFEnSEQ2CNI3uUEGMtL2sO4S2XTmpOz2dJYgIXOyv0feOTS4nndpvzeieuzD3aFbVAzvfDZ2emS9o7l6V7DUjLABF9IQsDS7ox8eY7Ejq+/3Hsp7SEStuntXGRIB2AoPfamFSFrUohadPwWh6v9llWqVUo2zZQ3TC5K0ZzUJTYdwzXR7N7ZKqAFUK/JgRSVPD4P0DoqU6ugQXhklAp6a+1sA3rsCGoo4zs7IM20pyPdLOb/UqBMi3L8k6jcfbmToyFjooEjD7bkuQpVG79wxwhP6zkgR0tgjz5Fok/cM3zZKOiXnp8+K3rr77j8kpe8a+lXRGC9eczm5hLyzUDgSS9NcSqRmz5p3QV3+r5YOM1Y6DkBK9fiBzpUEgbDvpLLoZNBGLiv9UGlkODtV0b7T9qRqlEKRwKnxGfoHhgEYXLMWgEyqTColkjWXFj1+Zh4Ojwui+OEfTRM1pE0JbWOCCFLStlyb1Lfz2kwsLc8UXyVEkYLarlK0MXRQUF/ug0nmHxdkdKYq/4eXRwy+Iv0w9y8EdQ1Pv8KLPxSpHCRWxGaVUH3wQaIGCZ0/uQz9/dLPjYqg3lQAK1eKhp7Lm50IetVuMji8jtdel/dPjE/Js1FEFAmKqjVmqJalP4tF6cNvzs0RNkLtY41XTbSB9lEyAQkULc6JDWUhnGCmIOP2+LT1C3R1y7j9Uk+ZsEPurardZT6VASsnVacnI88P9KnFoTbH5BvHtR7yX/eKDO09awF4Myoxq4goqnRrewpUzsq1M0ViWyTyOTGGs4f4rnE/snpxqOAmXMjDQZwb3YLpisBOCyU2q+tVxEaUO5JiEwE4pr7t95CmaROVW+8hWKhIxYOEFDdbKrNQkknaiMqkEimtpNzXqENKP+CORDedOhHDiky8VCZFe4d0QJfumpadmScdqoEsSlGoyGBFCZnsvd395FI2kZIUqwW9V1WgYp1GQ6BrtWzdVo8/nM5cmX+aWivlD0nZ1XdczENTwrwoTDGVlIn4tpRM4tFfv5g2rd/sWWnvs/c+RuJ6eX548CouNmNaIPWYLbxBGMokTnW00zWoUQV1ac+J0hyFE+JHGNI2Dq4YpCsldc6m22gkpKxiRbhkJ3naUwpOoxVUlaPPFeT5s0GZakXK7Mwqg6WdmjK5IAiIIlU5DF03aiQS0s6hW+S/LZft4Oxp+Sh/ePQ5Ui/K/wuXykMhAYVRGePKoxnK+v7w57Xfi3VOrBf4P/AfpT4nomlq7zBg7bbXDJQZR0EbCWWYHZTp6rAPQz7kRFAm1+MYyGIKOmBkWMZgVo3+ExMlzHgdRc54HoUyl6rVkJoxae2DBBnalLGnO+ADaiRvC+SZFN2kVQ3ZHEzRCKVPjrAGgPaODFk18EaRqh4NSOj8TdAGdWFUptbl84N0KBNvUxW4szsgl5P3TJ2Z4Oys1rOhkqhaA1XLUkmIltnQyI9JAQnt96NtjUa9a+bZ8lOgWozLzjrOjWbcZRTuVWPqA0UX8XpR/PRmmpf/PdhSbVrUohadPwU9CsUaoXDUIIK2tHDsMOqiqrC7UXGSI6HqDECiIRw21yHPp9OQMmOYGjPDqM47S8K9/2xymoRKuxvVyJimTjpjBrQ+EkXhymPTwmOnTh8jlbpcS5S6fSea5r0qHSpRkrcFwr2zaqDNdfdze1YQR6m3zJv6dEWNWeOnpzlZFQnbnpZ6zP/6z0Og7uXpCXb/229JndTYNPzxqxgZEq9/e2IFhYK4CcOKSMtsxxoS3RcCMKFdND57hHRC6tbenmFejZdnzkpFG+MTnO1QQ2AiJJ2R844ZaXsm28dsKGhqRlHOo3NzDKj6kEg543gYqRE0BQlV2wr/VcbllcSTjKy5FIDLhy8n8cvy3GtvSBuqARTK2p+X1+l4QfqEQA24mYioLv05ZYj1fdCY1/KDLEEk7YzUjRxUykSKTiq1FLVIjZc6VvkV635qjr43a4o4FG2VKhMsVOQ9iaBOqM6Bqq4OqVFic11u3peUl7el4QM6xit6srR3qkFb3dTpNISqRuwjy2ZF4e9ViJdOBPT0yjyvKMwvV+rYXGw0yoQVRcKhyv8ow0Be3LtDg1JeLp2N8zKUy910ZkSqh0lFHvNZqmokb09B1LTtIAzjcIChj6x3vgp496mmR9i/yiGRHE37IgrtwAVZKYx5aATuVMjz4gi8P36bRbz4m2E8wDBVgp42DQROyDHVlyUxZ0xjmpzCPNRaXS5Nx2Of6+6jMyOd1bXCwNQchRkNpBmT46NnjtG1QvT7oFGPdUb7BKqVJFVlLqkOqFZk8n9bYf56Io6dfhmAZEMGfz4R8JS+IdXIkAjlY/5AWQY8nYm/AXIdSdL2sarHabA3z4aqwOZH56XsDdMnmG9oPVZ0s/AvRHWxMOzC6QLP/Ns/BCC7vZ/TF0qcys2q+7cFGebnJCaASFSXtvQwCY2lKC3UmVf9vqoqztRcmUiZdL67nfyAMKI1A6ZW1Rk/LHU69CNpY3pyghN/KaNQLUmfAwTpdn0GOrRv3nmb1O0d66/nm9OvyrsnJ5j6c5kpwbtVt3+hj3Ko6mvDCZOul2UMgkQXk5fI+fzPSRuSZace1MIykc0M9WBEAXTIN0Rv/yAJrWdGPSC9a/wNw5enSsW8PtK2zq48nRqr00hWODNrcTLyf6LeFqfQ6VFB8rHBPPlu6eOVvX1EnfI5zlXlA06E03RU5flkoo7ZAAO1jWU62+jplOeDQG2KlWNUVOWMgFpVxnNWNbyezhqDGsuTVkmU7mgnVO9RMlmiXdV5U7vChToJFTqNRHlJ3PkYTmVZbs+01d72rQtqqtlN80p0CzRbbUmsNxFzp70a2Xbr03BSz38RKMUeGmNjdSRxjCg5+9jYUm1a1KIWnT8F9bpw1YbC0UQDujpsT5OQjEZ/ptRANTUNKDzPrbiQyCJFQ+GRUZBkvCCS7WuFHwDwLy+9jN6cvOfQ4SM8NiX/F2YVjuacpbwxM0VJ1zCbutXe2Y3FrrysKOOG1CDpDjWWJdtoU+5v0bINMkSBxUpk4pgAkza57i7yCl3vUMkw09XOQij1fGx+jovfEHRxXONJ8v2DTN4pAdqngeEpMV4+NSYqUC4zyMTQuwC4pU8QRSKA0rwa0yiTX/kOuT4oCK9anmah9DoAs+Fp8tURfa4t7vfA2H0k/dFo1KlF5pGA6Ept2wvSnlSQoU3jumspkcptiQ4+8HZ59/Nj+wmxqFx5pvCuGaK6SsMISu3Sd1lFF/kDWVLfk37IqFGu49UkBljrlzotJbLglagGf61XfzmkoepDeuVbG1jFKyd1q8yNMzWtXsHKcUDib9rVQJvtyJBTdNOoylz4aKot9gpeNCxjuXH9lfT3W+xTNz8cl3k5PyXzrqsDQvUk1Rvd7EtJPT+Zkb7r7FlLh6okiYRM/mp+BWfHxuQ9EXGduzSWpqd7Lfk+keAZVT9TqQw0tJygTKiq/5s6t6tAVdF6jSQN86ztvCvuHcvxY2EefTTvlVTU9QN79NIIDr1cB2wz1cdARg5O6jNbLFz2ZskuCVDws5wrDfNorA09Sx74dguRtKhFLTp/CqZmhJObyzYFdGjkaZBKxa5e0+cCAtoyIoYSqUEKEyK5CjOicx+aPM1jZ0RS/8srxUyz8aJ3USsb8gnZHosuOeS7V5JSF2mlBBFiXDR97/tRnYRy71xgemeNVNKsLElqGidAaHp3mYWavLMWhlR1fUhgcCqVpDMvqKBrhbShPRykpn9/MpXhjLp9v63G5UylTOcrst6lEUB6SNyDZzeKLWWkCrVx0dC/dv/XAei5oZ+pt8v/t6wZRW1pJDRXVW/+Murax2GtzhHV+X/41xJ7mEpAqBLLBH34rWQcJ0IDgT1A40q99ALwLXXB3qKRy4036MmK/SWfhvxterNK2moFInXlFx6eo1jRMbhabD0hc7TpvcnDGq+SyhBG5vatgaEoM0KSgZ8npoTG2HRl/KyxRhbINMFUQewV49MFTmr06Mys1CcI2nibectTGTp17cq7Nklsy+q5Czl5QhBem5lsUmVynWv1vE5G7WWh/n/sjYl4PUxbR52UotdcVupRmp/gbJx5zVzLSTrSYgAqnj0do8aOrKCgnq4kWR3XCBurcvx8PpvhqkvVjBnInD2y/1X+eu9fAVAIu1xZmjNgGGcj8VPZtlscyBVuB0V/22+zi7z7mPeHvujkJo1khTg0ZHvSpWoWTCON36BZ3dcBf24v+o1pyEMwozAwraHbvR3dJFJyLRFAQj+mWiidG4ZzcaBXkhmKaiT97usSs3Hkhy/woUtkkg52rAWg3nBBMz3d3VyssQELZRm9nt5uenTRYC2C9JR84B/SBWHfXDDvOnwgUIt7ElCVo0FApGb9MLCFVmW+o96O9wdQrVsyPWVYmRJoO23BWDqIzYU0spnY2HVjRmNg6mX+RgPz8lMTHLh/v5Yp9x34xYDhQVEfZj4rC9ROhnUGJ2RYHht/nsG8TLR3DslI9icnYEH6cKE0gcVItGs5Xb0XUla18zU16uY/sp+0zs3CN0o0lMnyXalI0FEj/Y/l0lk1Ar60fz9hIGM09p8naDSE8dffJ/2Re2EwFhqpRJmRf6bevLIGTb0d3nhUl0lcqcFuL7v+bDQAnUuh9mKQyNL2sp5/PEND50qxLGX3dI8QJznUwLfJqRkOqXF5/ESZMxZirzpUb/cK3tTZUA0zJBoWlq9qUzZDm8Z8FHTxaH56jnz+uNQ5ykAkc+Sr03It+/J3iJRZdybcwsU/GxevXlsiA4EO8lPyzs6PjvB6p1xKpbqJVG27NTDD6nrabQGnxUgliKVBkiyRepzs1XPFerxIcSGM4iUkPlnAmb87qwmDY7mlm53fgTIQvW9BLa/7VR/a4oXD36XXjvgvZZZrdLW0KTgPA+xUX9FVwK1HW6pNi1rUovOn4P95/TgAn1wjcRqpVEki9QCiOlVd1Fc8K1w8DOtU1AD2uy9/B35XDI1nNonk2DJ6JZdcKgbHRqSL98bqtOmivmy2j3SnSJeqxiOkA+hIq8GwAZGGyBfOqoRcqMecvKHuU5L5OIlEVE/RMJVFjZBRCFFDIOMzEST0ufdqw4tRHWKJILEy6VQmRmONMEla0Vg6a+9ewyfb5N6vBbDxFpFeZ2un9Z01xr4iLtZGTY656zPkBgVJnB5az1FVwcIxkXbzr36LrrSUMzEwyq+8Xfl+QsRZrTpFRiNab18roqOx9nLmSyIBvzL8Ay45rfEsF0nda4066EIxUzMmzxxk7uteqgZTh/5aXaBZyN2gqRrKUyzM6/KGJ6W+bdd3x4v2Kqp6lkNBg/KCNqKUGekNkpew+O6puSlOTCi6saCQRIZcu7mXLTp3BebOTgR1EqW4xtLGMGRmVl30iTlrRoyGGokMZ3SZRLGoLtnZgMq89GsyU6aq6LuoK0kbT5YIFdHUG0mq2rfVLfJ8nQWSqu4k1kuBqV1zVH9e13AAQy8Kgiz+nx/S9gQEppLq3K1W5yiruh425pivSt9Up6Q/j7x+hLNVy5Zapl2/Ge7/13Lc+YUYJ/i5f1/U2/rwNv8zdcfbjXxhlct0uNNW7Y3Cg7pyz9QlP/H3DUzGdlnLEle655wLKdFs0sHgUYm+/+rvSs6Laz53G+8cFl0626gTaZj6ianjABw4/AKv/EeJ6Tg1Okf4c/KiHsVnR/tXktIVtIogqVaO0yjJRMl2ZOjpknvr7fKhNyJo0+drUURVY0JKuoq4XJ0TDwDw7UAg9wcbBRIpBXhR5MFqoWdJESms98wIPKfPX9uoMV82pqGwuAO6FDumU3VAgyA0kCrVCfm0MIV/PjfFhJZfCmVCfSess/GjMon/pkOe+aX+UZ5QeD40tY/5WQ3w0/wqI8Pr3BLbyWM8dkhsMJYjZbJvlE8Oiy7do++kUqZdVYIdw5eRWi+q5HxJJuTXTk9wSVHqNDUtAVKVr8/Q3SH9nb9lJRVj8n8q9Zlaf5jC69LvGQL6VwlTyN1g3p0F8r+s/aAZfxqdwkwAipTd1x4vd4CFhrz/0akTvLNPAuIaOqeqtQm3eldXIc+fmYk9QakMcFabrB93GLlU/KmgLYbUocabLDTmqCyYyisvmq1EFDVGpqunmwU1iLxzWj6d10rzhDpBoi0LdKgg631R6jZ5+QI11R6T+pkVN81BTfqoLQldN60FoH+FzJnebAaNa6OqOUbKYR1L2VINI8Z1OUVR7WKFuam4D3MdK7loSAW6ulDGcEmd7tTjQZzdJMJjIGbk2EyspTyNt65Gk5Q8tMoxEBu+EvAJNVD6+40VHtKsSnfdBffcQ0wLF7VUmxa1qEXnT4Hl/shdq5GnwQLzyArUe17+E5L/tyRVOzWqEj+swTv06UqEBvqxYViwzkcuey85s4wqm+pKrAUzmjFHirXyt6kRkg8KgMLsPH87pqHgBZFCm0myT41YkS4OC8mSipw6FKoR9tnQ8nCUqamL5B+FxBmyvq/89+tBN0lbdKVSYlsAiZLmtUi30b9SpM+AhkcnGhkWVJJXwwUSZ+X9zyr8LlbK7FOU8vG89OfG9aO8V6MiZ89exZFx8SgcOiqxDEd+eITq49Le/Ie7KQ4Luii2S6VGCid47K/+AwDZjFw7veZybum7DID2RAfVikQKvE2N07f2rSd9oZRZGpKddv6k71WGpi1ldEQijvWQQyKZpVfheSoFNY2CflMRx9sSECgAzN4g7z77eJnK5bq4bxbiPDWWaS0REYUiVTOpblK21kBD5OfDDMfeEGxsiD4BpNrV4Jzop7dT1Qw1xhaL07H3KpGs06hLWSUNPvp2pRx7UD6oRtdM0E1ODeaJIEVODdm5bkGnlSsOEWpHJBrQ2KtGeIWFF71+MUfXyrwpanuCBCR0iQbJDLWEoMGKvudMdZriuK3uRfs1g0bt88ZciR+Ni4fmjL7mmbDGtaoe9ma7iRTZo16Va3a6Bbq++mGL8rbtx8ELXcl3Mucu3ejtz/OIqjvHWLyPHnzGPc59wJhtSHHrb+hVL67k7qMw3UIkLWpRi34GFExqjtOELmXf/Zd/QscvihK8sQte+T8kb9I7XxdpdvTwy9TU5RYlAto0dqAjI9wzl8mTteXTPSJZZufniNRGAhnKoS36M723TFVjPibGD/O1CbHBXK4opp5o4z1qWX1Fy3surPP+hLmpuwjUgGfIg0YKdMFYnTKNhpxfrj79ZFhmn0KR9kCkwHciQONdPpyC910nEYXr1rjcrIf2S27+8EevEPxYM6upgfc9iToNW0g4L/aIsDgXL58f6O4mrWisTfvgFY4x8mGp00I0x8C4tB2NkSkCgwMSr3JIc8NcPl/nryckxrEcTpFfIWVN9IuR+2PdmdhWZMv7Pz40Qsd6t/1X8exxAL72djkOjj3H5AvT2p4MwTekbyzXbj2KSKodK6E690K1jbDmuzAVcegYJIIsZmf6UKKLYXX7lzTRzPjEQVuWQ16zwPVm8+T7ZS51d/dR1Yb87ZgguBdffYWpKen3gGRs63lc83j8o3LA32TUtpC2+TFHaBHcUQqNNOC1XoFYHS9BeZPNxRqNK2Q8ul7t0+ZEBBrykIqxgIuFSe8NGNys+X91Tc+ZyhyDKUGl+UGztUHFvp0STJ6Wcl45KpghB/ztCinnm9EcnxtUhKdRys8ywOfUFfsFb8v2bQYpHsOBBbXGfhe4VbeTWNjitpzwd6m0N92ixxzOKHuIz+EMLmph3bUT7jqq1/rgtyEY/LB0wLzGXJz++hwdT2qA1A3tXPzG9wAo6rUhRhlfc1D7pUxNjaATDwtEndx8PA5NNhtio1SWRCYACQ1UkhcI1duYPy3lT5w6RrFigWY6WI0g9tY0tLxGR5YoXjkaxXDZVio+E0FDF+Al615SY4uUT9R5jxrt9lWsIt00tJ7Z7jxr1zQnYw6AjZsEG9oR4KofiKP+qb/6E8ZffwWAPy9pjMypCbL9oq70pPpI6FKDNxVwJsmSblMIG81hgVlp/RhTHd2Ekt+S/kl55uhflsj/qsDytW+/lLom2Ok4LAP+1eK36M3JRzCxRkxxN/etJVCMXQvLhDqhP6YepdTwlYS/IJ3z6PQRhqakrIIlV/7qVNxe8wQF6YCq9mcthCilK8gttiQZ0NMrg3TJuy7likskaOzImPTXmck3WLNGDPsb1guz7O3tlxWXi6irR76Q9swCL78shRam5zjbMPVXn2mHjCb67uqVfh0YGqS7S1czezvaX6PLB75BECeaCoCaqsevDalLIhWgaxNpM9tw1I6FxafSASM9Mh5bLpI25rtW0mbLNSILka/FyanqUZJfuFRijd53qZhQj545yH/RJNIBdV5+Vct/Qqv+JZcqcVhZwVZwuksPcSbnosaE3Lqf2Bp7F2hImeM3aYh3O7Q1vfcAj8dsZS8uIaPqQwe883ty8KWbW6pNi1rUovOn4OjXRTqULxeJnwvaCa4Xjn0mnGPqq8KdS1cK5G6QIb1X4FfH+waplEVinbhUnv/+vr9iSKM2U4oSpk4cj927K6M6mW6NHdBKVCtzlBRrlWYjLnlU3nlWt0lJtXeT1MVZqbQZPus8p8bW9wZlnlOJZHEiBAEJ8/23dbPPpIMZAiNA3XwmbhbCEu/RDGjpdCaOpv1p9MHL1CV92b/mie+JFHntG/9J313nbRp5mslAqGGwXRobQqJMI9DUA+1tULccF/rySobXVcKmBuWZ8q/WGVbV6Nj/e4SCbtvRpqra0C3ryWroeELVxN0/3E1CDXnD/WsYGRRXrGWmC4GUoqHb3/F+GheKzLKUD8Utb/C1KUmm3fu6iMDjP56CUJfvp5JxPhJUVWxL1Ik0NeXCQpkOhf0bfk7K7ki10dUtqKHXFtUFZSydJrQRVWSnmFkNP6BWol/VoFRQgmmp3zNn7fmQj+mWEWtUTejsyGBIr96oU1VX8XcUNSYSxAbiKAI0XiawjG4pSGjC61QkiILvBUQaR5JpdJHWUGNL3p1f0UdDkaJluEukuqEh55mOFJeMyry5UFOTvjTWzcILUrdSdYanbK1nTG4/HjOGNu1fPUrs1s1Z2Pun4EFFjb5h1SL+/w3OfWzqzH9mI24vR6+Ee3Z651qDu7YCV7cQSYta1KLzp6Cg7rtyUTj27HqYOipBRIm2AK7UNQ4vCMcfmYB4+wAAIABJREFU/sQIHZuEg54tThMmRc+r6RL0swvTHFU7wfp3iPHvbKVO2bZ0iCL6NdrRFlUtnIWpCXFhFmamiOoaPWj7LaXAoh0tWAlq8VL7ZyPidRzf9rJKmb2j0Sjzj5z1EYB6IzawkFQdNhHU+H6HSNhfGRjlv5VmgakfC8Kz9Tlrhgbp7HG7IZu7PKVIIJUqx5HEAbF9mISirWptCg1YJaXtTSSTsbEs98EM4VMaGXtGDI5vvPhXcdRulyZVGl47SH//WgAajRLPvfqcvH9BpGq+q4+pQbHlfCSENq1oTTcMe1u6ndsvkv8T68USdbY0wZ9NiBF03evH+dtHbYMuGaSB7Eou+idqcOwxYzuk1Lq3bnRdbCezRXOpKNO0YCTQPexCtZHNVyKKZc2aRhsJjfq6RoP1sqkka/oEFfTkNGQghIq6yMNaSK0kHfp+XQvzVMrb5CwAC6e1LT2CSkCmR+Zs+oBlZJuJo6070ll6FFlZkGP1xxMxIk7rVAtCqGrajdmoTkJR0vy82G9mZk9T0iDKMIL3q5j39zy0JFs2/pPAiE2vK3D+YTXQ3p90JhR/f0Hb+3cUZ3f5zfjfI7hdjvOwS4PPrJO+dD8uTG0V3H0PQb3m9okDaEu00f+qDHr+l/sYHJAOWv8xOV44kKczrdbsoJuzmmZwPt5VLxOniDs6IR/3bGmGJ2Zlwt7YmKNUUY+ARj3OF6Z5dEYGb0P5NK99RDq2rVsm4UWlw1SLMoC1jELMjizX6CR6rhFSDZqT7wZkaOjHKPkljMEYA2mLjWGxoydq42O9cr56/XIbNbrI2TIuw5vORypAIpL+2LxZVIPB/tE4A381nMcgdrum2dvWNchfaCb/d1Vm4rcmdHVvrdFN1RYkmuoQ1eNcFhEBDVUBg29oe1LQUPXgzKx83POzU0RIWH6mI2DwsMDqoX8i+wClO1bArPz/F2MTBLosbGiFqCFrB0cJNA4kpWpVKgX/dFjiWRLr/zHh9W4HRoAnSsc4XJYxrvpuAo+OHBZVcFwNsOmONtaql6pz5SCTp6U/j/5I/h+fOs68qiaViuysB/CURr4mEiG/8obMtQtt0+tGJhZAjaDOWY2sfaqi2c4ub3NYnyheRWdJrNu6aiR0h/aSjm9tSzlWJXs/0cfQoBiNuzRXSnF2Ova8ZTUepKu3C4qapPrEBK+p8BwrSBsWwjqXX6SetUYdlBF9SSfosNdvfoh8/OMLxAzkpNpHT+IYSB63EtgUlqdxuZ/Np7fPz6n20P0u7n7HTu8p8+BIEpOWatOiFrXovCmgzVLyC+V/0A07RZp+5hfu4LL1wgf7h3SvGnVfAYSVGpOa7ayooYnVsMbJMZFCk2cEpnWs/QVu7dP1BNPH+epRMeRsDs3IOceGBREZXT0BH9WyTPq/EXZzuixL4Pu/rvvxvh++/y2Nz/iVi8kpLD9TECBYLPyAdV0i2S7qW0MqKQbAeEvbeh3Lm2zJiqt1eOeFumeLz/49suczXp8ZvbZ/ioSqBGvUrdqRbaMwI5m0xidepxrpYryGGFjX9HXxqW6B4merCzFeSmgY6cTUCd7QvVaS6vp+pTMb59gdnpvjja9r1LHlxy4CkS6gs9wdiTJBKNKyXIIjgyLhj/yV5m4NIvoPSr9v+PWrONov4jypCaH3HfwTLOf3YF76dWToSvIrNSK6UoeGuIj7V4pb9V/83IdZ0Lyok7MT/O6uPwBgoF/QUL67nbLuEzOj8yibSZHrUVdtqczYCUEAr504DkClWqOmi7gqZY39wUOVYYqvFSTW84NlqdvA2YioT9qe68pQVvXj52ZlXPZSjlVOGVmLc9IJUodQUVjt53XfosYgA5oi4eKbPkT/Cumv3rQmlO4CTWfM4LCLBB3olDpdPHgpr/xI1Mv8Sun3hdIcCd3DKEkBUvoF/EX8eGwYNXVkLzBi2Z3XucjV7+qlIzgD6+/h0MnDerwPl/vZNjAX7CLfAbfeg8uxZk9thF2PxHczC0HXi7qQSxeRDf/aIBv6BaZlspk4rDkIlklGk4IgJQwktjg02ggbwkDG3xBbyVcL0yQVln9kzSZ2XCE5rAszMjiPjj/Pe1K6WXn3WlId0tlm9/jR4OWsVx05/KR0ZXXmOfiInE98/TDVmiRlTrcpnLw2yd/oviaXZLJ0qBqUNj0kSBEp3LZgNVIhw+sFqvcubS3g1BifbHCqZw4xOLQWgK6s2UCgktWQ7I4COd16ckh1alggoV6jTFsbHZotuaJz6Pjr/YxPHJd6qnr2oYGAsnp3fvfVH0Ag3pS6pebLZaDWnH8lIINlVQqiwOn/2vaoAhPvEEYw9dffjAP75jPCsC5+x6VU3iFq0NE2ZcqTL/DcARm3nswKJpR5flwDsYKzUJrVzbUrBRLqDYnOSN0mZ2eINEVnqFxqRZhhfEKfmS8zq1t2VtTGVqyFJJK611IQcq1t9K5bvn4ngmpJyn9Ke+DGRNn266bSKMeJog6otyR4MQBlwlG5HK/aRZdQ1KIILtW+rZlCWyatvpPOjjqh6k6zZ3UjrzDJUlHjKEBSYgIU1TszdXoa6qKWdfW0k9V8Jxb0sRqXQtFoO7gkJTc7BnLSu+creoxwK3jNQ7MZxybG4ifyOF1v1ivVdKit7uUF4P5WPpIWtahFPwMKrvw1Mbu8ojEGB4M6F5u3I4RAvQsJLxrVUsfVwnK88bRB/jOnj1Oa14VWlsS5UuJyvWP3xAm2zYuakldL+L/8uSupqrRaqByjogbcb0pWXYbGD1KIRDK9TWMmFp6CsPy81q2btHo00teKZGrLZGhojpNalKJDrfrtlkaSMpHl5FBpku4eZOgdph/83WlKIUmi8gYb1ktqslxGIMWbdQh0s52OoXcR6r451YrFStTp1ATbAwODvE37tli0bGVZevvWyrkmJU60Z5jTBNs7KjWe+oimCvgjeTZ83wJ17Y9GqEhyoY6NUtSI4gGLLFVikIkXu0VRmUDrMa+pK196+Ul4Rd7Z3q7pLi9cwzsvksid13pWUq/K2Hz/B5rsIoBcWtq2pv9SenURXahh7WdKEwSqRnRlReyGXUkOTOmeP2MHiXQuoFGzuaCfmqLbcJmd6BpEcZRqpCpQNZTNwUFTGCg6uSEldfv+R0dofFWXijQCTLWJtsicKZcDGhbLr0ixlqpz9F0yBk/97/+Jnv/rEwD0Xn2VNT3OxxOdlViYoHOoqa45nZOd6tGqlgaZmBAfS4LuOIKYnTcDgjKu1mdNP4iA4ifl/CBxepBYXbGNwUHUoC9odhHLelbAX7RniOMIDpFMetevcy8z43kBuLu1aK9FLWrRz4CCyy4Se8jFstMSfzFbh8iW96PJUR13DRsZEpqo+W2JFYQLlnVLpEBXKsuKLnnGNlZu71zBKyodtnUEsW5oBqxwZixOhpPr6KZnlTiiPpgS7e3I9GHakmI7mH1cdMhqbY6UBZokIa3CqTdj6xq6de2KJNBJZIWrWtazINkdG3NDtbR15ZL0KvP1w05+WoSr7mrAxGxI5wmRCbl2za6WTpLUuIgwrMdLymsq9TJBRG+voLpc2i22C6ry0v6V7fSoMc7+LFbnmLM1OQEc14RBXWkxcp+JICNLpOLtJmpXJGmE5tZsoycvyC33stgTipfPUdXcsbWQ+F5LMh3RRqDXFjTL24nXD9J4Up4Z/tXROPmzycvDvV3UdPuFM4efjNftdHVJmYXBUX6lT82HOi7zs8epaMqAFBly+n/akmAtlOL8ruHcBKgxOKFlXpuo8x3L/63GfFIwr8nM5ufnyA/K81deKltybxzq440t4vre+4NjHDjwPW2z0ekYhQe6Pock1DSrWqEaMWW2EfPQN1zS7gnd43ews0agKOPAxDgv/42ij7TMmbBaYUHjSJiZov3Hijv+gxg2x750QeyiNRtHH82uYPPU3qow42QObAeKXwXwkAj6rKV0zerVEmmc5W+AJiQC8NBd7qERYCsEgX1YaoxMMR1b+hOByx42e8ZyTJTifBAENRL2wdR1M/LugIsv0omvHf3Jw3VmZ+X5nq4sg33iEunpFYyZClbE+9EkUgFVXVBWqMhXFzUiUum10lE3SOemFjI0Ag0n/sYcFu4eqgcmnXbqWIJkbA2uWAxEJSCtC+hIyntWdF9uOdEIcODuNev1JAxpXFUPEjcCMKsrdo8dn6CoMRS9qkL1D64lq+HwDRYo6f4rtkVkKVUmnTouz3SuIKV1znXLfbPMsyJthlmt2yxEVZ3QjRS3aV6Ux2+Scs78+HhsLE2rMTLI1OO9bOqJJBX9AHm3rWZNEtjKtPYstbLuoYNjDlG8sE3D4tth4CZhCu+97NL4w3vuR/JRNv7dPpL6fPGmlQyoKmtjkZ84zmOHJCdHSp/O9wzGRtvtfX2EylDn52wQauQ6RPj1v33UyzimTPDsHB+ytIu6aDORyMRqRLZjkB5dVXvJelFjuzKXc+yAJuPufp4jqzTu434Jupq6JKCxYO4vTcoSehnJKccLFc0QnE5lyXVaYKWUPX7iIGWNvBubep0OVbEGBqUPDxyucFS9VBvWjHD1ZboE9cOyCv0TuHW4FmS2jjgqnh7gdvvA9bj/OrhJI/yGqTKmbGdBmcZL3vNmoM1TjRlNia14qdvlUMClWtwOPNCKI2lRi1r0M6Dgv6hr0SI/06mAvLomB3r7nH9eXYsNgIa693AGOgtxTgRJejt135A1/fpfnYlAOG2qo5sezVOyUiF7LpciZbg9SHFGt77IpFRq1gMmHxbDqm6dSsdN6+jP6/YMv15nctdzeq+WWZmjkVD00jtIqNGj8wrPIxbIqpG1vcNg/Eq3Wxxxvi/6FTv6wZlF4LCy7XFN5Lx7tgCamPgDmpd2oApdtktbJolDgHLtzahOSTuvEkFcFQRx9He7/XErtpgtqJPW/VPyiRKDFWln5lWR7uImdu5ngNTLAWlTT6ttVLdIQZWiLihLlOJQ7v4XBkEjhcfXq7EzXkgHkcazpBKQzqkLszRDpO721zVkYPiWfoo6rO1pKOqG9JN/KO9MprpZebO4UNs1bma+GhH+niQU/0pYp/cmzW07KHENQ4OjJKxRmTbi/K2GPjvrBNi+O2u1P1YQVjR8PwGmemkoDis7of9qiW258uoR/hcVwK/c/L8C8Olv3Af/TkIZZjW8nvetINJ4lFwCunRnxayq0Ll0ncCQaGRqaDIGMW+GHXzvBzKnox+8Gvetwf1iuUxBo3r5PQlRP/kll4XEEIOf3WzbfvfHgmojO3EpBwrevebq3YxThyxG5SBQ4qP6yzdo64ew8y6Y1rD5x4CbIfhQZi0AT9Sk0h/qHSE/JJ6HiGRsu0glRclM1GuEkQxKFPYRlWyRhBzSqRWkemTyJzT93MJKiGoWol4mUJWnGh4HIFlOQlImVDpIkdPMM+/bIvXIr7mKv8z9OwCmijI4b+NlUup1aQNyO8R7YPvvlOaOxxmU24JMjL2ihrRjoQRn6qKP5rQnN+YvjbvMrcQBC8GLvOsVfQfA1I9t8+1krM59W9cLXXN6gudUVftQto/BPt0gqUcGpae7m16NM0n5hTaRrT+wOBB3rTA7zd+OyYSc/Zp8qPUNwGXK+G2T+O+VCbfYNp9tJGzDsP+PvXePluuqzwQ/jvY59ThVt6ruVd3LdVnWy5JsCWzZGSwbAkJxbONgHqaBBsIjZNIh0yQhnZ5ZTE/INLOarOnptbLSTJruSTLpZnUyBAiv2CYGHCMUMLY8RBbGEpZs62H5+nJv6d5bdatOVZ19jk7PH7/vt09dyZ2eLPNn7T9UV1Xnuc8+e/8e3+/7Qn0uJagJa9HJ6QyZrfCsQV6eRNDV94Fr3yTDb/eWzTi5JNtu5/y/8pUI1XtIhjxVwYqKUNHunv4Fg1qg90HC7/siTL9DjtkIDUZ0jZ6m+3j0Tx5xotub792Ga14pE+oWukOtuZsQMgOZqNCa7aBYkD4ulOsoT8m2ZwV+g8e+dwxdki2ZIHbPuFmW5/Yre96Dv3orqRY/R/F2uwzlTUxNiICTRZNgvNQuIO0w9pHKd5HN8UGDThtNUnCmnHh7g74jclq4mOChx+jA7Jax/Tw2CoIDEqLQeAieh4PIf4RfzSKfbCT2IeNuL6eVJnIYirryZzGPfNrZN7aFfvfxHBF3L4Dfm7g2kzZpk/ZTaKbIZXDPBZm9j724gC9TYexf3vrroHAdiuRmqFYq0H2CALCeSnHSxCwEKBHZCLJGXbPTR7UqK1MajxFgeUqkvOyyFaO0ghdWZMX69hNCJ/joY99Cn3D44UhW/1IQovIu8l6U6+jRulEm58r0PlddHAd1XKJJmipHRNLH1zty7XfTlG23LwC7Nub6N3TWf+XvMlNGdxcTNGrkyqiIST6wQ9wxkBse9VexTsutWVVqyoJDD9u8XmxDS7kqL7G698zZ81hcFmvq/MI5fJXFkRUGmpuP9dH8sAQS7X3yXIN31zG/lctVuor+QJbjpf9HVr2VG5YQPMYsQZALeQe8n7jbd1kjY5Snw0eW0fw2u5GlYjCrRox3j0GPaogr//EiMqcPJ8du1Aq4YTvh8jfJqjv62QhfZBqs9MJpLHxBrn/qHloev7gDKQsWl9b6ePQz4gY9CsGu1N40h0qVnC9lcYcuzG3H+7eJFVKdmsMmJbFWP2N6G4rli66/PYbc+wOxUqrlPu56kwQ8P7v76wCAV7VXsU60rbk+xR9ekH7sfukPAQCbUiBQ+RCr7oF1hYA928Ffcf+UxaUegDsCJakGVjuMmP6ufJzFPGaZTenTyXkjRnkEdh/wqzylZnK+B6dlCLFn5JgkUtsgD/5n7q+Nhbwb2UsA/E2VkFoIxn7vxCKZtEmbtJ9CM8eZqgvoCxcDg6IyRCFCmuRcqwDTqzrFmcjpvEZ0/uxgGdN1VRNSJqshGpvHAk92IxcqzHa0OfuvoYW+FaTmzp2S/npoEKIZynWufXUbAKB8Tx+WRWJrtgMVbzPEuKx2foipnsz4Xw5S/Is3/JpcJ0Wknjt2v1Pw+lpHbugrX/yf8daHZeW75cB78PpbZVXfrjUPYy0AsHhW/PYBi+GCMEaxzjS0l9cgzZDjpLee1yspZ2o29OExTXnJhljRvmW31xqhi1d0L8oxz774As5cEEvgrxZWsZ956GdJUGxv7mLEQCBIMQAzhEeL4VhQw3Wau2YwE5+P4JO/F0GILsv7rUsDY6MZBkE+K7NBgAhVRgKLmUqHFNDjTqP4ohMa28w09TPTLeylyWtJUl2uTOP9PE+vcSO+ejVZyF48J9f+R99FRmHy+aemsf9DgiQtURh8aT1CamXV7TNB0Ps3f44/pHnaemcdB298DwBg9/Y3S7+2j4NxYio2UjCN8cFmfY+zLn7Vl7hdtsM6vd+hBW4mtuWrHSpTRm28htwjsQ7OLIGq9noekNYkdvJLZKMrhiEW23yu/WVEHCP4KDv8Mw00aZH8NgOoBgAOys//0c9jKHn6dly6oocm92sgb4/wU62YNszY/9aAjwpVAH6TX/38MvBH5Gi4FcDPvwum9kohns1GMnCi9eO4g+pnpakQU01mUBRzkRonLL4yiPDcM0JsE1MGcff2fZiqcx+6LhYGPcchYZEmlMgsseo2reOxH0jW5fDR38XTdRa5zUsPtZ57BO0vyOCYequ8jLUwhEdeiUGaoscXZyaQUdba2sJx0sX96vX3YssWqVj1imrMRXhfm3wpJNz92spx3Lci8P2lv/5dfP2v5Vzz81LI94/e+mG8/vq8+vndPycTzWNHBW9w/9oQ7ySMvcw+QGBgWGacpSEDpcCoK+d+wQM8X+5j3ivAo56N58v+wzR3bXoMsGaZj5BZmzQ764ivPQ6Z8DEDvJMcKPfJRDDCKka/IOb3nDFS2AegXOVzfU8NrevE/O9FfaydY6CPfDUejOh6Ai6jA5TwXT6DOypNzPHerm2dAwA8hFnspxRf7xfnsE4MTe+r8rLsfG8HFzJ5sR4cyDHfVknRIL6iVA5xF6P4T17kWHrtEBTSQ691Gqf/VsZF7YQ8l73/ZB9uvek9vE5+fAg483lZnNbXgGfPkh70/B8AABZ/cgqGRZDlRglPVeQFrzWkSPF9s01M6ZtHKVTPtwgUVxNYFJggeGe2nae+CcVq7qYAwCjqOC6Vfn8Zz5Bw/bMvUo0g6yAeWrePgjDztubkM7W1AXyCQ20HrszmtJHD6bdj5DIzmv15ZOzvvDXyI330O86jwf/Gz5+fBXbq3/sA7J24NpM2aZP28ptZ69A8Z/ptqtHKFdG8COsMUqr2qgmsK7M+v7SA/+UHX5FNuRr9m3oT81eJWWRp8ncHHazTlO71Og5DoacploEtVJg7fbaD/R1ZPZ5j0Of2g/8MwTtlxXnkvt+QYyPE+V1i1kaeQfOYmF9PT7EMO6g4/g0bp1hckhWnSz/hxye+7nL2zWk590euvgldlq3fv3Ic0UD+PrAkef6H/ub3cc0uSUNvHTPza7yfXsei7ZEOYWqbHLsxhzJvdGR8dOlGtVeJXO0sYHFFVqYdvauxZYusaKqb3BsswNK9vPC8BltP48tdOc7+9TbWlND6kJxn58wtAKkYFgpyPRnGof5DpIZYICJCU5uiR7TrppJB8RjdJF3CDKAmv0/mr9QrIKVrUqlMu6LCXk/ufXq9jy8QnzS/fAy9iPvRleuOCs7F28mA9F9GSyiWxLK63Wvia9y2tib3G8PPhcONgc/1NvtZ2e7MfzqB7nt5Twz0IjXY/365kUKxgpW+WKArtEjTh5dgbicquJ2i9nkJRO98P0Xut8+hyufZWZGxWS7MYevONwIABqMEi6Q+CHx12/uOSjEsk0g7WkCJ/VWbnsWvhWLRVqfEWoYXwmbyjKNBhEFXnt0n5CscxKLT/lVGxXFSxGVscEgA/l9BqLuRWyzj7syV5HVrwKdpkX4GOYWa0qs1AFyj4hVNALMTi2TSJm3SXn57xd3/5Ff/CwA8VaePN78NNXKM9jKLdF3msKmrdskeaYIay8htEmHhRdGynd+8DQCwc+c+R1IMBps2edO4lGmNSQepAquYMvYqPtq0WJ45+zi+RiW1Qk3m0qI9iXfs+DAA4IvnxAJqXTiBpytSc1Fq3oLryTf6DDkz3739ENoL8t0D7TMolCThlUGCi0FyUusRccgTX7RYLqBWl/uYmduBhHUVFxYlvzZTHOKOe0QH3gA48l2J6/z7Y4elawDcTQWluVny3s61YMhxGw0ijLoEr/EBeAgRlEjUXDGYoYRCSqtvbX3ZER+rGFm/l7h0eTxYhiU50f2dc3JvQcll8Eaji/wuHMvR+S7PnJJJbZh1AE9W6APWR5eB6pSEQ1P1Go75ctCbCbYbDbqwSjkxihEYiS00KtJvxxstF5/trS3g2o5YiytfYqo06mBwi1hj1rF6j8VitKMBJBqvjBMoGK9QGAPWuWRAvmtCSy7zY3eAUljH/HGmkj8gsa9i4GPA2MXiyhko0fhd/52s/x/84L/C9suDE9gIDtPnoTjgFxYAu07eXI73Z47d7wihjckRywqHaEzf4mAUvfWTyIj2/c0Hhfbs4Gde4c75AKMlb8eiK+QrQWpnxts49QCQWzIHxr4bx7MBQB//FoAUNOJTO4F38QeNE83OAi5a0wBg8IrmrZv/CwDsvkbMrP279mGaL+OX22ecRskv3fB+uWksoEVE3o4t2xwhcW+N9lcGrDCa/cwJCcSmHtCaF/Nuyyt3IyK6dJ158rRcR7wuuxeCafeWZQwo9lbPoKqMYqlWe9YdniEFMByxvJODzMMsMpUGNUCB7oVHPpBsFKPHl6DPwGdvBGSsvhRdGUXoynG8Ys5Qnw4SHOboSVVMGsAdPM8U+6hUbLpJIxoNsE5pyYf4oho/hkOUJgYBX9aUhXo7Vx5B6MnkcrQm3127cMy9eGUvBKj1U+a9v2bnzU4CMx7KQpCOIoyYNflcp435JSq6Ua7wufIOKGio1XkBXcLZt0yTfnHLfkEIA3iCmImFhTNotgT/0V74Lta/Kdc0RZHxatGgvSL3vnD2PGIHs2d/FVJosaW+QEgAj+5BlgDwtfqYbQiAFcXKYAbk6n5pZqApPKMSo0iRqSyjKeQTKr8q/Z2P1gzH53s24yTH3dub8vxvPvBuHCSEfiv+4e1BWWvxzW//KZ7+seBebJq4yvopYkdu2PMe1DhTrKyccpiTf/WkcJ1s/8wrnJ7NUYZI346R4ysbImecV3emjxwz8vvIJwv1WMfbUVXX+9TngE8QAj/8BBz8B6/g5zxyJ0omkolrM2mTNmkvuxmrASliMirhPqScXiJTcXowjzwmKc5rGxGufZ3k0nsLp7G4KiueclnAlLDSl1U/YkqvUa6gWZHzzDctmnWZ1ysNYWfr2xDHjslM/cgT33WB3blrZN7c0vDRqsgKOdMQN6RWqQM06Yejjit8G9JOG9gFJ00x32yhMb0NAFCmG7HJi7FGnogf/EhcoOMnnsAai+4eHEXIKA7+FrWGChXcv8L7TBMUyfil5v8dFWAri7eu2y6oykq55FbTpeU2TrH+QiUdup0I+2nRnJ3five9Wly4z50VBKVJfWzdJcHgW7eIhtDj3QU8z0LBcnMrMlpMXPjwvlYL122X+/UYYl1bO402KQ4+aEL837EsMxktj3+65VrMcAW+cH4Bn12U67yOmrn7t96EAg34gJWFvT2HgKo8o2Prx4B7iI3hmOomCUaHmbLeswSFRbgceGwAX1GfY9giBwSNnSliXC/WgWBsHzLNpcq760VjbpvuHMKwpsfLYmSKY6K7PXz1Kp6mW/fs9/Jivq8ck3t/8kOP4/cOi0bTvZvFJrh2zx7c/nOCc9qOnL3jzDNi0fpmGkUS/yon68NZHzO04GMbAQwwVzbL5xc6p3ADZTnaL57IQwR/LBbJNRjnYhU7I8VJ5868ETnESy2OM8i5S3I8Se7OVAEcdWqjbSghAAAgAElEQVQ5tF0+8TE45ZvSMiqsNuu7RHEDuY3YBnAjzNwTMnh6Py9e097tW1Gh6v3u1n48dVaqHs+vqEpTCDX5remj3ZXvF34iHTgapi4SXwxJGFSfw5RWQg6GuMBoNF5khDoa4twp5tLX2mio+HNDbqA1W0NrXvav0gwMwhBU18Qw7bgMTZX4iHStBAOtbPWRkQZwU0kGQjmwCCgTeUsgce8AFTx9QaLyd58/gwf5VNR9fyjt4HryYxw3OdeHqtsHAAyzDENOoiudVXR7Mng6nSV8kbwsuzrMhqUJViOZxFs2wX9IZAK57qLEX9o2As7L3/fTFdxul7CJcSq/vAMJwVxK7mOjBHZIUBXd1BQ+1ik+tNTp4IaBYGxOsz/nW9OYm93F+6nj/fTHYq1MjiKYqjyP7S0a2HOvR5su0t5dd8IjqPCLkSwupbNPoBfJORMUnPiXEiBlqY/0CpJqk3OgeEBKN8Y4dyRBygI5Y40jbsqZ36fHti2MHVlaBuTpqyzPPjkuFhScK2opMtburiJYk4VO9by3P3MTjj8hsbOpSgmtOembbSSU9srbcPKUjIXvflte5UrnDCIOpkJgoFKxT4ayz/vKIb7MSu499XqenWI7gr1oOudFxkIPedZmL3IBLY3A/DHySWMWwFlOBlXmao5iHjlQnhSZn1S5TqDyyVeMQey1rSEPmEjZ38S1mbRJm7SX3Uz2s8Qz9EVnZWmxBm+rlNPP1YEtrxdzum+VL2KINmnl7CjC0qrMuutdWf2PoOTM6Xcw8Fiu1p3kw8LKKs6clxVrcVnL7/soUQ9k65Zr0dougd8SeUuaFYsmJ0CrzF7JNOxISHXtAPAYeA0YmKw2IhQN3aD5upORULU4C+vK9ufnSeP36r2wdGfaFzsY0kW7b1XM/0ZlM84ysHlPYJzr9DADuBY+zvOeFi7KSp7GfWS0FB62HUTrGphlADfrI+ASGJgYhcFZfk/Jh/sWsPhWWcWmlwXfYINZB0d8ofMjuGBtXbIQoxRYYUHYHBnsTDANZGJjZ/Y8ooxFhboqRz7CAtexWWB9TVbJhRcEQ7OyfM6xup2+KNf4V70v4tdufjcAYO++m9F7RjBJ7yN15eO1M+iRxc7/PpC8Vq0GRXwaGN6nujOenyBL8qA2Ug22ql1RgBlTS9RmlEwli5CSYtEt6EHBaRfJ/jwXLSSTFPISCwOAVlSNFsNo1814C8ffQ3Rjs5VVPHqMPCJ+AVteKW76c03iduxh7GyfAwCssyyjGhRgynK/g0GClb+QsTLzVrF2/nx4I97aEvfizMpxfVxjEPl5HKBF8gAtggYWnRtzI3KcyOeQN7U3fgig4iwRtV2ayFEl/1Q+5oG9H5HA6vNuGyC3bdKx7wwmwdZJm7RJ+6k0M0Xy3/b1MiXPzbewf882AEBY9hGzlmLEPLvNgJUuUZM/WcUgVdYu8dPvbexwimxfWZOV/G2nTmFNg5TINU13Xy0WQ3N+N3ZulXmz2dqDdo8CSoyhmGIBg4jSAFzRC+Y0MpZ7e6aDsCwzpIpzp+spMhJaj9aGMDQ/UsYOMnScFaOEvMgspjfLeap1H96arJyv4Q0dHVxEgSnMI5h2UbmM1tqRYAiwdiRjADU1gKGX6aHueDx/TAKmnQCs6uPaEPvYzzdcL9YF/v2H8eCX/0cAwOrD8lVwV0cODMA+HCG4nby5s0SRNutoKa0bl1+71M9jBV6IqnKMahzg4gKaa/JcG83NaFHLdjhQqoeOQy9fR87d1uYQVd5nZWBh6rLarg/EQiuW6wg8iZsMECFTS+Rv+Qze0IerlvPzVK6Sj4sV4QIr8m8WObIt+T8tGocfWYIxufiYbAOAlmqaJc5icWnkYGwMIEaBBOJTjAnZKhDQfHkzybK8eoi9W+U8/dEQ9zHud+1ZqdXqDmKsMkbz/LQE3muNWXQpp3JduoD5DzFex/jhiknxEONge7w6rBIzufbwGMuZPIwDyHV8U+SWiMY1GsglKkoA+q6KU2McR5ADRSRkfM9HXuG4nSXAOs7DBlymPAygDZNyQJbK0kG1SsUR5QZB6Mo7dRCmHlyQKEtewPxm6STvKnFHMhuhUZfbeM9AgWlAY0Y6bffVTUzVGBjlOacaPgoaRC33kUI7lozxg1UUOKFZZhlsVkOaSkcbE6LMiGdZuXmtQZvw/qwDZAwgBzymFxRcsNRyYPXWOyDfNGaCOt5TlpfkfgZya6aEjD3RHQEHrBzrOCtPi/CRMQLs4FVpXrR10EvcgD9Csu0QBuvat+g6guavqir9UhvmGzzWncRF2IKbxIq3A41Q7u2ulvTb3n23YCqQSXilc5H3GyGgBGStDHwz4ss2YgX1egfdjpyzUinBssBOXYty4GN+jlXhRVUWqCNg5gppCkXyVDbz3pZO57TqnkGBbo5qpSaPFcYioTxO1oH3Bp6nmwDkHlE/RDR5cjdFcUU5wA9wsLCyuGqi0aNuVeiKKJ22D8YnsdTpzRtO0AeCFlCMxo4vBZgpwXBTlWn898zsxQoEHES4f032uWaZALznHsE1JMB+enobqqTj1KDugThCd016sb26gE16MpXkxDx6Lj/EgDby1/pvkEM+Zse+09/FnaGmp8vlHISA64HfwZcAiAuUZ3hGyMv6FA43HgVOASQT12bSJm3SXn4zax8Si+KdTIlNV+qouOklwohzU7cns/Z6J0KXy3Z7+SL+hGxqBzgTb9myB/Ozl5mWAaAg4thG8ALys1ZU2DtGyWEDtrjAmIbcGvVZTNGcrZPf1GZwBXbwgIzrYcrZshiEKNPKGfUidIe0XsKcFLnHcvhRX1awxaU2Liwwj9/pOkW4Q4HM88YUoMvYYQ94mhZVwHNmGMLjfSqXxe1BiIA0AZ4HWK5iB7lAtoMCYkHYYy3pwCOuYucHpQ+P2dOoqbzCN2jSvwl5ujJNncUzxdWuXPGR2o3Ew1kaOgU6gxCHSOFwmLIWKWIYBkn9MMQlrnga5AyNQapuBF3GyHYAXpuBj0Ek48ISvRvZDjKmpvGzQ8RceT1dFL8Xw3daOHKexDqJYsAAqerrOKGhsdUwiJ3L6twU1OEit1p7igoy5MhZJa82PLfxC2g+IRu3PtBClc/u6boEpA/YzoZgrfQnQKMSxpRguGgHvPiwHOJdRDejpfw+gcM7Pb9wDo1niG7mcY5v34+75wRjtVir4cyCuEn4NE/9sUXn2qjG/Q7kyrwGOYpVSdOayOH0gi55jH+rVs0J/Fs8yb+ktZFbNhXgJdK/KfKywBTAVTDKLZGRzAgBYMnSHWR1N1DOviCn+cHxx/E1vngH0hA30JQf0rY8/ePjuEDsyZatEk+emd6NxRWamzFQopxllamUWjiLIcl3NwWr8DxmDwKV1AQKVSXIZeXoIHJxG69c17EN8EXNLBCU1RxOsLZGY22kAz/FgG5de/WcfC5EWLe5UVcjJL1HnMdDtuN0TbIsxR1KeB3yej2bj3Nl/Ml8h2vYFJRy+D9/PmpDXE2Z0cE3YgfmeuZPZXapAfBIMxgczt1M5xGUcunKUaSdUEBAgJXHUeohgvFzSr/Dw647lh5I/04iYBP/Vtb7eBRjGMmkEBAfNMoAdHUBSFydS0YcUYg6PGhpwwI8tfs55vwxYfrE8tpfW3AC6GmKPIairklmxmqGCg5U5mQ2PQN92Q05ajIP0NIJk1Vyl0azZQDmKBk62HMjXleh+LzihIwAAwFgQDWCh7JV3K6xlmKQP1ce20MJBZJsgS5l4AE14ph+Y7rlqqCXCBQ8127ja2syVdzQWcV85fJYhON2dnGPv0Qe4ZhHzsmsE4rwzmve5jtwmRlu+ad48ooICJA7MRsnER3cbeQOU5P3O2mTNmmT9jKb2UtL4CFS+L9lJKs5AKzbZTx94RwA4ClKHhy/8ATC+2QGfdqrY+YeNe+l2RRYjWTmWmJFbrNxAlu3C8S4WKljhcjHGQYxva7FaET3wbuInpILp8rOVUKXGaAVBgTXeh1A0awmQcRVKGalbGoXELKKuVGvwJJW6+nnyEVxsS+BOwADm3OttF4pRuNUzUeHEHq8KJ+H7GoeRC0mKBKROFOXa29WmqjV5JyG1lZvPUKbsPv1foRLPECRAdIwTXFJC86QOjdJBaRtFiP7hqwLuYxoCi9VdypnY9NMSzUMEUe0MLVALvNhqA1YKdfxvobcZ0z9g2te2UKL0g5+Cc5ULxF3M7QRRgO6O3TVMifXCtjR0AUaNcNxvBzCp2WE76fIfkaZ3PJgZ8LS1CxV68Q4djhj80pfL8jvV7laxFpWMAitkCx2yNfUuT1pDhrxOi7ro0Tboe+jSjLj/cUKGDt3FovxgE1lyRCWCe9/SzCNkC5vUAbA6/fKSk1Zcbw9uUJhhCzh/ZT8XItnXX7f21+ApjzPb96Nt9EsuP+3BNNx8GO5Kt5X+fk65LbBInLxcA2lijVyhH+/FyBr4P/uvsuxJ2qFFJEX/238ZW3sOy0LFFrGiUUyaZM2aS+7mRE1TTX2sNIZoE3eiKjXx8KixAe+3JbVZ7NNMPULTBmXQqeJ2uXqXvBiBCzvnmI+fm5zCw/2zsl5njiBd3ekCO1ZLmjb6j7qVfHqZiqAVQ0MrkbDNEaXqeQVxjrW+wkuMW3VXg9RohBzhRrBtTCAwlmLxRLqnLZn1sViWLrYwYBxjM1M3V09X0eLgbEgCHGW3J4rDOp6EdzK55kC1C/PrCI1Q8y/kiX9FMoeWaB0XhCfa2Ufhqu5BvSaax18c1V+799pUCTeAQ9rF8TIVKRKHWTksQ0PgJfKajkakYw4BTRO4NPPD4rTqHKlHRUjkGIXKYPcw6wPq6ZoZJGSNiujrTlCiJQFcg1ee7k0zeUY8PCCE/BSfM67Gi387b3yXNvPfBcgQ5oW78W3dgDrgkryb5LTAIi1wUBlprGrOJfsGC+iSZUyog7jAvcabU1cLCUFYLw8FQwA5WMGz962DQBwiwmxiSfQ9OslO3QFVxo7KgQlgFb8wHaA9JwcS2ONfgK1Bg2tEPhwcWALAAktO7KijewSirzfN8/vxuoot/i0/QU/+wygXoNFh/lojP2eF/edhmOHxgl8gIFVbWeQc7oydXEZY1oRGzX6AGxgjm0AeBGmzSrV656TAOmPn/kRCh4raS3w1HNi5Ozv86lVr0XsFNn66DuzPOfkaIRCmntiSgbO1QDubkjAJ234+MHfSXHQ/b8lL+rwf3gTPv4GqSjetrnuouFKAjM11UKWyc2sd2Rii7MIWSobpvEAmzhoCjMMLhqLmBiDpGOdwn2ZEPebb7zFZVaqVJvzgggBX5xCuYKtLZr1I5l8sjTBGiNTxo9gec4VykGaTgszq3T1SnyBvWnMz0rQefPmCJxbUaT9fGmpguKPqCHTBRrcwHsrCbbjFDZVYFJOhjMuoekRF6HVyMgiWL70ERSAZ2Do6s2VQxRLWtqgL12EAYN+WTlEtyf9FZNuMrVJXh7HzEOaBeitnZO/R4nDl2hxb+hZTDkemMpYwoUhvCh0nByFAkF7hQKyVIvpxvEf2sL83oO8H1Qw3jcJPCXJZqLAC0LAUSDmAd7Mk3PW3roNa3wefduBpyoKqs4ION4d1aD5ZraAbCA3+rbZrQi5j+KyTEEqjeWiSAeZACnvPUsSIG3z2vuu39JIjnn/4ml01/XVlnYEe3EPnY7txJOcABwfySNw2uEONn8WO6AuyW/jSfe7fireZLyNk0FXMBoLuI4Hf/VhngQwP3FtJm3SJu3lN/PL+wSK/ekjXwQAnH7hNA68WngWVEwcAG7eI9sFQQl//JwEUfesF5z7ooVUe3ftwRbiSHRFaI8C/MWiFDjdNXML6rNiBa1xjZtqW/yfH/gXcs63t/Bzb/x1AMCOnXKc7qnH0SK1gK567cUEMYmLC0EdVVoHCdOngzhFEnE1TlOXmqwyJTfVADxaXpqG7PYjrJHprVrswpC7ZO8emYkb03WcfE7m8rWLFlWmRqemxbWYa85hij5UkSnsQlBDEIirWDB11CtqBcnnureAE1Tlm0IEwnVQ8sWsbc3VcLw8rocmFnIxpDvlRdjBxSGlzyDxZqZgaX6jYVEgK1tkAZDSseGMnF3I6D6sLC+4gLtHC26m2IfnibtWUfxMCBRpnWTDxBVBWloHNl1AlfcbfC/E8BZaF0p7WEqx/xpxc2+/VcZcZCL8+SkZX155N66+KP097EnBYn/763AvVRu9rIsRg6gP98Rqu6M65zhj4rTOfk9chHa/TbBERryVv5Zjtw5sRVpV5EQIO1B8x1hQVlO4tLDustPIAkIJzFB0sgEot0WGFDAabKW1bg0uuUBz5PZ5iBZcb/MOvGPXNgDADUGIZ61Y7Bd4ZQdx8goVXiCnVzyNPBibq+adwe/QWRnnI1FLpIkrHZcRcttDXKTLBSuayBlY1jAJtk7apE3aT6WZP/yVfwcAaO+hP5kanPwT4Vo9+PEm7n6j5OduvlHoU6xN0XxUVrnf+963cQODUGqF7N95E1pXyUqwSp/bLq3CW5R92otHcCKQGMrODzDYlJxC88NSerS+dh52XYh8praI9MPCjxbw3KIA4lT0br7RRL/HGMXFPjJGiC5Ri7YU+C5QGKcAdadQpGVTK8OlBHtMua20F9Beot/qA1Wuxs3NshLPNUKM5uXvF9IUVcYktmyRY27b0kKRq3WmK1RGcSkAxkugloIJxBS4ZfsOfP1D/xoA8PXvfQXnfyJoxtdeL/19zxvfAw19/NeahqZPn5CgbZqtwuM6EyjoyyRIGWRMgjHcnCsekdJ2aYmT0NCfPVRQrmqqVT4KQQWbGOSMTYIaEYYBa1w8fxXzffLMfmg3nv9LcvT25QC7Z3bj1l+QGq2trW0AgG6U4J1UapxpzCLYKd9/ljCE6y+exv2efGcMMOD5E47DUZTgzUQ0P8xYW5ZaZPz7URtjB7RWiLEY24EdyXV+E8uOHuKONC8OVHyD64+iIzJFfxC5GI3R4LYDJEh/AsCltIOU5ONAhMzmAiEAkAU+vtSVpIGXJXgNNj7455EHQjXN+yRyuNmNyNPCmpx9E0YYj7RonEsjRePWiB67iSvL9MC7k7aI3GYhIdXC9QzkcTRmAJ59NYWnP/0IdrLCce8eYVArFmuo1aXT7m5O49yCvLhfYmYjOPUjtMllUaUkYeBN414ydfVtqGkFd+G9BzpofVjcnfn5rbCkwru4KHDeP37ucfQiOc/b58QUXrBtNGjKN+ohAoaE+lo5FoYoMIDWrPuYIxvaPJnWCt4Wh0b0ynK/S0sdpFASCN/B2bt9OfaMV8dOcqVsnd0Gz5f7a14lg6NWLSBwsGmatSnyirI0pwF0rQjs3iLC5TM/9w70STOpaoXlIvKnbzXzUHAD25j8d2WPAwAvYDV0SV+GGB6Dg358BrHiKhQJjIIrZisEQMzhV+GJwkZeoLe+LseJ+0socLK9hAWUyzKRXL1FXrJq4wAyT4L4O69qAa8hv8eIpRFZH0VKm5YpPJ8ag1pD3OCpyjbUanJ9/4wTdLfVxE2c8IIgxNJAXMCFs7JoHQks3kKFu9tjqvOhhiPKlleeRsqxpDgRL60gGcrvBzLr+vPrAdHYJQuM2OGJvHoJLHxf+3YM78IMW2BC3F5UdHFe5HiYRacZIhKM5wFa2AR7LxKlHEfojdPUAziL3CU5yczJdiyOgd3z1/vj/HwE+aQwno3RAOo4BF4np+eRu0FS/asXou5MERsL9yZ8JJM2aZP2U2jGUTtwBbX93Hxrjzr49Akp/3ndayU92/QMuuQb/Xp3GXVytqp18Hh/CRdokbyfbE+t2RZuu4nMkl6I/XQferR2Rj+TuJU8qLUAcjvEXHm6S8u4huLK333mzwEAM80WFnaKdfK2wEeVJu4MsSPNso/WnKx8c1dvRoOI00CDjyYCWCpvEqUTiJzWzY6r664fnqc2a3e9g2u2E/8xH6BJIupyfTwty+ZIi+HwLDm3xmWNk3vQmEaL0sKmOLatIjX5Xy07111J34IuWdFqpo5iUU1sHqIYYoYkw9Gg5HRcVF3P9pdgHJWDj1hVCumK1YI6ZrjSh7y2F37SR6QFhVmI1Q7lPbSG5PwpLDL4aFMf0xRYL5LyIc2m0SAOpcB4nhkto0Lt3UIZyGh8a/Gh59UQBOQ7qQAt1sVgJJ24y6s5l0IF7oOggDvYed/0uigXiKJWOgQYqBTHsTQAaW7gQTVzmq4uRh+WPw4Kgc3pBWjhjewyvkbr2C/pU+g4rR34Fvp0XkOOnMXlH2Hxy+QF+ke7USte6dMedX+J7dHH4gaJCdWrGcegVsc+1ToZD7xqXc6Zse/Ga2wql4Vj+xghH43C2Wos+Q/UzPI847apFTfjl2+SCeT6XVKyaaMlaAcEpo5tDCM/zczCm7dci+3bafLPErJdK7mcfJYF2Ew3x0/k93Kt5vQ7U5tgjTqR3z8l/uKO9in0vslbpyzl4tICim3xCJ+an8VZujy3My7z5LkTuJ6xmjsqd6JcYsYgJbjMhBjSr154USaUbqeDgAM7RgHrlNdMWfjWrDQxVSG2pVhHoA96NFYZqgFuc9nn39e4TbUcvvT2JhzfDMN0KYeJpxX0Wdk8ogB1tZ66jRWeHZg5BBWFm+dUhlo53M06Ob7L5kWF7lkjQpF6Lxl5XkrluotNeSZFb410nXR3VwYLjl8lMC2XqSpO8fxpgJJiNthv2SiA52pPfax1FRPC34MUXU5evQ5gjBZhygJhygUH1ddIgBf3kfHViWw+eYKTQ5ptxQEXH+rjUfcuyP4xcii+b9R3DpBwSGbIF1+f/en5swiVS0UrPvwEPiexJPNR4A8JheTaXxhieAtBaF9IsGLyOIy0vY5q8QSBZRXkQ+6XkVfwaltG7g6dwEYMHyDTwPLYtoC4QDna5kpBz77bk+2P/nLi2kzapE3ay29Glx7PZRkKGJGvobevg/UO8/ddMXyazRb2v1oshvevncajP6TpWZYlw6sDpwgtP3VWLIo91+/Gq/ZI0V5zpoXMKdxR/2TQcVNlY3qPm2GnFshm5ocI7pKVrUT8RGY7WGMh3tnF0yi2ZT59mu7G0/V9MOsknP7Od7Cb1IOvIh5mptxBwqj4wppIUJxfW8KIVspzS88gZUFba55uUaUJXV7WRwkyxZyQRiAIxhi/9PPyFPzf1/5b1otaLlN1h3VI0z5MpohWuZ5ep4+Aq2kxULoA6/hGgnAaoSJ4iVVAGjrDyqZwzGMpo/D9foLqmtJtSr8HALwpWhRBbt3MBLJmbUWI8+fFWmr3Y1gGP8upGNOjwSpsTMxGQ55PNvKxxoh5alMUy9Lf1o3PxBUS9mwbVVJs1rQ+zwux1ie2hdIhnp8jW0PbQYlSHqv2PG8YuaJ9FuI23vOj7KPbYPEoCzvjbDx9Q4sh85HRBVRryEPHZe48P3eBwD4Q14j8L8ysGQP0iWy1+1fhaUD8+/LRxMkxCsR5frcI1htuaOPuzPAlfh/HqF7JN5JbMeOEAbmDMz6o3wvcOqERmLRJm7SfQjNZqvys8kUhMIgYuPILBUzXZW6qUazKGGA763NuXrsTS5RfKLRlvvrsc8/ig3OaMpYA6959u7G1pSjZPFA4w4V0qRNhkYVt3f6SQ0b26XPLdKc0/zmHZ7kkM/3gAYMRg1gLb5L0WrX91zj6opzg4vZb8DZaH//ric8DAK45+0PEXFlHEfEkDyw5Up40hSsD91zfpE7X9uDu1+FtB2UtuHY7xajKISz7c42oW2sjbGlJ/KhRHlOTe1mtgIDpUg8RUrKQRaRQCNLEyVlovMEgcTIhBrGrY2Iml4RKORZCC+/SgexzcuE0nl2S9XDvTnn+1cosPEh/FxvAjpacK2W08oWFZZRDprPHSBAGjAlEcQcFnjNiv0XJAmpM27fmtrmVrtOVsdC1QEBE6Xy5iYDYlv4Ka1gyC+PiOkzBJxFsqiRXvouXZFqTgw7A/nqUe0qTa3rU5NaW73j7EiQsLsy8xNGc3abFg/BxlJsWGMw3vu+UBVNYZIn0SZKqVwDMn2A91Hu3octYTs7SejuarppTwqk3IrcYVpEbtePB1vGmyNiXskK0zSMnTroGuSWS71OFY1gbfgJoAEY7qMDPcliAhl2K359F9TdkcFzKtHCsjirNzZnQR4PUhwttOc1gYJ1JFzDYVPSADZKMl7W5eoiZiohRr/SX0GY8q1hV5XYgJb+GegyNMEaxIhNV/65vY/SADM4iC9uyzGD9Prmm+IPn0LpaXuaP7xLNns7Ve/DZ5yU0VT8pXCsWEmQFhHlcMQEqnh34OVPWg9EC5n4s+506K9/tf9XrsOVqmTCvIVFyuagxcWlaVeu8GIP/fwHZy5tqYpsQQVdZ0eWjF6cwxFc0+FJ4QQsBOTMGaR8jFjH2+izKyzrwWHnsBYl7XEVyg8wN62jU5FhzTflxNFxAb50mvQ1h5pRIXLbL0shlMaqlMopFwegoa1vRC+HRzQ3pGgwKudsGACEzOJb4Hi+ymKrKmCsUgR6jzlbdLoRjqLG86tYovaKXOJi7Muh7wwKO6S5YReZtHKu32fyYj2oRoQlwm1Z/I3ADM+PkddRG8BTQxgXvkGehKaEjWcn1sU8S8aBQR58v4pm/OIfR/o1Fe8Ciy7AMGQTdgfydmMWVcPcecjdnx0v8Pj6hjKNFNkLkL2/vguN/LAFYm7g2kzZpk/ZTaMZU1GbLod0BeSVHr41x/rwEpBaX6MLM+wiKiskIHZT6aa4cbwt9zNXlmHNzinD1MS4H8NIXIp+BZ10qep2l7GvdCJYrl5aoL3WBrPttuU4woAY4pGZ6OEbldjH/725ci/27iJydkRVh3VpsacgK/OwrJQB7avthPPucWCmjb+QzfVBg2vT2ClJD0/PiPjy4IOnnmYYgW59aTTA3K3P5/i2y3e0/+xZXzCb3SXSqumg2AkiHYIpz+Un/AVaKil4H7kQRMqIlIxWpBHEAACAASURBVFpAIZZhi5pDHbrfHb9poa5SOTAZUC1Lat4ql6qXE1qvdcXa6fcTZANymRoL35MxUqIrVwhagHcOegUqeTKlUjR2DiMlkmZg1MY5mXYpmM7x/ywOND4QKubEA9ZoveiYmQoMZqZkhe9R38YC6A3EBTs0KuDkqio8KkVajIQ8tD4KAF2RmM/lUS93bXJbpY5jfJaenyLjBgkLH70khK8WC2Oth/0AnrOWUuGfBXCU/do4FKP3oriPwWMhgmMa8tQ+zNuVbK7SdPio5fKdy35Xl0f3L+FKHMn40NvoAimvyb+GQ6QsV4Eb3zixSCZt0ibt5TeDAsvqfyBflIIQvZvpo/4t8NQ+Kel+7HsyO7a37HKgm3MXc7W6j+8XQNj2q6/GVVz1t2zdJicph/j7YiRALlJks1zVD0y5FUpDZJES2JAk5huJQ11KUI1ps2/JPpU7K5jRGjNTQEAgUIkgMpsto0K/u0S93S21zdjyhg8DAO6/uYP5Z+Tee2RPhwGML6vZ1OY2jgUC1sOLsh0WHsfO7b8BAHhqWYKD3/z9X8bdr/8AAOCu1x7KuUVZWt7rD7HJ0+Cfnxd/mX9AYHa4kfyngLqLPbgyHxQQsEgsy4aIHQsZhbbKBinPHXhAKVTkKzfr+zAMcq6valwkrzGRGCMDvCF/z4bwFBAXJHnS0Oa1NjFjHBpLQSFxDGmXUiDgTqpGl9qO42RF4MNj/Aokf8qCFDGTl85A82IUGNuaQoKKg3MzGJftg0/6Cc8P3VAtubjqeHpXA6Md+CVFvubM9XC7FJCTLmlOOIGO08wYpAyOK7FWd88eVG+Q9+jN7yi4gPjv/zbHF864Ar1x4Jne5vLY34qAHScuGo79rlC38QjeuJWjMLQKgLOqE/yx78hnCuBf6gluBD73Q5jSD+Slf9WHxAx8x23vwHSDUeuPlZyttN6Tm/7+E4+olQnPAJb2cJFKZBdePIP+QI7lMcc/34oQqHgH5vBSTSUTq8XAkQe7ltRd5SoyRuf9FMVDSuhbcZotW4kzqU3VcdST7+6u+2jS9VJ8RHthAReXqCxHyHcxC7HWkezQ3XEE8+qD7DfphNPnH3e/Hw98vLMl2JivKG+EV8eriEmpMJvw4Ag496X/CwDw1HNP4ubrpOhvXmlCNs+hHMoziC2QUUJhhgHN/5aLkw4uYE2ZzVQrtVEAAjlmgZBQkwKg+p4oGUrYTWskPK+Oqr7pQeKCqNlQLnQtXYLl6FIXJ00TxKrYihDgy9pbk/4YDAbIYpYfZBZdzmohCZJFV4NQfHtO+mAYo0CTv2BiJ+uhkP5B1HGFiCYIsNQmHJ+HnIFA5wEgaLjbQSWT/qiYFKemiS+BVp93kKQyLgupddpHWh3uhZGrJE8iDSTbHKARGjhReI5DPylAOeUcjriQw+pTa1xySLWYCn7gFpCHARy6zLHYjhG+gY2thNyd2YdclG8c+zEeMFXXpoK/v+lQOIu9wKeEMNqlfD65DOAO/uctwPtOTFybSZu0SXv5zajswQ4KHd/9xnvRmlODyGJxSabdC0QoPn3hNLpcAXds34Zd28X6KFA9b2g7qJJ5rFmjWWv9XJTIRLAsCFOXIbURLM282BosUUxrjYLKXduB/RZrKtRWLxhkqnqWdVBWdbTNcj0lzwcYwBulQHtNzpWRIPnCQgdRX3EAlDpIhyiwaq9VqbsA24irTXHnLfgqC+NuWDiBC6qwRyun2NyMNnk2T54Sy6S53EGH1tTDj3wLR574Frs2Yr+1cJIYHZtFuJ4CSa8nEvjXfvEjqE5dZsWlqxisaR9FaK9I3xHQiVKSW5KJAoQAeHQVYTo5hQL7rRAkCLhTxSuhuVme5wvkd1lZTjBkyrjEfQLjI6ZJMrAxUq5zaUeswmFm4dbjBLBcgi0jqGnUQfEyDy7NgBFL7afstMM3KRo6tkCigWoTYYVibSOnATyNUV8DsJrmFS1eQFyTPdznFF21cqOOkLa+54WOP0ZxJkgB0LLyee4EYW5RZAUYT11WHqcQI8gUlSvNxvlzidF1Fs2BbJXXNsSPqbt9KEiQZhtrbc6OcbZ+h98Nkad01/DSRXtKD7CMnLtE2zj3yHiy2YlV/NGJ3Lz5iDpU7wYUT/upTwH/HDDKceE6wItIly6tksuNAABG/VwweCoIUCMdY5nmoI1SzBCmnjPypHBKZ8gzNOWyVs1OIx3lMZKUL3NjWjy4IDgC6/xVmpu3xw6qbQA06NIMiIV41aiD7roMqIXVDp557pxcSV8mxG5n6JLfGueBgZMGbTZnXQamTfP62I8O4y0etWx+5t2wRl7w46eE2O66tYv4Jq3ihEr2qN6C3UtiGi59/jSq71CQmwy82179FvzWP36PHP+BP8O/OybG696OXO/Fla4TdQdBbqnNXb9iEKDEGMu6gvb80MHhdWI0gUFE0FUBfZT4bOKR0hICxsj9DoJpDC7KRNheywFWBa3Q5qdImlKcPQxg6NMHxJFMlVtY5+S11pG4AgAMIsYELvbRqJO42gUkYnip3u9GtnxAuFISugeF0EfJUsKVLnZQ9p3rvbAsz/phC+QzKzCvk8qtss/6YAhL/JFCTwDAFKiRlOWxpoQXciBbgmrZPJomjsRaXRcBphFTovB9pLiNc8NRBKJPCuAo3f0DiOAVlAQrvMJd2D6mNnMlbB0bhDQVxDY+0YzTKqqp0MOV2BIBo703/0IPhnfz843Apz8lf35iGTg1O3FtJm3SJu3lNwOujIZVT8VyKyetHUSwLGJzxUhejBniRGqNJsrEj6u5W/ASwFMzRu3WZYeVgLmSuyMdLblV5FIGpCN1c3R58IHbdWuFNRccNcFUac65Nq+i+b203kGPgcvq4jm0p2QOVt2RoNhFgfIMavx7xkeRltX8K300GrK6NMlhsq1y59hVh3iBbsxvFsi1EuzGzhWZz0+e+Lr0QNkgadJq++UWQHP6x38oLs59a3+G4Ri2Zk9fzPrnRnKdR47ej2IgZmSzoeUBAFK19hIMaZTGXP2Lpg7PU+JrBvcCHwXk1oVynGQMxqZpCF8DgaNT6I3kmFYDuAaAJQcGFQhjWCevMbW5iaqOJYX0ALBtPefAySGXC3R5NxdgQq6tVq+34655lESumNTjtZdroaNXhAkxzaF2iUheL00cVaKukq9PhijyOCkMTmYk4P6efG6+qYUurSmEBp5Dtqq7EiNTyQ+e+ymEUIujyt4AgEPkdDEo4WGaMQVFvWYpjmow1ovgcazdwPvt9TvIjBJbA14wZh5BGNIuJxZoYqPKzOU4kTZy2sXxAryXolLUTM9J7IWLrI4AfPIq/qJHmgc+pm7OPqAxQbZO2qRN2k+hmVwtToH/w5xIJwhRYon8jpZYIdUgT5vV6r6bItU6QHluLGWpwaoQGGP1ypmH5dzDUQUp1ciMH8Iwv28UxjomvmUz1QMGgsNUP7snwnpf+Tnp/w5j2Iclfda+C1hgAHdLQ1bgmUoLrFxHpSwWQxCEKFGuotIASkyhqn+M0MeAhVSxTXH1lPTD1VPSRy+sL8AG8vttt/6inLvXwfEnJIaSpdMoTwnx9fS9cs70gYv4cfMBAMCuG+/BoXf8ZwDAc6fEYvnK9z6PP3hGZv+P7pJQ2eZ6C2dJHvTZF5fRpRTDx1hMufd6ICxqbZIiaBO4ojyTx6EcV28WIVINZAtkQyX/4b2nPnEQucVhEDpRvNWFBdiGWHhVjXGg44KkvBjZj0MhqIYuXqaFmjB1eGVax2HTkVhnWgdk8pR1YHykRMt6pCYohDF6VPTTolBULOxAxkKvV5A4IIARx9losIyswecRjSGZee+Zl1tEr3eDt4AjTqSsi4MB5VKUxcjktTxaZOghzAsF3aAC/l9+3uCFGjYBAh/ZYKNFAhTRfglpCW3jwVK1OK5Bjk4tXbaNHDHHpDzivh2zcz62D7klIuMLn/wE8Ek9Qw9Yq8KoRKRCdwfdPgr67P0SDMPqDUpZFutweIFSKUS5ogNgnIjjMhnGNASs3IIZxVB3yqrrMowcexZMIacUVKU01GGgQtoMsB42mLlnKwAg8ApY6REj4eWm+OgQ/y7UMVWVWWNuWh54oxZiitR/japOJBEU5+J7q4IVAMZs9QQRMwKDvnVVwUVKRF4ztQ075uRlX+gKyG0xCLHl5/85AGBpZRmfe0Ye1zXa34mP7kDAa0/9+AEsHvk/4G4AQKMSYm5B3KXP81Mg5NKHW2Cwl0l/zcCkNnIKe5o18U0KpKvsQyAiOG00IENeYgCFd3sGMWVI7YihuAzQRUeZ8j0PGJEruxsBl5gNsc7tAtqUnVzrpk6mVMmQCyafSDYZ6deqBRJOBAEGTtlOiZol0kvXCLkCXl6CUc+BaMWcu2Y4EB/ofttB8csbixyLQei4P4JCBwfd8GXltIEQ7QAOxwQvxkF1fcysU8sbb7ebfAKRP3x3zhQOd4cHuDj2+0vYz0yTLQIblRWB5hhb2T5+jrso45AjBZqNY0j6uJLv7O+QV/rmQderkIt/NuFCs3/0Gfn85AnkTtIs73HSJm3SJu1lNjNiSvHCgmA2jp86ga3NbQCA5nQdcy7lx8KyNERMe9gEhY0uC2SWHTpOD+I84mU3+5ZNBJDDQuN4qc2V5xCswhRldtfiwAwdpA/LKhIn6oKliGl9eEGKIJT52CqPZrrgVoKyKaBZFzelSfM7KPsoeOrCyapWLYfOyhhls+ip9mrG+/DG9H67y7BW4d/y3UzDokmC5S0km64b4MJFSnVUgf/pVgmcnl+U1fspfBVFrmzHgxr2F8U6OlEXa6tlT2Cd6V6jiF/jI+Oq3++dQkq3dJ3p7m6vgxqtrDBQzlQ4zgw7ily5+9Cxoi0gcBjMaQxoDSq58xg+0xmf5cBHprwrWYKUaV1LbhjPjxwy1oxJNmSprGaXPIzx0ZLuAB1YK2tjP6qjWBAO3SwhJijJba1RCmQx8UH6LGoJjGru0rYdjCKndhd4vsvU9t4g46wzWHL9cciUHMpa8wOeyS12tYzSdBogDwy8So5ZcQI4kTu/82KyBCqKLpB+6ZtakVw6W/ZAyTquBnCE6Xxt7ZfAkbwOG9O3lxfgjdtJ4+6QujOnMW61aNj2b5DbN/PA5z4nf2oa+KP7gM9sDNcaFZ4+Ssf1H69apPTpRoGPNb5kKpIcp3A5cy9dhTVy61GbnWZzyK+OuGq1BC1vsDZANyKz+LpOGD56pNxL4wjtjkxUq6tidKVpiOwQ/dYxjLBC160tICUTr2Zg7DfCXOb4AyF+pSX1ApWKDrI6ijVG3Uk4FJT7LvtU9edQ1EmFmaveegjDh1sJQ1ijL0w+iCK+1D2+YKOBRYlDf9vULGJmtLwZ8nwc+nXnwm27eA4PEm7vlVh/0+miSffx6S2SHbrbLCFovgMA8J8f/wMXh3hLWbM/iQN1Kf9FAutqpOLMhx0ocZF86Zk597JYG6O7yswJa5zgxe6NUPnTLgJkQ0VlJTCBQs/lmIMhsEK9o8yEKPD7UUn8odT6CCgO36MX2V07i2xEHFIlcS+hpyCWOABIjATfR0KBbs43CLw6Vlg3s95nfGXkI2Qc7K4MeOx2ujFflH3LN9XhkWj5MPK4khMhtyHGcH3yW5ZXtni2D8+9pvKeHAp8eNCFkAurFzrC6e+aAl7PmNPr6YIdGfmuVNh4vgOhP8XP7WNUiy/l2uwDQDC74xYZ161pIo+DnBn7PZ+IHGAEeVzk1ivLgj8z7tpUJ1mbSZu0SfvpNKMkFDfQzxggQEpzOEaAdWrYjKgB4nkARnmwVHPu1sqMvtTp4MmzkpHOiOm49cZbsI1VakECFBWCrApkyIuyAB9hqtSFs+47HAa3ZVYmCbHObEUlmHNmubMS7izAO0x2rnIJTQp910qy9A26wIiZiTW6DE1TcVNrOVxyvBTqlw0NEJCPJJyKcDVXkjrdpTAAUprq7SUGHtfPYsgS2qoBdlDecwflM84vLuBMW+5jbus+/NJVuwAAKxfF+Lw/2U05BKBgZbuvWmDP8f8EALgOfWAkAdN1Bj6ztIJKlYVgFL9OsgAJmbg8wBVRGgY519ctBrScPOMj5PMueMJLcinrYDCkPEdOEuZoHjMAKUmojVbIWt+tYmmaItYVjaTfXjmENTQlPDKgBSEscUTWWo3Lw1B3JgAQ038ddlMXfNesz1QYoUA6wyKfZVgPECgEHhZByCQAayBG6xcxmiMS2QIxXbPbeLmPooOYEPmCn1dIg/iig1niIPLOWkcCDQpr9sekkfv9EPpI6TKbgTzXg+OZoAxODkPbWRRdwFXtnzZcLgXLyO2El6Ja/AaAo6zkrVDOYogcQq+tDXGjpDXzgzpgbREbsbHViUUyaZM2aS+/GZ3bnizLiv3+AGiTS6O9/oJjwNLwjAlyGn1j4FCEBQYc4yxEsyirTIUCWaNRhKefod8Zp4hSUgEwaHu2k+DYD8XkOIwE756VFGqa5gE+TykDHlCBoghFT665VIDz36sO+zdETDTsbSFQrZG7hAjGzAtcOrLIFLcplvIVFAEuEWfQ7ciKsbjYgWVtSqPexFyL3KNlCimnMVJaRjNVvfZWHmxLE/TUOimwOHCqgAqkny60l3GeBZGNKemDe8s13P8TKaGyXImvjxaQ0gLMsopzXYsUti4YgwLvLUdxWCjoJ0sDKICkQCSmV+ygt66bJu6Ym/TTA8olBiGHikLtO+EqQLhCADhKhxF8WMZ8MszCsmBSK/W81GJKBb1pmYwGiTtmEISucNKqGZSxIBNAbAxGuq0ieFOgWNyIv1hY8/GNvxE2u1NnFjDUYPCrWfPz5RjxbytqOOcjOU7r8q2BQcDAqHVqV/EY30me0nZBY5MHpVMH6c0RzDZFXs1HtPeRNIKePDXRWJQ2b2ocaID0AHJsyD4A37ts+zby9O4R7IVGRPokCtiLkQvQarxFkK1jFscVGlnVsbOWgCpgVCj7dcQTFIIyKiy6Wl+P0OvKS6R0fgWEuKQSklnsXIEsVnO0lEe4CTLIpsquM0cDYMgg1iZ2+ii2eJhmszUFrA2khx/keYpI4HACipVAjIFGxeOcX2GKPCBZECIlRP6hYYp7WXzWJNtRwXRgGBgr8mXKsgRdAtuyDrBCmVAt/gsCHw2KcxfDAjLqr6xRU8dmibt3hZ4jTUBtbRj4KChUm/0VpwYp8QJlf4CtBGMtrp9jH1u87eo3y/F5j88+AwwGIrQdlPcgKOoLLAHWJI0Qa5UjB2mariI3iHPKP48TmjeoIIup2DdYAqi1MkWZzpKpC9s6gE1MbcWZ7/ATXpY6oFhKouUgq2CG51mxCfoMkpZH6mfECCLFbwx4ZT6sw18kyKh3mrLKOBp7AW2WIqI7p9mlWr2EIHNK8gCAL62fw8rnCCS8NXH3rNPsiu3gWvoClUrkOEWO80U+ghYOejolq+tRgE3VHQ9hNEiqlSBeOAbsIOlSGsKy0tcDYAiBf5BjLoojVLXgFcZlPcebBkb3jX2nAPaXcmdOA3hgA0he/r4nr+91NCNHx3fUoyl25IqrGHOISr2JazNpkzZpL78ZLZDS0uwYAwysTPOxXXUQ+AJppypTdaSWq8Sg7VCOyp51YfEsotFGlF+xnHN7wCSiVA7AkGA4zoDrGGBLvBRplfsT8ZdlEeJv0eTz6aIcynVLkPYxYPp6E1O1BrHDC9xRAqqsLitPKdrRd5ZAlmq5uIFjsEoxjo139+IxHV4ICi5lCK7AiICRs/W1D+GQwALFXBi/NcCELjgZBkBG22qeAd6ZjEqEABYZlNvRuhYPkVj7upVlHIX8fdATEmrfhC746NGNNJhGytUQsICn6oBy7ZVygoiUf+t9IBnI2qerM6phjsp0/lKATJ+RZxAwEFkuiNW23jvnOCMCE2KlI+e/RFewaOoYqaXKqs1+CgQ8pynUndKfptUtIoeGTW3iykLVEoj6KWI+oz6PvWVxFRdulb6zUeo0WErOyk7R6xwHAAwHJSEwAdC0sl0YLOE0zzlIlbl6AUa1ckzoYAUny2RaK9SRsL9eQyrMJLvodHGSNIFP8uheVZ5FqdrCQS7t3806yg091nZAI57qWJzBlbB3IE8DP4B55PnbHdhOS2QcQn8lstUgt1Nwpanz0X1MAWu7ZmKRTNqkTdrLb0bTqcfKMj1/pNxEwNhEBAskXNGIzgq8HOVqvboDUw1Zg1AMAkc5oBquQWcBIf3nOIsw4AYp58B0GLtVXZT/CBAr6qpZB+48Jwf9FgOG3wJwJxGniJClcq54zK28lGh6OYTHwKwicUejDhxxMX1yO+i4UnzP1B0DmwKUTAqMNJgWxZhpbub1yXV2sQqVqB8p0bJnkTHFOrAAMqVb4CcSh6LzTNmtwKlD8MVQCt0y1fU6gxRv4TVV97wO+6GcrWRN63cwoyRDajR5MVJCNdOki6BEMCC3q4V1ZHU+FxugsyirmNZDDWIfGeMRynBWrPUR+Ky18HxAEc2Ma8CGSHht1SKAWVnNlWGvv544pLCSS5nMwnIs9ONl5JX040TLLOoMQkyzBiZVkqsAKIVioZ06L/fw3H94HPH1epzQoVO1njAIDKpa/l82DuioMY4gTR237JQWkAYhMr3NNHZ0G9daOacx066QtZcpOtjA8jtjCkiUuiCmIF35WgSM0N6BwBnECkgDzjgGtO/wc5zceRqCSQWAP3bfplDr4gBOOutF7Y3TeClKgQYcynWU94PbaQ1ilWj7l4DRPPxrB0RS2sRNFGE5QIlBtyJxBSVTdx1kMyBy7oV8bKqmqLBi2KpUYRbC0yyBB4e23nSZIh8A9EeJy3xkPOfomx1YmldZmW6IF8PyRfcOA+p+ZHfxQH5Oi3t4GOP9NJ0Lhm5TcS6n0vPIVVIOc84ObxZt6p+oel+tUYPH7JR4HnJOpflb6XXQ6WyENReDkGTLQGYH7qHESsBiAXWDAB9FhcErE7thhB9wUP25zSGmG0pxGWBtIPt0q8SmDEJE6TkAwNUsUpwK4bhQUpRgh3yBtR7RBRPlZfTKilQm1mLQxxq7zjIw3zItVBsauPQRKzEy7ycNgLMvsJgySbBruwy+5iyfFeCCj/qiNurjBMkJRrx3y6LPNA1db8XZAtaJ0D1DOdGlpS7sYQZRlbLz1RHdVrpA6oo6qbtCTjmfAsbkrqzsBHhmrJId2OB2GER5YR4R4Bk6yDI9Tn6/GCsfUbSssqJl6UVYUrQFxnlYY20HztC10dd4GXlp3wkAf8a/dYI5C+DtRKyquwPk7sxLt6vgUjXjeuHq4jSQ+0Gf6QGnJjiSSZu0SfspNKOzpU9e0CjtuEmoXK6jUPE37JChA0vuz9gCI1e0JVOUMSVX71KiFslMvYy5OZlDAwMwlosekZbtsy+gpzUqyTIeIlbDsD4ijQ0ytdFJN5Ud8tH7htZCGIRaF3OfWhnTCN4k+9xu4CyB3kAtiti5LDHrUjJrHMepF3TQc0EmpqbTWl77ASCgmZsw1WptgrUug4dE9RaLIcol8qd6CQac6DPWXHhekGcJkcCo22A0SFpwv+tnEPpoqDpbw0edAb51BjMzE6HNAOzxZTlP3XQwTwLeWs13dUQFRTHbBF23rHRQUcxDWQOwCQaDjW5sz/bRYPGgMcAlnzQFWlhpOzBc6R8cLmEL3eCZBgP0CVD06Z7SIPLSACg5nQYX4M1SWWNXRguOZuL+CJg+K2vr+c9TAuOWCMk+XeH1furuWQEAWJ/j6mcOxa6uxnohcmkJWjEpXLLAGLXq4NQKPRM6xLXnqZZNiEyLB7VfMzgT0GCsDJLvU2Z8wKhFMg2MWerSTuJn+JdaFLPIC/C+gysV+N6OtjMkZgEc5RZNmhR7MQZYdUV7Yxwy401dmx6Az6iTJM/FbC1LlemTpHj7ne27sH+PCG2nqcmFmsZMOSVqHo4i9LucSKw+qC66fRloi0vSEe2LA6z1lUsjcTwfqhDf69rc3LRArKQ6PGbxF1IMH6b/znvMkFdkhgEcVD+9Ux1bH5uc6VrJ6fsYA+kNIgzIYaIxHZvl4KGRBWJC0msVyS6VB7nbUi1XUA4VWCetOdWE4fBY7MiDGqx1sMpBWgyAquIN9EBeIOrkALxi6EB6TsbTg4ubaBFYGFjMkKCpWGliJdZiOdnnuvk90PjPC2tyc+f/P/bePkqO6zzv/G3hVlV3V/dMzwCDMTz8AhGSEihKFCiTNCVT5tKiYJnmWhQtSzxRdh2vLdtam95de50caTdMIp1NcrxOuIm8Ubyx48iivLEkyhItQ5RpipREg5RFUxQJCfwA+DXCDgbA9Ex3dXdVXVT2j/u+99aAcXL2kH/2PYfsRk3X161b974fz/s80xFHz7jrXZyuccGckFgLgXVsuswLnN52OpTqv4vmz+nxKhtamyorjbVp0LUxFe2+QJvGAc6+UwBI70jgpanb/98dV1xFqEc1EqO7sdxkT/9Sfxp1GTQWN83hz6x7bntOHmX1Cwp4c/dZMfI4ExVTo6oglqrbpPJuuG/3dYner/dhQ9Gpbzl2qvGy0ExLMoQR3nVSVxAskaSXoroRuPMrUdzYJAWrdp4kUURUg4G/0T4pL3tX3JU9hKzNbgJ27Ffl89ONbY/QQkeenuUIsO5NB50pzjnvHSIY/ok73OfTsI308XdmRXuzNmuz9ho0s/zTbm56xz4R2d69GDgi/gaVN2VN67VSen0X6hkOJLq/uRr4nUVUOkkyLt7rVpmklWJlilw97VamZ//iXqaFMHVReW6IKwU/8ciXioDSPSiHvq+BIzloKO5z+8f3OctqGg+IbhAodwUbQ3FDcimmK3NfDu/VK23GUFyS0ebAi3JrBXttSsrpy/LjLpFIU7RUxDseeMmFeRW63pmxJZo64yke/t3tuH7fEZeU6gbVgRslkcxHbcYYyQCdlexPYmJ6Qu0XsRiK06TfV35wF4nQ3C1f6FbiizdgVThQXh4t8bWXkKSAsQAAIABJREFUnTWw9pd/BMDOqOKNlzgtnYX+ItOpC15OBNUbJyCAZ3pCLbmzm1FLgVxRVsz7Unvnu46IGY/dGLi/3GQo1uD+DaFYmIJaTon0x6PjNYpnnBRGRurd5KeF1vLm7kWezrCTLNI56B5e/gVnbe18LGPl/W6sXXCeM+MvO/CbjPO/BuDItz7F2rp7HieefwGAcrpGXTtrKrI5pkGnKD3rXZvmylvLwLGGRtGe+7CWQC0pqSdb45nWosa79cOV++HjLaiVM8bmvNIiuZH93A8EiLxle+ZGLRF1V9ZpIlYD1l1jpe1t29UJqvC5nA9+FO7+iPuuLAMffw7Y575/wn3MLJJZm7VZe9XNRN7HlRRoNv+f+fkrm67mqyfcjL91euJLvzdyt0pkZsBwj+ANpjHjTRfcLKTwrJ1BS847LDdB6n/+Us4RkaJ1IkGeIPMEuvl9udOeBZKDgZHLaOA0HTGVlbHjpduqMBHL+fJyQDnxwAWP2jwrjF1Jd4lu35Vht03h0oZAKdyetpr4VK0XxTY5LVltKUfel7eykqetmKhWjMTAZyH1PssoJpJYTeqRuLFDzOLIuDM5VlQI/mdcYSWQrUvfQhLTWXHP4BID61vuOg53fgSAI8eP8eBRF7bb00lYFmbsVKgS5kzMfkltLiwJonMr56xce5pk/toTKS4qiemOpL9HGbGylLVUGmLkEdFTQTtvTgeUueuvLEt9sFZX56/F7jm5/Qs2D7n9rhRcw/t+7lMkx10B6PqqW4u31r/IWPhoX1heYnkqcSypTaoxfkVNWMFKcF2xKY7tTFO5ej05SILAljkqKpcYZaQzlGqSCEYlMRWqPV2XUAi0Im0E/hQmEQS3QtvL/Y3AqBuHQ57wMZKPAPfIdw26KoDBtan/y2gbiZE2Nc03CNbQUgDGNhGudzcO+aNgNgW8syr4h796/AgLsVM/73T67Fx0wbj2vE4wfQxaSYunG2xLUI6FBlu5vJNFOaLMXQd1s9I/i7hWqsKMRI7ZTgKPww9L1PqRKMfEWrUrnR7nRJVAmEmpYomWK7DJNh/EMolX/dPqzT6mpRWbrkVRRSquxVkbs0PO3+1qle8itQ2R+FIijTobm2w3mbwQ5RnXn6kdsCNVej3rC+90wkqjBoShLFy0Hny2JAHHzA/UAhRMOh2mEiFOOyMiLTMVl7SuNynsdpa66dbAT7ydTmCZ3xw5N+Lxpx7giGTJbjv/QgRLyPnyguycW2FTXuB8SyuHY3Z4lviK0p5DNwjUWsRoKg5sSpBe2epJMaoiKE9hGG36IHqn1ScRGsI3ygtYnhixIBP86v+zxs53uZfxiKxea8fP8Ma+m9ivfNvfA+DwV/81J55zboy1la9Org+783z/6hf4/nfcpBJHbSqF/QsYM427tGRCjh6Wvr4+g4fk3q4bkBgHTmwfVub4mNYt7u8LC66vO92+n0wrE4KshQRo964/y7EN99vHehnX+NHi2vFtoI51///fki3fb/z1W43vXVkxRw29mv+8iPg6gfD5I2GzjzT/PgxFae8qoDdzbWZt1mbtNWjm1KcfA+DZn3bBpufOO8qi6HqkZsJzkTOF6gbPghah1QQzc1wozLyiEtTmQLRE7NTy3aPOPlpeXmSuf57sL7oza2ukogPcISbSsn6ZkOODu0NpuVqLVUFPg2E3GaIHGoLPQMlaQBvWa9RjFwAcN5i2Igl8TSWoOykHeHJenKUE0JKVPsaQCzZgc5R6LAZSvNdC4PxAIvylRFkoljNBzzWRUvYkSbYF3nQxTxVKzW6yrmIUVEy88ND14eYmkRBfJ6r5EwV+mKTtrIzxeJUTq25VToyhJa7LNVf8LACj6HLmH3asa997bsCzgiPZ3OfQsst1xYpYayv9i1y/latMxU0wJgnE2ZKq3cwHbAj2pLR5cOs0dRiFROvjAjd/g1lhrXZW0rhe82x8G+ICnfrsKXKhIzDRMh2BLVwq1/G1Q7/O6rLw4R51rs3m+BQPSCfvy3NeEAH2WlyX+NEVijc799FxEmtxo3K6jChyufY3yZ/yEUa+27yhbX2ZBmhjzrvbXdvOD7ktNTm5sqUBSJGlBvOjOuWpUjV1Mo6sbi/sd1TP6tw4P+MDBB7WiwmYkqYXMvKWjHnFtiWmDYJoDcHux9NIN7lIPi43wh74Ufm6AHwaTCVBjqfE9L8tBTV8rIWz8nuf4ahyauVhMG2i2E0AuQyYrcEZT8CzKYHfL2/lvFPwJsPxCq2O89xicVNGDXacVoKvkCwm7oHnh1YDDqBSPggLEimP6HpjOjEKOFtB4yo1XQrrRqpRAh07Busml7LUauM+aYPlVzVTRjIxGnuSUiakpFVqETMjwXxsjsBKBkYlcTAZhfrSFB4MpRNzDSS+OriP+qaF9PekHJAm2wFUURTIg4bTAalMfpmQWWdJyAqo0JUx0BX31Nqc9U1xvebd33/8lh9hX0cWhfVVnvx/3d+f+I4T73qy2+fnLnGSpYPI/W65lbFLWPNrm1OO1G1UisowdFtJn29q6UNbYjpRSiwvYE/wLAkDRlItO8qhJXSD40Mi/j6eYN/mjrPnsTX2LLtr+u68exjvX+xy6WV7AdgYuXF2eiunlOyTqY2XKfI1TlFB9C15Llc5GL77sXxEFtp6JxqDG0Esq9bE+O0kws9CTuQF1ty2aWk9yC1NQjYlartJ/bbWPD8iz3p1WvGgPdcBOYFOEdfIG34M+En56zqB9FmnhO3u0CvbJFx5Y8JZYhs2/iO3b9/p5McDv+PdwB3PzVybWZu1WXv1zaxf4mbqN/5b5+IcWbmUpZa6LhXl1JlSSeKCL61uhkIH4+kZEkH3NUObasVE3vSHPxWT7cfXBizvdJvP/0Fn2u3NVtgQKPexE88TxWpsSfEgbZIb3Eye3ycYBBuIoNsPGB+sjazykYC6KbYaQO3wH9YGeL9G0LUit2SE1RUnAmqxGsQyKV2n+GvzSnxCgFxOu95ym3j9mzOcEmHwwhb0hNdlSYLTick8sxhAKXD7eiRkyFGF1eneZwYgytwKXg5hpAxu6pYtznuoPW13vIV231s0g60uT0pl7NFvO8N439EBCwKhr9sxP3KZw5S84wqXDXEi7e6YqyLzcGwQc0zIwReiiiVxpzri8y3tWWFdXN9oOiCVlbn2kPFFX32ssqwxGYkSaH8uZ8O4qK+14ibcmnJgr/Mp9t12BXevuvOfd9wZ9f9usswvdbVIThjSRgNeJxbxqCxA9Hci1cKhguvdtomtAhWdBxgZn6HzsXpSTBnWci2jsLItSypXNQxEUrVdskYi7vg3223UFojVjU0WOTFyY+nY2imm+blArj18QFybT4rF8FamPqkyIVgioSivR6jvtZxLLtKmqXfTRLaKT3PHjxJyQMKWtvskXonvkTvg9ltmFsmszdqsvfpmes84q+C4zEvHP/JHjXyohXL7rJhg/ewTJxmJKuSJr1sWuZ/R525xs+9c0meHpCOfaJ9iTsre/91p0VZNFrlk4ObQaQ1XTkSQSlb3ampJRBgr1pJ8ilBIdUMaSKjbIuQ1AZ1rXx6M+IffcUXUtSrxEftUsaZ0y6n1qcckydiUoOEPSx3FxHaJSmfZvG7fZSzNaWBWOVN3MxQ24n+/5daGPRtPe9GtA3svZ0k4ORclvtMGTCKRxnqMlbiN58Il9/q6tVg5PZNRyCKzNTjJWu7OdWLdXcf6aD0QE0uLkphM0tBrwwHPiQj5UGMHe3M6IhRm2E1itvvnpS2IpO/PVwQtluNn3Ar60nrOutzn8oLQLrQcOx7ADeMzfKWUldnXZeUhwSlxibw8w/ReCdDWYERlcE6c/707VzhfpCMMObfKYvm5tnPar8zXeOS7j23rwx8ChhI7m4wKxoI9mV7n/l4UhZfIsJhX5DKtBVRx0IaOtUYRHPMEFKwbU/m4YPXNbsv0d931dN6TslPS7tckfRBOmEeUDqMuuVDS/ytLXd7cce/mncJqtpf7UX04TelqoBUc25naGz2/dZ3tIhWXyvcQRX2lajHA78nnfuCfuK8fkpTwxz8Cd0r6967dcNdJzOZlzuwOfAuWWtTZ3IuqFYgyemzhJ5rajoi0qK/Bp+vrko6LaRirECHEWEJmJFQZnpADzD0GF/2s+3suFbJbB1a5+AI3oN79XzvJy5XlXexQrpQEEjmpVgG3erv9i5fnFUr/saEi4PlJOpnrmFR5OixsSv9ubqwyv/MiABLp6tXTE+467l7a1aPfwEiGpt0SDIR9lMFIwGMyUeyY28WBPS7z8ZadF9HWx2b0ZWq7Mljcy+5pBFWfx2a+itXK73JyjGRVWt0gq7pX+D5et3eF05sajFXXsxBgHyzsWuTCPS4qb3HXlhmYk4mknRWcFY6WrQ3nWgzHhQdo1QLZT5KSZaF8vHJfxuppd85nT7o+WC0zasH/zM0t8x55Qc/IrX95lBPJWMPIDB+lcFAWpy/ZELT28J2+d1lKmxGJW/lTc+56P19V/JBVqVX3MSwHAsd3k1gRa4GfVupa5r/tXtqsm3kiaXut+93CY/N0ZVFEqp2n98P65W7xy8uKulIMjWvZd+LAZi8P1d7T5/RBGSsbA4y4nZcm7jx374ZYqDjfmcFXonOrf0NrZl20fG6d4MRsJyvSfy2gTo8uE67Xtwdkl/h00LW588/DHz4uQde77oY79az/BFozHMmszdqsvQbNhCoj3ZKibP0V1vNEqLyas1yEWBjwS0Wly6bxB1MWqajKzqk/klVZp7GHl+E6kUK4Flqy4wnBMFy2WTA55Cyn5/a6GXtpYRdLc273na3dXs1MrSHnurjvWdInVj3Xjt4PtCO33O3sO9MvH42ZTN0KN9/axcouCTAL3qSdjLl9fBEAh8sz5EKnUDYYQyKx3BIt41+4mL273KqdmBEhfRjwBmqZ1XWAxhulKzRgjch6SBdPxwMi5T1MYh9k7QnlY9JZpCWw+qlQOlQGauF52SpjhsOAcwFXePh9kUWIySF6Hghp6DIfeOxLKsHD0+OC8VDh6rBLgvTvvErQ0usDjpwUy6ZKvAyJBprf38kYCWzgfimXSMg9HoYyBNSn4lKMpmvcX7rjvyOJfX9Gtds/jvvkUg6hmshOg8ads9fqMxK9o/g/uGdQXZ+yeb1bmzcemjSWV3c/S5HlHW9xWssHLndjcv0DGX/yBWfeP/rU04gQH7ESVydt2rfI87jWpaj/2Xv/MU8+4pyTEy88xdJet/2xh/8VAOd9/ym6kj5eSy7nQun7JpuZlvx3G66JFvA17Yrt2r/6rxMo58ho23Hcsd4usPkHAT4hiJQF4I6flv1dkHvpjv+Kdf6FbBvCB3fPLJJZm7VZe/XNhBiIaymBSzKxfV9cpvymSZz5GbuMz6BBJq17oY1HQ2ltR1URgGRYiLdzZkbXrYLoxkZAJKCcf3GTm7Ff95v/mN/9l/8LAJ997lkArsX68vkoLn19R+RNnxRV9YraFVFbi6kCh9TmlrNu1k+5VWBjOPHEROdfeLmPtxQCsCqoGEmgsBOlLPXdKve4BHirqOB1AupS135/tcbWyCXo5lmh5/UTJGUb9YlM5vepBaGpNSZRFEOpAWbx3U3srSRjc6yU7avPDxkLkgKdStqzGOfe6GyZiqjnLAXN0Lc6UAurWlkOPDpVU+RR2uDeqgOvqFmQAGo+ooy3j6WlpSUG330GgK987Q/p9N3xXzrfrWzvTKArVsx/M+eu5Gg5CQJ0UUAatyR6PNfKuHobFFjHp7u7A9VJ1kYaf5IYSJKGOFMNfEnkIQSZWlvgYdnl+nDkSGTrTpiCe+78UwAe+5nnARhHMcf+wFl91bWVR1xHDytiOaMlAd4PX+MEzn58BU4LncYf/sJHMfwHAHq3unHa6VxMLdbtZrnKxlZIzAIcZz9vl/Sv1tKso3aCi3c0SZ3B2f5dr663RAi2PuL//vOy5Ql/pl919AGA4127FoC9/K9yHb9KiLt8DF6cBMysugQTi4cDxzxPJcGl1PhoFzysE0BGXZwTbE0Kn3+PxGzO0rjxoFIoNdOjVaCAoFztQzFc4V7sR59xJuqDjx/injXXqe8W6sd2YpCEA1uDl4mMoj8Fn5FALHgBaihU0lHObG3M1tD9ff2Ug44v9XezsOTutxyvIiBWX2m7lcODcoA9JVQCjddMz62dRb4iBXbnizD4k70u17YEtZlOPEt4opNcK2Y6Da6NUsCVgvatG9dsBJjTamUkid5bRi2R5K3BKbm3HCOVuntWVCfnDGWjzKGWyTHXIOSkESXvxtj6IrddaCiH0zNBctMvPrlPZgBk4vJkHXW1VpjrCTp5krP6WVcM2nqXM5ufWFphda/Dq9wg1zMcnqS4T2+4j7HNScPhNzy7ewI6hhTr85dxwt+SicbI/UTWMPVIYSjkALHGCw1UMoHUNveLGtcK18rDMElETVHeh87cCpkGQw+3sRJcbwn3SNaCWoLj//QuVzz4sX+eYQ8pLibIotrPuSe85+/A91ZcH+4f5ZSnTnFuU4D8yNMihireJZraNK4510ab4Vwcyc839lGBcVf+98fy/d3s52NybqGRowf8n+7rZAIXzJCtszZrs/YaNBOdS71vATFRK2JiT6UvKSxS6qvcrFsVNNwUsWIauBNdv2pGYcbyaEGoCzl3nPsCOhMOxd1HHwdg7rfuY054L+75b515vPTcJq3IWSlpq6Sr7F3Co1omeO3UPC884jRRG9Rk5GLSzEsx2lKnjRHukbosOSH6C8+edKvIn+YVr5MCvyEZjyfu/O/rCmNYf4V3S61NeqFLr966vIuuoGlNnVBLwRldpZHrePmGwuZeisObIXUS9GTFzDdR7FnCSls6NCaQCO/pNjkFz7mb+QAwzVVdI3ShVvGcttj4Lix4U7c6n60nWOFiwWQ+2Ksp7LVBzrRW56ki8S6J66ONjZPMjZz58aRYkkuLb+INH3TP+IXVb5Df6845f5PrkO91+rwl0oA1YLW2xW27ZtJmXfwYVYGMkj61PLfIWtKDgm/6gljbCURybUW5QlkHKITro4L0oKrqyS3YgS8KzaKc6FzgTm1B1CHLWGq+bph4XZuK3CcjzI275B4Kr3d0pNtnybzMuW3dWyKuNdO8I4K9oQ6Ms2B0nyUUU/IBcWSmwOfPsW66PMGItwOwn99pWCLaPgb8R/f17wF23ytjJJDCxHVAbAKjNrF2VEGUCRdGmfnYiRYj1ZElUhEo+VsdpdTXap59BDIQolipwzP8tBPFAaeizN9xzHjoXIU3ykQVRX12zgnehZRaRJOKSl6iCH+cNOsyL6zsHaEoHJdr1KVe04rc26biktgqK55cDWTPAL/w+qspB+4883MJ56+4h5LIwx+PB2wMnZsxFXyEaTDm7YhWiZQNP9QGeiV7ymxbtgYAO2CHDFgvnlVDzyhln8X6QrHGQf+TTWMHfQKA6v9PU9YmIbbeLFlYkFhLa/EVv3ZUlQrWi4NyqaCqythQ3uCOuZULmO5z97F8q8PDlG94L/Xr3G8vHTp3aHlhF0ZnVkpKmUC+Urr+vrA86s8/9fo1qyGzZgrq+wTwpvB9VvxYTTlJKmJqtapzmUW/z9mb1cXfFaolyHzP1zc13PZIF2GhWjw0oCXEW3P1Lr+opZlO9ilXSnxnWJe8ZF/p2izJy74ubsjFnPDERj1CjOTFbXvp1hPsbURCQMmk3THfLtseZMmLjN/LbY1zf1rOvQZ3ysaLgeEMRzJrszZrr0EzWoyk5dyVLQh11ha/NCq5LYUPlnqMCSFqTmyoPdZOS/7zkMnBouGfyEuJGU9RZwIMhZ/o/i0APv+Ll/PGgTOBTwuR8nMvDVjY69aBTtIFsQCsHHMHAyZi99lyk4kGcxNnZZh26qUhnz3ugq2juuIrUly4f5pzREiOf/Mtbq5e2rXMCb21ifUSmHWDKi+JnXVTT2SbyYL0gIFEzG2ViKyoUN8lMWAF6zEVV+5sPfJyGd7HsWOGI+FViRLvSmxuOmvp+AvfoVIuF+Fxmetm7OzJc239jX7Mf6G5/TtCHVnYEUlr+W/89TQPwdjy0IjJVKxGWanjekB1n96cuAk3pZS5cwX2Hb+PVt+Z/Y8Is/Ut3eWGe5H7APGNEsT+3HyXi1S61MvAQqSoXJt5gFN5rYzPR096g9tJu4pLo1abzb1EhS21xmLiXfey3qSSdyI+JKjZsiDWYkyxwBMCYbmN1lBVvh1iwU8HBVtSvDqcQPIK8udjDemIc8Oq2wQiGm0P6vC8nXWPPvmkIlc5wk/JN1Xi+3nW+V3/9w2WhHB6/UPizlxKMHIuAP54ZpHM2qzN2mvQjFoVYdVbBG+dZJ54NW4gRyuPCYFYy6uVZMi0vVhtUYXUcNwUCdKZ3peTdz33awSsXugEun7jvU6Q58AzL/GnX/gaAE98xlkPJANe/4+cuFerA1uSpkxKncWzwC4UNQiPJJC2nsf8b3/t/O6lT7ms+8pPX8g7LnQr7L7dK9y+RyU0XNxi/dSYjQ05Dxl29bicX6yMzJCqX61GSgyRnPOs7Xokp16a8f+TJquUkh2VrQpbijSFPKOzVJRofQ7YyK3Wp7ZccK6sR9SenMqde3m5QowYFhdW6XWk1kaQvJMyJ+1IvMO8Mn5iLZwWPMw0F0U/WzEYuphEK1qilQmhtdzD+slVTp8S+Q9SHzNIxYQyURcftxGLocUuJtYdf/i5CT0HKOWCsev3I+vHOCaqje/bvUIksTFNtf5QlfCyBi+kv3oJWDFjinwQQj0+G1Dh08gNNibbwOX4MSuWpLV44fD6bYb6sMYK3e+WfmqR8n4ZizcqR22frfvd/W4Wm3TkQnYKtytRxlkhpDamQZHq28Wcm76FoAM8afw14F5P8AH51gJ+10dCHI7k5sY+In/Fr7GEdsJe7uf4nWKJfFyEsv78jhDl/TZORNybJH4wK82cNrmdSj+Cu+MmEZl0ZKKILR4TEktGp6Lrt0WN9IAyrUeMwCuMGfauuRf0T/7IAWCOHf0aW2Lu9uSC594TmOWTKKWvL7AQMWftRVpSlDfNBzwtguD/9+rzAJx/5gyRaPLc/o/eBbhit47GOpNFEDa18Tj4cKrJY4FUtFZMLDDzxHeND8BCTOlHbMxZGfBWChJNJ/a/tWTUVuHd2huJ17qJBLwVRf3ACJfgaRcRWswkS+m1JIBs9KWfBF6VHEiErrCl0HEYbwnfydwrJxJjYLnvJtk1KYcYlyMqX1X3PKWY9yqPOS1LD6IzNT6dM9EAfh1AcsbqOS29tigKVDAUwmjNRE3STfasOjzK11dTdu1yk/15MrlUdpXRpmRt1LOoM6/JY0zKlnGBe1UlTVoxAdWReyyPVppHNERqfAmDwcgiaw9b1LXWUhLYxcLNi3JHzuk4W51i163SR5sx+RfcebY+J0HfWzPSVDI48SbJK5QzjxGmiJC9UXrF3ef+HPifCO98mETgp+Q4G8D/LNvu8H8dco24To989D+GSt9vCxF0CxDibH4Z2H1y5trM2qzN2qtvJvZpXfdZVRBrmXWaenu60qK8OCMU6hU+takORUSQPQiuy4CqUCsGIu8aSQAspQE57RJrMFYDqNYiYFvWZUKOPnmG1b3urPOdglosIhVxLmt4YeBM8See+bYvPrv9MreCvf5tV7MkkG2VUdgcrPqVL+t0fB2isq91ksTDnlNTspi5lSbVcnG6fjXzzWReX8dOB8FcldXbJP0GpUCJB3SoFWLweIVEtHl7rWAFRcSUWoJfKqpyF8ParbprLwk3a5RTLoiVUm8SyTNe8AZi6q2x0+OcLSFI7u90+6R1QaJcrT33XMZxwVl58uMcz5tSqsURgdE+jgqv3xspJ5fZ5aVN2mId7OxBq+8uaiN+Ae4XV+JGVWKEkaSKiy9tsi7XtPZuZ6Us/8DV7NvriEYGZ9xavbm5SU+Eywug8Cx6wmZmQoA1SlOiG6VTvE5zTE+JwCVgfboE6xHaOQgVwEQCp+bQhN57nNW3KH0Q1YYtGb8nPj/w1Ba9ruCD4i5FoZAHeKWY98WoyEzXp4E5B1nimiruvQj8tkesrtMVZIlC6H8L+IfyXRGwNzPl3rvFnfnIHfCiuDR6oqcIZsyvA+/fjVH6Pv9ux4uNSeMMSJzDzw1RiJcQ5yD+udZf1HXqYPIAVqnkKjeDAEQD6lQnL7dv1KiAFWpcAO6XB75cVH5yKq93v1svRxz+l47W5fCNMWufdy+Of1Ejy4W3OGPv7Qcu58CbLgJgruW2xUnsb8qKOTrf3+0H+/qpMa1+R67PtbaJWehLhiXtk81JXYV3Y4Jol7Lel9OSswKG2kHsKRB3SEGTLVe9uFdkKieiFDoCyL3Yeq3niTOfWSsnpZeYND33uTC3wp7MxZnmO27gbZx6gUqe0XDaphAI/2DDfba6fVqpO+YTqzk/+x+cOds7oliaipYuF+KiTMsJ3UxLFjI089ISrZonE8OBzMViinrTYzkSxHwvrcfTdG+UjNDcpQxEY2lcQGTd9ZkvabYjZSKT4LQ0jAXgV3zajZnRbd9BPEAu+gHXB8dWlpg/4WICZZ5T11q1HcomVJuorjLqQ0qbKC5SYpj7gBs3jwv8f+H4Khuvl3gdGWlHJyJZAB7bxWahtJnufuaSzC94dWSw17nJcXpY+q0aYFLNdBqIX+HbsCQuyXoDRCZ876zDNhA7wN9nCcWJ7GXdk0H/ghzndwhVwxpL+W1+GW6Xit/JH7vMDIBSk9w+hDvkDL8F3DPL2szarM3aa9CM5sp1savL3Psp1SSDtqDvdI86d9W8AHFKrHBitQUmNhhkkZvZY1I0Ol8VBaSaCRLXhgzV+bQIlgX4EVnBjqVtIuvMYSPqZub6lJfe51a2X7jsYuzVgquQFW5nd57lJWdSdpM06LyIiWramVeu00vPy5KW/K40YAVl2FGodQ1JFqD89VRwJDKlJ0kDxipWRNQSxcoyAAAgAElEQVQC2wi2JsI8FqFB1dhbRIYML9VolfovI9IKXFnp6yrFisVTlDlWrBOP0rYDn5EI5MoFo9xtXNtYxZbOD5mXjFR3fsDOruuvjC63LbrvX67dalo/0IZ3ymoqVIitm2FZzPbHu7tB4PLZvLNEb43gK6LeN5/Oe2vPu7SR9RUTbbFs6ihnKCjmCEMh42tFGMpW976dC152bsyzn15lep2mYNxn9oWMsRREfrN0MrIrPzPP0nnXuD42z7MurlUp1szGgRwjg+DSH+gzt+Qs5dV1KdQ7NGA0dtfxwzK+jvUgnQ8V65pMKHKxRK+OPZG4FTmSLRtoSm+58xeZ+8GLAHjmrU5osxiPSAUPM5yOKOtzyle24UgckGPICU/+/BGCRf5jjb3eLoHTbwE/L5aIGhdD4N3y/dcQoha+CnzBfW0P4ahYHz/2nPu8c59nX+RbwFUzi2TWZm3WXoNmrOJDNItXFWjsIjaEeE+Djj+WeEczqhEpHsDkxBI38axlVeF/5zAl7muivv3h1MdgTHfk+TsflFVmBbwqWnSdBOce6pO82f19qdtmbv4iALKOu6qd3UvoSh2ItdYfP5Fal4jK19roClnRoZSVugOMxYHfkrQonawhDtb3BW+RrPrWJj6w6lX46oqpCoJPx9SyOuhqY6IyCIcbmE7VStNga0Kr49K6mQRgk2yXJ64mySgFS6E1It35FUoRxhqcUQazPkmmvKijYILKcUYbOfOJBkNzFz0Fz/kyyFdZPer2r/ZKUPdYyvrdUlT33lUSCY7XtbuexzPDhbsdo9gLN1giqbExgjkq60WmOIvnyB9LrIYBPYmhzKWn2Pl+Z9EcEatwPrUN+Q5Lclj66W2Sim1gn0oZP8c/OWBrwV3TJb94Ha/7JZcqfvQRJza+sTHCiGl0pITO54VTRmIk0zcNWP+uO+bSkyKK/K55IjXN05jkr4Qz5i3uc1wOmN7r/t75Gfezs7ZgLBbL49/9Ime/K5bKZ53lY961m45YgL1e36eXQ3srCMpU36cezhIBZ6O8Q74ryvVm1r0Q14eB35bvGld5P/BrPt4ix77zPwZwyYfxjAG8cZ/8fQjfFivlKmAIRguKqgb8RecMioKAIwkQeM3axAHHEwqY4gwKzcaEyUOdo5jUm0GR5KKTpO1PkxHzmIB+bhFz8RjQVilMAf4Mr7W8RQlJzDJLfZeNsUr8G1XeHUuTeZ+1sRIqtyWUhcCMxcRNk/OIBTtSlWM6MkFsyXE2Bjk2V72Ygqn83XiXYhxIeTTiF8FUQWjgX4IEBZmVvhNNFBOJpGjdkEUdi0uglbRdTtGWjBFtSCY6bNw+pzdXGQ8akwKQdRJyCfraOmYo3CLlVLVyKjpCUdjrrmAEnDb+kvCUJynRt2QiulaqqquY8ip5sT6Tc9773ESSZI4+vcUxFOtj7zPelbQKeIsKLw5fVu530+kEStXpabO+4QbG/KfdCxYd3OTYIXnRIxMm3IfE7ZozRKLKqJN+ZCwbUsn9zL98kEt+xRFmHbjqBgAe+foXfSB4Y3ONjX0S4BWX0dYpmWSKNjW18fkRxevFjRmDuUwzbzLJVTHr+yVQvSGLS2bY/JK4l+PVkMAQkunel+axB922cZ6T+IGl7RtwDkT+/QS0+j9t/FLdlXtwc4F+V2D9L8jnr9FirwRjj+svDXCXoE/u7AUg2ocEafJiL7ApMYT/ozdzbWZt1mbt1TdTKbW/WBwmJlDpxRDEYxR5WhG0ASxWcQ+1TtU5pM61UXeEqiASM0fTbBA4JEprPZtVPq64WAqXXpSV/KVPrbIpq8vpN2tk1LAqYl/rbx6wb69SFDpT2LQdn4pek/J8qMxDPrSUAj0P1tCASIKhcZR5b2xO+TPGOasnJZU3B3Tdjm3R9kmivscGTIYBD1B63E1KS9wlY1UWY+AtmnYv4ayq/pUh9ZckCj13btfWIGc8FqauToZVLhiNZXb6/j43hWpxqXUxyxdd5Pr15acCL4wo/+XlGUZ6zdUiqNaP3M9mAoXCyHVM2AFICXzayZhbcsjXehrkIJJsyfdDgx9CPi2+0l++GAuIWPqwhPg+N64KZSO7b5ORiNNPrlbUKfTEP0weJdQSqKyEsURiCW6UsPZ9hy8ZXe4oEG80fQ5/0xWFDoc5kdI3ilWYmYpLjjtnYOnnXR8+8wePUkvxnyElUsY6vbUG8eXa58SaqqElfZckGVtXOmtO1ExoHWzsX1daadJoF6MMI2pF9PD6d5wkpH+VivHDeE08XgRfoPcx4SXZz3qDb0SsnXXgE+K63PkRuEOQrXoinsLnhO/uwYlZsHXWZm3WXoNmppuuSEiDrdbCdFsRmfuIIhHSIiYR1XunWaqWiAByWHSVagREpokzosMK3ipIJd4RyQRYGyikPDtN2uSVW0lOfNL5qscuezbktSRAaqxhJKTIpwc5Y7n+BTmmiTKQVaguK89rakXpPo5yYgmIquUStTqehcxiKWqtO5IAbj9mKtISQ5sxGiugSS24NSlEw5P42ElB3lhalLpgUwiS6nrEvPC8ljb3MQ3teNNe9MZDuaUctzkdRd0mlbdooragUDuLLEkevJsoafOEDSmgi4iRMiFGiqQsKy88BYa2WCqtnuuPolrzqkr2r6Qo80DqwmjA2hsG8AnhZL3FHefChb/FYwIAjPJNai0TEWa5iJg5LeQTwqluNsDe4LZtfiFHTzp/k7N8dvb6WEHtDicp0y9I3wt8IEoKphL4L68VZrKiIPmWWAKRoZSLXnrpcwC0k4u57q0uqnD4G/d4qQ7Vrl6e73PNQRc03nO+u87p+wd8/3GnoFeaHFPukptTYFpMrPU3b5NezXN6R92zbr3LkH5JdpGxm9wGVuI7Nh8QnRsiwRXZgUvQAvwb8LjVHyVwuiqy9WONfd8N/LbU2ywJcdERbsRHWe6WsO1dHwo7ffTjcJdYmHdINY+9POSXj7kL8FrTSg1Sm9i/tK0W9Ha6nY1nx66oBYpdXp+GIiV1WWqciAoQiX1lIhq2T+onDYVSD6/MKTeVLrBP73m5gC3dv40PYslbZSmoJUgVGUNHJhAt1Es6pZ+wHARdgo8qhVlXTAXViRSMmTqj1dOXvqArbkYk/dwu+wxFJ8bklnzsgpyTkUyCUeyRqUp8HZkisJnFzv0BaImrOB0PMDITRCZ2LP3IRAhgYIeazcJHcnYazOi6zrFWC8ncM2glRQgqC/6m5oxnBKst2EKuU4ru5pOMjpwnzfoU8hZNK3e/7YPL9CT4OLxXOF0eyynfogFNGMrEvvl5yaBEj8Lfc1Ka1/zKTby46iqF1RWr44ryHsFqiJvw0uk18u9LMPYtAO4ZZYfctmGUe9d7ak+5anPAlJK5IsjIth4TBO40J0o0wGuxB1zW5jd+6Z8BcOS+z7K+5u7jqYWfpXXnvwZgXQKoL24M+MO/uBeAuW9pgaXxQWdyi5WgsvHudEWllckSj46oPN7E1gNfKJjJpN3Oup5Cs7W4i0Qm1ydEmPPtHPGYkSb5s1b/rgN/V75/UT57BGDqx9iDguPXPfNZjJ9IbtcI6gJ+pvjIc3DXvrAZ+dNX5fu1wNLMtZm1WZu116AZjx9R897SKLoznr/DCuHzNLZoYVliK5K/ciZdeWDij6OYEnO9rKoPhVoaCK5AKRIA5ea8Q9TiVtiWCpOLaTk1mUrUePP7qmcu5Mf/vqMZuKS3TuqPL9O/3QVGkl1R7FGhbIVAWiR4hqyr6bklUiFQjpJdwWWQRPL45Jq31qLYeBRiIpZPK4sxKnvhUbuLqO2aJAlp5AKmxrt9Ix90JklIxRLQ9LFJ+nQk2DrfU27ZmBNrwvMxrmj1ZX+5n+m48vIbxtfFZFQSwB3nOXYaCusAWp2Enmj/rOUVdx93K5c+F76Uew6VqTzrenLGx92LepnJtdv5f+cfy7hGLKuJHXlcgVrsO4BSGOU2xTosr009vQQ41xCgvkyO/S3ozAXGuXOoR0hNEQK4MnZbUdCETg72uUGe56ZgJQ7/1Td48H93a/iFH7iYPXf8JABP3PUXAKxfcQpSrQJz99NutRlXgvqNDAHR7Cy4mi5WvjNyV9ddXvG/O/2ZAeX1og74qLueTrKClQLOejyAc3hhLgAe9OnfJfn/CS2B5A6cqwP4bVfhUryhlzTxG7htw17a3uaCrLC9IlDNna+jUjeOLa0FRgeSsslHJujSTMcTpqXGPuQFBPCgrJjO691+Ow9n/nd1pMTE7mclIzbfpEVsYKQSM3pIXqY35VhPsDHPVi5+71uE7dt0aT/qXBbRfeJXP38X732b3g088NXPAlBJ9qjO2pSCuzA0qm5VMtMURBLr8TwddUqqsYdO5mM8SpVoE5gKA1RJpiEYuuISzHcTv89YBb/HJbVmtGwXK+7JDuMGYZuMs3LONCqxcs3FWF2PAaUMvqEQS5d2E52Yow7UQtozFJnO8syIQlisx3Ln07pgsuUm1tG0ZKLYtLa7tp3jRXSQT0cn6YnAdSnxDkMXe8idc+ExgfT3LuLEaXcfFYZIZC/dwgF1t+AJGQP/w7Uf4MyGGzd//S0nDLWWn6G+QSalz7jPIj9DoPXEZ/PUtR1eW1BKUWj/0S47b5WiURGpKasJ0y9rHG3k+6iyboGpDhn+9A3OndrnaG8Yjo5iJdPzzCefplxw93TlbziemuPPPMpLz2mBngD1TMzKUee2WQsT4Tgp0XhXQV1L1a+6XauERXJuF8VjKtrmNllyEKrNteEZxp9WB8W1TzZEOZskzsoj8m1Csd5b5fOHgMBh8m4CO4lO1n/eENDSaMseuFOOevdd8Hdks6aCLidMMLvd8WauzazN2qy96mZUCkEj1MbgE9vllFfwa0QNPmi3KobiMtdyrATO7FvclslGTjlSDgqwSi5yhVgE0waCtsxpZW5W70mwbDideBjL/K3OlfrwoU/xzDMOD7BvIWFZhMAzKYWfby0GZGDSbcJP3WnsPJVEwXw2ocYXiVVblmzOWQCnxQ148pmjrA/cirHQNz5wq5WCltjza2i/1cRY0XvB5kTeldRsRUzqhWti37XKpFYbwDp3aFqu+juomxmplqAuTws2ZRxjZf+h0CJOSxtkJRO8TpHee52setDIlD5TQXLuut+tmue973K++Svut/tOuRVsXBaMPyuu3NYZT9dZXyEExk8Zrlx3z+hflc97K2i/csaQcloCt0NxnW2ZenJmsP46o3Fwm9R6ra6sGP+R239e3MvOLf1QrqHUFjbDagHcaJP4t5xe0v3rHwTge8sH2NlyWcnc5IwlWTA+9SwAG/t/kr3GBTy3vuPOd+HPXcpUuFCe/t1jnuqhFMh/MbVwrZp9YlEeLgjUkpCJZdWSgsR6/HJ4D+MJLdHfEWVPmhD540LO/FGO+AI8Q8jgKMfIXuC4L8YDdYm0bK/Lukh5Nv/2VbzvcnsDDq9iObsBpIDvQ/vAzCySWZu1WXsNmok6sjJJarAcSwoYYFo1rA/dI94WL5kO3PfpZSrTY1CypGhDj21DeTzAWIML7iNqZSRiKfzg0T7FzS6nb4SY6HXfvZdSVkhd8Pe9nPPvRy4g+BtX3cD5ux1KdX6XW5nmusaX/O8g46yU7e+I1OePyaeCCdg84+9H04lQkYilsdxzFsUley0tsQqSuYwdUwmiKmGzCWjIVl+Ji0omtbMoelHfoxit9DdRQu1BPGUDzaiR5gFWivaSlgRqy5jpWKsmSlrG3UdLVuXU5gwlSNoSGQebxd7KSJKYefXVJR05nOZeH/fY+lOsnBIk8Y2uPzbLda4Zu3srvKueojHs09hgSGQqPQI9KTz7+9fcxNzOiwB47iV37Q/8xe9zWvYZavzUGiIJYsfpCkWtaFuNm8SNgCYMr3bHz8U6yD4DXjxcg+X1JrViOpJ5hiM3Fp77A2eZLN3SZnXqEqsm6dISgfUNsURft3ofx18nnLB3OokUu36K4aCB0vZFmiLP0cApJV9352518eRQdY1XKdwpSPDO7osYjITpbXEXTyYq9fGofH7D2wwXC2LkRQL58+WEAj5tx3kj22mkVXTC7e96Uo8qdVXcDB8SNOs/oFFX07BCkJTwEnDnXZhaR27jXJG6M4aAavZUiOAzPCH2Qz0NLPAeaDZVDEPD9LFgxbzT6uAoiqm962FIJUtx+65LANi47HL+bEMrMt2vqgRu1eRO2keDj8V4Ih00INFAcVT5gJawAbI+WGU6EuyKmJ6RqVDfw5iEtgSdW4KV6SUj2oKqZ5ozkZd1U+89ylzAjAYs3qRey4TIJzl8umFHVHLWM7WNHNs6YGQisSajHqncZJjASx+ELPjaUTcAvvKPHK/FVp1TSQBWGbmIjNd26bUy5t/jBmkh4KzBZ05RySQ7n8Ge25wLudm/yN2PgVWddOS+LyjXGN8g+KJDBr4u53TYLcqrC57+PRek3LfzG7xBFojlRfciX3PNL2DHjtiilDG6MRn4RY2475N91ruMeDc1OQxcL6uRqhAYfDbOu22R9ZNKDfQSqZJ+l5t4y7hwlJdAL0qDtOlE8TAZhXCk/Hd73c2NFg9w/1/8K7e/zT34UWk5l27bTTdzE/zocUF/1F0v2WkOxiF0KteWtjNapVSs17BfAq8vyc/eztQX3emyfQx4r3y/hzAl3EOz6dan/hPb9tCVwK3Hpnz0j+HjJxu/lbN+9HLdJbSPfIguvzNzbWZt1mbt1bcgR5GoyVVtsz68eej3AJU6q+2ESLHg4hLU1jqXqNGiRjCmbnyPxLJJ2hkaZsxLyxukMC7vuZX2LT+wlx+/xs2gm1IK767BrTzH147x+FHBj8gS1u2s0BMOi3JaUsiKdd4ut9Lu23cZy0KGrEVxzv1SPEDKpHSG31AAFJvlhLMKUqhTb1EpZ0dZn/FcGx0JsKYtPOtaPYbNkVAC5Ko7Gwe0rckaLNrud2nU9xwnGm7c2hhQiGU23130VtL8z7h7S+yFtAWDUKsrlrQxkTCgtbp8U1bQS7fcSjv9qQlzbU2hDnjuU86SmJfg4dItXY4tu/1vEy+BhSt4ds25l9+1ltNvkwI7QQpHpIxzd/wvPvY1fu/z5wGw50lXALfz/bt46VMuyLl5hfu0ZN46KLxWMb6oj5IQjL2uIBZaieotYgmWEDrRNfM2A18Xd9sEq3DrkDCx3ZTSU4g9fUpB87bExTJJlzdsue/fPfowAOfveTNc63hNV9r3sXaPlB+8S8bUgZv48M3CkPxLznU+M1zn2ae+JvezGUTIRTdjSMxInvtifzdtGTdfFvviRTzanq/L57XA7zXu9ZPyqQ66C6QqcH4dvIKea04wXNsvh58pHH4BEF4fn1teAm536eG9/A7H2Y+xNpiEoDiROGw7J2vjMBfe3vQtMIOH7d76toAAvZJORhqHuggA8/UA+jJU/sVKfVls7CkSlxT2bivakt1Z3rVEfZniYPQFTOjOi/lmM/Q1nCq+o8hDnMJfaO75LaDrFer9K1w4kxNcbZJmqjwBTZliBQMzFeLfVg2FQtpN7E1gI6Q4dZkH0iYCX4nOtmdbgOBypsrTkRQsL7t7n+vGnH7JmaGJTGJJYjky5zAOBySuUdowXCoqaq/P4vbpttu+AhzbpfUed31LIu+51NnFlUKhWMu1P3HyaV76nHsZC5ORyOiur5UJpe7y/SvFvX1xALnA3Pc6U98+9jS8XvtTsjNZ3gBWpMGl8bG6RZ+Ai2n7caPTg4kgMjopqCRnRq1UnuWZULY1Fa6T+6DlBb8NU83sfdndW/3OjF4q2Ulhjn+E73D7+a6P+eFbebzvqoe/t+rch/mjj/APaue2vU9Y4s+/4r3sFC2lF44e8emnqTzy+1li47SMhdOrpOdowh+X/2B7zc2PyvfD+LCj/x0c8YzzI/YDPyjbH2wc+f1sa9vnGvjgR8/Z8G328hk5zx5gfebazNqszdqrb8ZbDzpNtyBqyaocQSRGUl1rgVywUGobN1Zw2aUBsVfsR9bpE3kJCuDhBtkxADm1ohlNn0iKArXCNapgLAFHLWazde4tiTSJqVT+QagSiaCr15YMOJfKrRyue4RuLPdUjUtihbvPF/63voAuyn2w11Dg2Q5ltZvv9h0eAyjk3GknI5fp+pnjz7ChkHMlfC4rDz2vzbpHsT6glmKN3zYRYfIfrnN/7UWJl2TQ43RbiyheobTBwtKFPo0M14hBOxSsRTvKsALrHX551Yt/bwr94pFyzQcSFQVNQ5okjQx0hGrxsJxIcRQ4Bk9FpGqAPyoLj2JtZQopNkEKs8pDBbmOFZNjZXxE38p8ZkQlP2E57BNp9ib343v5fYvc/GMOZVGImM6ffvCjEIu1V1kSqcCNblTkc04u7nwk+1w5tdwtRYi3LAxYPd/ZCOcJV0o36XKlPKMTQne5/sjvc/+GBDxN5mkuKdwx35EldPc418jW8Cfrq2xv+9kvbsq9suVmQv3ci41fqqbeEU6w3gis6q/Vchk1q3/VBfrgubmfpj4nXMODPOIjrhvAjCFt1mZt1l6DZrzvqZ/TEDKIWi6gCo1tAI1SaU9DoCtDI7g4r0GahxpnjOJG5FaDnP2AEjUFtQa5RIO2txAK11T/NiZDeJwdB4qk6qblur8O61f/zJMu67UnUceX5SsSMutkRKmKdhl/z0oiXJZBITZpnYdNXgYcwhNga2OVUgXH5Hf1Rs7R77uV5ZEnH2Nw6NS2v8cY5oRro93rM8wFvXoosG+1DgoCUuo4vnf/gN7NXiKPs6hkiLMISmIOKMNZowAzldiBAwy7fjjQcdsm01VvbaVVSF+rlEJEHsr/tV8jqBt+/EjoIYq3BXxF9pCs7tdCuanbNTWOHz91W2NfgFheSTMy327wtCiNxestpSJBJyrUFnBM1qOlM484Xv+C5RN/9Ovup2KNzSfQqmX/gyPPuqbB2M0SepJGN0IxVpNxscRYjgxWme52Y+gnrnIFf/eceZqeqBV+U03BPOeHxoLWHq8xEihwRzA9X9y9wvt77ob29GP+btdBSX/d9+YxjjToA9wWV5gHLhaq+r9qYzj5CsW7fgOlfR75apyYUMCnbkmDjJkFNLT7dkkTP8gS28XM1xtZG92x1TheZGgtCZWeBB5N7R8Pk7ygJJivgKsPErwBD4lpGaV+JtrmCvnSzYraA8FSD8qajpVgZkS7peCcIKdoJ0qQXFDJBJK0QsRei/GiJCeq1Zhz15SaBJMpAZMO4hiMBCWTJVpyrSrSPS1zTuduIuhVeEU3hLjYRjGtTAiQJQi4fvokD8o46rYnnoPCI+VJmWqZQdEGYVA38US7hpYcK2nLgd7Z56yQP40sToQd2JGFiHldKn5Eg6oTanlyB8rKA+c2pTjw9HCN0hu8hp7Ct0XS1dzQJ9HnKs/KMsHI9Y7LTVJhTa8elcrnJKNsiX7PNts39dsiFeLO1U8s9PCulEL63sfD6xCYd+JC8ltxFTcuy/2gFlJ90keNBzxiU+8GzQs60JhFX5FePxAqzPWzlRTbz4nDtby46P5+68qlJEddAPl7pWOmT5bfTC5FlPOfcO7Mws19TktGa1LnjOWdOqsgy/Eqf/Gyy4IN7xl4Fyu0txIyMG5CWeeEf6XfRMCXPO33WaArsHo3SpQWWplNvk+ghNa2QcCZfJubz3Gn3O8dCqbLlDYziPyszdqsvQbNaErezyiRIeq61TDLQirN8/0lBvOQkB5flxIJ+W8pZeskkM6rAxBWOK0YizA+cNt0cRSN2DuYsXqhQ9Cdf76wndElqJVXekS8g1DlHqZuZa03DTSrE9sIQUeAJM2COyWtTqxfeRIqHxTUyzUmJrbuPMPxJkMNqHYFv5FBZNQ1cm2+uxuk0G9UFZSyGqqOCgbsfdIdN/cphXJgovLJAPcLwvadYoF9GWrBOtibLK3Enb8jlI2t0FuUIrk3JUh+tE3GI9I3+4X/wiSBuBocWxxARwS1nXa2uE5yDzvYBZXD7ySJgZvlmkS/piRndLU7fr4RXEUtWIwCzpd6LLSWZYptaTA3BQmiK2aHBM9oR0lwyY1aEYUv6lPVxZoJU8HiVOWar0eLEjcWFh4rvKB4XQRyc+WJ6VHQfZewxynMiJQD0l+fH8Xske/rwhOzUle8sOdKAPb/kjvOsf/rccpag+DWo7kTxZ6YmESspIX3tIM20ie0lxTCDpoA7vKZbUDTE/Kpgde9nPA4kRG3EeQsmraL7qXtjSBuzM2se0skBGhBqQmUfW1mkczarM3aq25G0aW6OifJhPTbIulAAddtZ72KMGEleThlcpXWdAjAagqbWsJ+2fMA9LptEuG6jKIU5Xf1TGyk4ZhRhhFTYmG3q7XZOZ94FKzGX+qaRoA2BHCNBs3cxboPE1T9VDTJJjFoHEF/noTYc2lzFKynxkwnyuhIkeOUhFrqYWqJE03zNp12Kfes1tQSNyZu9v+KhSR1VkMcqQiUwcbqv1eg1omYD67cyfjfAtTvHEAsnK+TAZv3OhSquUn2XVhsxCR0dSUwUpuuv6mWPos0hMbqmyz1A1JKr1sLaKcKnNO0PRRKUs3EA+d4l+uPvM6pP+e2mStGIViLoFhHMZFxVk4oHt1E6/RoGZC6mMgHeosAFOxYf39ea7nuBgoHAQcWVxe+BjKyXR9XkZpLNsanWBCsQSvqN4CxEiOrUg9EVHBnKzKUOn42VrngB9z3Z4+79Xo0nWf/1Fkn35t3QdO9P5fx+D93rGsknlOMWlj9zgzWePkP3LMcHMgDStS3i1mSeMW6REbeRFDNGxGiHVpn921g3SeDdxOsj/Cp+LMQKXnCy1Z8mhAt0WjoEqFpf5hEKMeUqyL7dsDN12+z1GpG6iDGgmQPIkKEO2oGa5W9S44zHENyhftdrwfRwxoIlA8Tu5EMcH/BDVcLE7tUzU4nFS1xaRJlRW+lHk9A1MgkVPKCZkt+wMcWXwJQiQtUj63G8fCoyGqkBPiUlauIhUwRJ0EAACAASURBVFDRa00Xk7ruTGzfI1IVfTksYX3kXpJk3UXCW8myx3x02imlzkpKYUmBKeTeD+GDgkoSXTLCByf1ckmxKhd5vyETN6QteJZe0vauy4FpM3ujNJMjSCQTJUHocX6KUljzy0OL1JL1sV8S6r+DYfLY0YA0a1A4pe/N/nqi91NQvVkm7rHfhaiWTE6CDwD7v3Uzj2ytrQ0oac97mfsMjqlSn1XygvANd6mUMRXZAJgqI/wb4aFNZoWhiISXyQCUu0RxKKR0/Ust56vxygsX2xEvrgtyWkiqk/ekPJ44xcHEugnl+FKfa+50s/3jv/0l8lILPCVrF6Wk4tpEh6HJFKdNX+J1mQhOECaApwn5GW2u+lfrg08Ssi1uQrqm8VudFH4MuFu+t3nlBLK7sc8SLmw7c21mbdZm7VU3I7SlDR6Mwq+0tQ0yAVEVUovm+kH47cb2gGSUOEkJgNhP+TmVIi1Nm1ZL0Iw+5UuwTt4ZgmRdqfNotft+W6l8shsjbwV1s64PnNWSvrVlWO2mxsB0fdt9FkVObRUt6Y7TjmO6UuvS6sRBJU7s4mEN+ZZwmNRQiiB0gZAym3WWFzQ97T4mleHPToo1lUNUqRXlXDBTFw2rrggidNJfdZn7+g5NQydATxC4kxtg6wtyHVKL883Opb4CRb2m1MBf6nmSFLUqLc+74wDT+4SoucwJJYKy7d4zlGLxJDe5Pk6iPm0fBDcUlRbe6bmDW1zXAWtU+xxqcE10dY9s6o8QmWa9lgan52Fi5TwFKoYeKb2D5VzQk7sFCcYaiw/ganrXloEz2F2GXrd7bjvjXbTnheRc/paXBcj91rRRtYu5d7sxvQM4/7hLBXcT11+PLx3gm2JI/tCv/G2OHHXFePoeLM5lFO8WSY9PWqZvDoTX2o74b+uv+PZuAlHAJ/1fL+WVOJHt7okGa39aPj9Gs+gvBFSbNXuKdV3HjR2D93HF/40y8JiLUH2pL2VCTmSdcTPFYMW/E2kO0mweI4Ay62enlFSH9kOFxzboX40BYjEjY0OiEOxSPwZMJ4pcck/ciVq5a05qSBQ6L5iQ2gT4vrW5ehIhTlA7fIk7aSA41kkl7mTE4msXgj2vRwPG4u7kk8LjVKwMFKLYxzES1dmJUt6RuP0foPAcJoprKaICgWrQIvX9rJdZlQb/st0n+9602+vfEKdMEyV6djudd+qYN+VPqIIVEy6Q4WHSjLxwQ+6FL7t9J0Xhff7y2pz660KcrCzzSUV9k2RGHpBrvGFA4WP5lh3yTRei3EyI5SWor8PziCjVZh0V3qVtmsa+gM9uEtUCu/c/aE5ONuw3DlkwrRSuZcxFJvMxDshD/Z/4YjYK46eVZMQibF6J+zh380XMdS+Xc7qXMolOIVpotJKMcixKA1KuMByeZE1wNbtuFuxS/2Lembpn0N3V54nMMYlctOaIi76Z9NkvxzTvyxjf6yavJ2Syh6Zr417lYwReeAgTSJhmnmY7sdHGtuNciq/55Xfk82ICymSp8VsFuUGgkx7iJpqZazNrszZrr7qZ2pM3qzFsvdoXQKJTjVgMVAZSQT0ehqQWRicNWF4PPCRWzvWKzLMEUHhgM1PNFdIUbpB9Ivzfp1pe31CW89KAlH4anOY5tc8ouFYDZaF0BzGREixnldxORdGkS8AF+9WCjsY5caSFc2I+VxWJqtFVUAvGZqEn1kEdYwXiPhWkZmc+ZVGK2Tq9lNxDyoUusM7RFSO5yWA1yHpIXME6BL9bN81LHxSUlbpVllxW4FQEt4cHQ6anvF8zJTHRjZopIqjzSRf1yBhqZuTrhqij+pzS72Wf1rlIgvss5qDiegae/FmbIfZIXh5ubBcch41TqEJhHEBUG6KWXEedoeiFKApjMrh/uQ8aKyWF+4dYIoqmHuf47FWSQVsuVIsLzcRjY5IyZ+6gG9NLC84iaHV2U8oab2WArO66iP/+jQ4l+sJLj3LkKUfb6HFIiWXuFrlPCfCff/IYD+79EQBuS+An+s4lXtr9twHYZ3O+NxIagqyg9x65n9/XG1M7AZSJ+QM84d2MrxKsh0An0MSIDFG7Qnmcf5VXqtoMG8eZEiwRdW2axYGX4gK+M4tk1mZt1l51M63DGlsQ4hcKn/bCGL9EW6knwe4Kq9TV1ueN1biwZQbXKdGPEhw3Tnhdg89UVqmkzOCQrCzvyYh8DCXQGahfqwHWOMk8CbWJIZJZP4gYQyTozzqJff2GMpjVJlYta9+ibOQlLNKOBSHnjX2aLmYrF+Tp2KIxJK3VSXoBg9ASwaY0yXyAmCKmd1AvT9Kr9TKJYEpop9TCnFYpHzQpxsdydFufQosp69jDHkyDHMpjQm4YhV1FWmKrGFB5pHJIoVuN62B9AWBhlPe2wKeP9diEmqEibnuip/rLcp0WuFbubQK2rSS7ipsB4u04Jb9dPmtCYB8c0lrjNhGLQaExacRaNLCqVvQEL5HSVK/TIHcr6bMgZum+D1zMBSsXAfCg4KF+YnGFlfMlhVo7TNCZHJ477qyHY2sDVv/YWQtz73K2wPL8bvbvc6nedM5ZHt86+ocs5Y5y6DODFV639tcAfFHiMz+5961SuQLrm2ca9VihrUuCV3lWnybYKc0KmeYeGi8ZAfvFQtHA6qcJ6VzFul5AaEOCJaKWz7RxHgs8wocxowOuMwthx0pjSA43eEKUk0OkFZ0L04C4q0C2vtSRu023UYKRzQCXCcgnZemyUe5fghp8UVVRulsb28oLXHsGsTrBZKKaFwXYfV03TFz0MisQaLviSZIIbBYyPG7nvg92FmNI5foToWxMbOyvMzUTcoXLi1m+UGcYyTRpfV2r0/f8HbUdNEB4AtR6YEQisiN2UjB0gX5KKWYzQBor9Z97udMYzsocOyrxuIdIA9am68mQFeBWxjARd8haAqRM6LkqTqGx+ikV02hT+k5upJzAIZ10BJMBcL+4JDcWPsCrmSljMmJx1QozCmNAgqm2scBEml6qrP+dbVQH+yuOrM4T2AIinUg0Fh8FNjyN9SftjOywHB6oBa1VXO36dc95Gfv3Xix/z3lEyLTnpSDxuXyJP1pzFIn7BSdkbcGBfY4I+n03/4+svdlV0w4FL3Nm9DKflYV0surc3QOt3TyeyYo2TtgUfaCV2lWRP35yjdYudx1RNmD4qXP5SN7KfinAU/fiq3i5by4goESaZXj60l8FHGzsB9sxIfp9Qpg0YHudLzh3Rs//IL8Md3505trM2qzN2qtvxsPVxdSt41DMZmkkjmQ1M3ERNEbygV96y6Zeq6ZdPe9ECLDyUOwCsgDXi6n8UIVNtJArDmXcUz0OXvQ3FfxEEscYTzRrwXOSakm+rk6QEHszVgEvlgKbC2pA0rguDStFat2MRAOOOt0O1jAK34xjctWJES4NE/Uxwi43kfxYUZaUJjgfvhz9AVlWq5Ff9Tumi62EjNnjCWOGuaSK73Wr4fxNliRSpHHu2da4QVKl7teyv1h6VeGFwx3bmF/3ZZ9d1In2TerRuB7RnMQgVopSC/RuyBr7pz5yG90klsm9m16LmTjFVvn2Y9rUuwoa8Y5M6q0xxinqPqr1WtdQF5oeDlgQfW4RBK1lTaVPYuwVgaYgS12fXHmJc1dOX3Y5+drzALywukZ+SHd3xfhryQssvftCd/6+w4I+3YcXhI/ki1/7N+zbcPd2/N+6VG7ynnkWVeLi/2vvbYPluM47vx8PT3fPTM/FvRcXl1j4iiYBiKLEF1EEZRCiKco0QgmWaW5EUTalROXUehU7UTZ0XjZVqdhb+RCn8mGzKWVXdlwpJ9lVIrmsFzoUTfElDBSYoQHahCmRhEmKBEhKVwh4AdwZzPTMdPdhOx/O85zTF2Sc1EKb3Q9zPmAGd2Z6evrlnOf5P//n/5e0q+nlXPWGp8BPZt/jnHzNhW8KM3q8Tmp8urTzV69nUaVU/6lXJlvlyVaaskv+FsHUd6Y1Pl1RXutnga/L8z2t9+hzjULaGX8bqlW+yQyJRAB+/8uwMQdb52M+5uMnMGwpyt5OzKxoBnCzzvh5AF5T0dQ0T22PmviVDQpZ9oiugH1oCdz70WrNNiXNEflOBWXvcMHBfvJgwexGP0N3e7sB2NVP6CTaJq6NZxmNdHcZ08ekSjRTAaSSWsu/ZKjjRJrqymdx2kfk1EYhCazJNIWlVb/C50vCNqzgzDaft54d1KE5LFEQsilwLtR3Aei5nAWh5S4urnFuKGzIO5UAmAXgtXLg8IxX1Ud1hsC6nOkxPJyzIjLinbofmZoCWPNJCGypYEZmg+6pc0WMNBUkT8EcEjLd41F5DFE9q2cl5UwaBRWkfLjQXjiaFColydUq3rQYep888qqNear9mtE4zczV5sP5Ei3Q2IIg9BSIaFnAQ4JFBRCuuTR6HEdQZhwJbRV0QquXOBOcepHXxICtedx/h99Pwcuqksk3/XnLPvM6AO+fFHS2y1o/fotK1fbkGC6k11I6/943vuajjP6hJcaikFcCmeyTXqUdimDeNfvmq/Tvvpr28GpnWoxdlX9PBzC0PfSn307UiP/f3uV9bcKZPp4kRieWraVggK9wHzz4Zd0p2ASrJ1X5Ikm6hJGTtu3pjIX79vmNPPSKHIAaJ5NGcwcYr8IW3PVcM2656ukZ7bf4HV2MVnqeVp5JEV63h7bTk87Zfs/znk33CmYSauvkkJR+AgFxeGgU0NQvt2QtUSulkQTsEAcSQmcKwCY5qVgHLPSWENM+TrzhL4Qfnl4PVaNef4lSRENKnXwMpOLU1xXQ9W1qRgNphquGwbrCtZS/lMOAccQmZ72xplglLIeKz1uMC1ViK2OHrKSX1ZOWSqpsyqSFmsxIJclaSgVMQzMcVI+rzocLlZlyn+xv2U4f/UifX8JptaQqSQToLjXdsZbkRQVzS1IFRGWyN6ZuiXZqahzV9LhjieSIyDfe5v/kigwTAPUCI9Wl4Hra6gpXlrGv1Gg35oBU2LTDB/2xOdesh4nGUNIoS1bug+X+Gmu/5hvwcklTn1u4HmN9Grp38DJObGivEpsQ7Bkq4T9d/hlfqNj45pCNG+S8Tx2trhP/3UnN7Kgs2BWc+6oS3nXs4WI4dQ/RPaJLBFm1KrNMdN1bYCvNXf8W2bJbH/V9cQKRLuLvfT2irfLmeWozH/MxH5c8rFoIXP2Xfpb+xD/4GLuv8DPohc/0KQTwrPb6MO7bszPsHog7WlFwvucjhc3xmbDR0GciZdOkNV0V1TSUW40RpzNAvSvSbhmiB2dimmDkdXXkMzaho36rBu9SB8H0yrp+AN0aCEbdQWOksQHkVI5J47bOrEZqj+/9KR9dLPb6/PDU8wBMbUK6KLwNWZUvt2noI1I/38nkrcBM7XUWeVu+MwoT11E6oLuDyUGRKZBW+zStcZWkfRK+10T+zuihkmafhN3Hr5Ifcp7CqSGUHr9uWKm9hcNWrQsDpLLSV1hqcRl0KnEwcUGUW4e7PcOK011josOea21aU84snLmW7klThkhEr5E6aiXQHB20RAG0vF+0mrSIUW9P0r4qD/07qvhmgJDbuiWWvfo1G/+B53eu/rDg1Fd9ymrvqING7vJz/t6Y/L2b+ei17wVgNPHX4UvjMaMzHnw+sW0P14npuh7vlCmLHX9hndv052dzXDCdKuhftyoZAiS7hOEtkvYlYxKlURylNfRDPvnYIDbYLRDNsj4nucl/tBCjkFaLbHje9sJql3w14XyTViTy5nf940kieWUZeBGsIv7n9vsdfOGVdR4b+ud3sdRqv/TjLpPxsOpFkHPrZ/2kM6rEdLoecPZb/gAXymVIIZMbbDnPw4WWSndw/549VEItXzAJmdVUQ3kiOYFQkKrye6TrNE0dKxcyXHUmOsclxFxeMYFpK79OlMhlqZSXQK1+4uiJHg7OMlLLUPIwaVyuM5/poRnv5UH7ow4NY65xLXEfmaAPt/bjEy5UuvTvzZ2OjhEpRSFTTR5zlPo+omSfVqYSRJQKWkxB4kTQvtP1aRMrdzS0+C6tsaXL0n9HJAoSmg/DHImLHHzAXeQthMuihpB8NjHtNoeMWquKuoBQhma8LfuvDXopQUslyodmEU+xCZsf9ju49kN/N5x9uA4tBQaC68FMFsS1H63znMxKKma1uwI30VRvwIVSmh/lbnSPR0xocyyp7QEHQmiMr0LblUEtcJMEtj3jJ7Ih7aG3u6+1dFr9wB8ExPuP78jsscpWxFLJZlqpscTKjKYwq8T05it8EKbf9f/RdOat1gZEZXqe2szHfMzHJQ/rBJ0cSmv390++wZUP+fD69D07eE5W67skTOv0+twr2h9pCulOHx46ad77erFOKtOUMj6rtCYXaf1tn1gKwcXCsk9Hltc+xmhDKJjOhRZ5beoztt8SCtbVaByZs00V0DYFW6tyQKFU/oYwZWrvV1lVYXUJIV9C8MKZVZFyru+4sHmSycjP1TaHVFIva7SSlIfIyCn/oSm3ikhrZkV8rLTV37Uo58q5eBy2HRIFLc0y6jIweF1TR9+gTjxGery0JcARG84ym7WWEOUREX2NqUG4Po0uh7YkiC4rZ+gIQWMksVlkweo2W75Hkr9u+e20zosemNSCaig4YpSjEZj/7vg9cSVU5ivB4mJr+7wOy7lCpDHF+sGMc7gjUuyVWzuSfZ9+ZZ11K2bs4kFik5zeQWVZDxkf9uv+OcFCh/sLmpDGSExQZOECbShxqgpotPExRqeGjGUB/n944Z2/oi+RyPuIwcGHT8LRPVvf1yVe321+iB7Bd2PAvgX8TmCNPPHuKGw7D2IekczHfMzHT2DYplIHOz9vrRyH5X/dP58+llEKX+Ham7yD2N3/xv30WoTSdJt/fvRxP7t//Ru/zfLdPqc3whDsfHJHbIuvxrFMKQZCx0zGz/TeA0Bx4Rg9KZ1qnb2qToYprxTxnQxLp6eAZEUjZItK8ZeFNXq2ktchNJxJdJBWNjTThQpoSuCGdNKlYHGh3sBVuoeOar4C4wtKopEV1BVMBUOpJOGsptNQTu+llkJAmuJhWaXqiPBOHx3Ax7dqg5KUXBC+jNBFSD+eUSr70ri46DcKXFqyu2X1fzwyedViogwF2ng8vEK2hEtVGSMJ1a31e+23JaVrZ3YyE/bwrBr4UjQQWaZLAZsorYuguxI9WpIRAVcxHuHxXzql3sIVUewmgDCx6TAMuwXrATCdNn5WhFJxVXnOTqeBzhGJLu5oHRtBJ8a3WzYkiomuLF0SwQzq2pFcc9Fu1BEbUk6Po474lC1jyVn9l/Ml+s8Jg9s6Fu6RL1MBVf5tVvlNQDklsMCMX5KvOnlRNOJfjwYUC8SgQovIy2zlj4BXSOOBH/v//FdEbETf+GZrQ0JMtouiudB/RoDNNIKh2b0lmVQknvjuPwHgT/73f0KAbw7DdX/n5wFY2SmckP4S24RvsOOz/rPPbX8few75Tsemu8jGXk8zvlX4IqunX+S5FQ/a/uKV97O6w6dLtXiuDNbfCmH321p1sQOyTZFi7EVVdFW9Sm0dVLPcZslMO5ElbE7TOgCr2lSXdvJISKClEyIOdoNhGao+25ZzOqpcL94+1DVvS7WlmmkXb8W3N6XpbnOIkzA3IPLJIIaFdxZYI3j5IeWEQIUPq7XL2GGpVIm9KjHCseAvxEOm6kZbtBBK51TCxTG3d7HC/3G9KDeod1DtMpzyWIL6egai0N/gwcPp/jH2eIQMQ5uEGrW7AaP9Le+ao/L6bf4cVMVYxemwWpmYleHGM2lCIlWfsBVTtyaP2KCnqY21raqQooeNpZ3maJeyVjMWO9uxMku7o4Ru60o4KqMjQ0r1xRR18KaCotXdriLpJrRDtDFtuV9cH6vESbIAPqtrQlk7+nK+tn16iZ42qMpY5TdD092DAo1+BjgqmzxQw8uJvjeOdp1HJwudc9rA6u/o3n71r+FLMkO8eUXcmOK6o9ZGlffEfMzHfMzHJQ57xx6h+UrdqKmnoVx0cnNI53G/An9/puxMx2rfz9Qf/eI+7vo530qt7fm9pZQLF/zrU1mZfnDmDVbEfe9cNWTbSx5YPSaL/4WHB1z5K372ffIDH8cc85JQfXGwA5gIVTuUECkw6ivjEg5LmqR6E7OqxIrA8p224vBE1c78anbXtu1Uoq+5bZs4qvUXSYUOm7IB0nS17Hy0dNXazbyx7puyfuuRxxkJIKoBySfSpUDbf1LC/4Npxi+s+P14Is+oZKU3NyhgnfIxySNSs8i3xXh673m/ndN1l+G3/PY790oqR01HILROmsBxbR+QVbWZ0nzYfyY96t9X3V5qloKpzsLtkuZIlNIUDtdtRQ9DDRWIj1piV1P1oePcB2RVbrKoUqYaIzWBLm+TLDjcOb3CIkaOuzlGDI287i2jBSwu3wmgGlxoL1BR3mqSB8U7k8b3Wg19mpLKqu6uRDH7z5M/pW/MKLQhUhjH1R3jADq3AdEAPtuS4GifxKXahvRGoxVC6lxVRZDgUG3j1NRkEsYsmMXotCdjgw7PSiTyc/K37wIPyPNREhv0ool4PIVtHRGFUiFqtZ5QMv0x4HPyezpslUSDrRj2MlCDvXpBf6T/uk5vJ5mEWt+qpiwf8hf28I+RHws28wfg4UGBfcoLaDyhF4QbBNDhrmV/A/3SyvswuzxZauf4LCJ6znXn/baXP78o6QlMjx/miUf865VSsptW1T3y7wO2gWsj9aLO7gh09GNZxvJBJYr5E/nko0UrXxUeSZaQHtRptB9NkRb8xLj/xltZucpPnO/fXOfcxId/Sjh71eZkkiZdJ+H/t0wWO5YtGCF6lRP/2z9Ixo+a2IFdiuZIRz7TjE+QyzaHD0lnsIs3yUpq6RzS6paf8BoiMcreJ30vjaM5rLjMEoXMKgPpa6ohGJ9XRRlV3TXTs2X0ONID3wBjBW6KSPUOF1o8bw4iXaLQCkkZcIjGCc2/m4U+o5ZqClZuUOfyeGckZaDBu1CSKAj4UugOL1riz2AEd5nJ9qvhgM0bdadz6G7loTTDIlRYtF+JNJ73bjdj73v8sV+78kb/meat2CHSou3MZEEbFQVNMFaS42FKVg746/fEtlUWpfUBHgmf/8/k8dfl8WeJPJB234z+bZmtxRZN53TXfgd4WAlnv//V1ouS2swWIsFElY9s6zc55t2/8zEf8/GTGbYjzl5p6BZVGUH4BWC25tOL17/gZ9w9k3U2pBNy9RtnOXG3//uVEuanSU03bZNx4bXB83z/D6QD8t6dcKUHU0/v9apSu157kVO/fxyAqslDiB5NvvOwzAWrCpOFcLaxBRUtq058CBrAewfVQ/pCiympBtW6gtXjYNjNwZpG2KWjT/jv/JNz63xq6XX/VneeTqoMT//dWVpysQ7IR7Ack0pNCthUGxX9+HP63CqhfEnGezf8tD+Q3Vj9/M2MHnxLjo1UhEwZKLqutWrHRXeMVfvM0CHtgsB287gNdpWFlrmMC+xOz8XQPEiV66bBIF0BzsbkwWrTmHeQoLc4TjbOhUggfD4F020vbf67nUhwWkqc8FnsEekCviO2WFgyUDU2veS62wl4vC67psWRcTH6DpeXzZSkDHWJBK0kwqEi72PUklbVP5OEhdxHDIvP9Fm40TfrHZdK4WJ6BQcVTBUyTC/NuFwBepvjJFVU7ZrvUHCD3I93Ld1IR5pW/z3ZtVuZocW6TxGHpindGt5Mtv7tu63nq0Sw9Z/J4//BBwkGnxqu7ALY659P2Vr2AR+htMs/dh6RzMd8zMdPYNivXtBV2UcZud0RtDcPppZtwmL9wpKsgKvXs/lrKnqckMoK+x1xstucwQ0SKbx0yqtBnX7rZTqCQ1y1vMaVUsY8c/xPAFh/6DyNsvxakgIK6llcJFGoNcOhHOUrVI/G6ERXOw/Eqa5Fa7V0MT/Xsm94CUgl+shYohLNEAUZq6QOwtWJ3U7jzsu2FIQk4C5lYHeWocfFYYNxue5PZmqe04go7dJ5v4fLfnGHj/SySc3/eIXwav6xj+pMA6hgdJKhmh1xLOGEx9gEa4YMc1hYuw3M7lC2pUR6CZGx2sTujsAzIQll34Bd2K0NdEZR59DHFMuz/jU5H6U2pmURc1BVvqbE3ibXms2izk3a1jWRpy191rC/FAGLeTdea2oy3EXevjaDRO0ybskoJeJRqDTJahLV5XlWAPj+dlbvkeP+niJILBhpd/tEtkQq0e9MAJwJsKw8J2LTqWqt/MKsYEEwMiZvMRlv/W3H6NARwELxz38XH4kAsAE/LSDJtG3FLWNEtJ44EYzFr49v+NwX/eMDX4402A1i9NFONPTgLgNvgdWw/la5kZui4JiEdN/G0RED5IONeqoQbsYnGNMIAWskvIkb6iSG2wLu2esdq/f4G6NyBWf+QBSONeRPt4dmtU4CRqjH1ZNyM9ZA4z9v1A/myQRzMDbl6fWkptLeQ1BBs1Y1QsPqxqEO9pGyXTAWJHjsiuh1IqDXdK2kEvHf2hXh84k42R/DcqtMGuH+c8TvaSGOqsTRMAih9n0rq/ztX/5HAHx0t//MyMGvnPqhP97/mofx/7vP3cM5nbvqEtfIpPGY/M46WksGLkyyGI5r+dB56qBTolKMOZn4FTXpYiDrBRDbuYsbhmmbXDfYmIrmLcZimDxaH9PP1DYUPlJZKNKnYuXLkuGEum61DeDpLO7GHaDgejBln0bB8rh/ccFwlkCSU8FwVy6R6bSRRLBYm/8KB7n0Jxz4gmdg3PXzv8x5qbA9+4MXA4j6M9oiUSaB0GhUud6VFK2WBRU07/R2yDFIWp3RRQBzdawyC9nF7fJ4klAMA3zlBuK9v0y8578GnODf37pRHNHo8+f8w5dehKlMMG3VpIvZbOCvieV5ajMf8zEfP4FhdcJ5SaUBjGVBRXNNyUjCwNcHcQVLZLV7f53x55mqjEnpsV7nzMOi7SB07z0Lt7H5NU+hv1Ct0+u1Hfigqt6inYTLVgAAIABJREFUvdw1T0poG1ax1uwsHIVZCTwis7+LK6MyMS05HQm1u59I6CWiLaEOddWU5rAibH4F7B7cGQDH4skpptSIxe/IrdUg+qi4ErXNYOI/c6stqIUNqUBfZku6ggRaHDcI36WRldSYHfyZcDn+13MDeg//NgDnb/ktv58XXuH4974LwInT3hNl291dOhLRzIqaycN+/2pJSSpXMxF6T7AGys5i/y9hlO4b05QaVvvhKHGjVpSiIYQe99TSaLwrEZBJu5iulNspo5vebbLqGoIPtLf300il9fpRvX6k3N3UwZ2vIYmRiKY+t7d1PMoYTmoobvNW+Vn/VkLbtkKigiC7mY/hNokejjoy2WZ5k4ClDSx5+hBvHPQr9erSHnb+LR+d7L32bs685Znb//gFb2WxlkCeKoNWfk9nGpUAqYLEggLbxi5iZupX9E5Xmw06LIdarB9vAu0/6fnc2oDnx8N8lnfqob1MIJH9vr/m+PUXY1Ne2/BXAxd70Wa+cdk8IpmP+ZiPSx92JsBXXfi5LLEDjAgKNTNLIiv4D2RFdwY+VPoV9FiSkUn+uXfoS5SvfaMIJdaO8VHKqy8/Q3O9XyaWn8+DCZWK1ThyOgGQBFdszd97+XYWpHlQtZLKqk9zWPPNAheEa/yDMXidUWD6UMHUeGxFWx2yOzM4KNYRj0jb+CPj0OfRVDES6d3tv+elpfdwjfSmZB1HLSvsMS2LmoJbG422zsprOZngDaNmTMlWoC9piugcZ2q+ecZHc//TI38PgPefPUs10yY52bRxmCBsXVJqZKS5fdNFbQRVGIgGyiAJkEX4QBijFkT8VpiW6qnb3t9K0DYFcAFqD8C6JIM7dD2Mq7+rNLpwmPqiUCFxsF/AaWkYrFwRPaEZw5GtfsP2aB93QNruj8RI1B2Q6KEl4xOMz1z7e11kvv6lkssS6kqjLUB7l0ppxqxqBjf75z9zVhjU6Q6asY+yF3qWhZt+DYD7T0tfVEXQHraNgNSuG77bayNr1KfXTBku0MZ1qZutx2uVWQBZ9fEQMJK0wi5AVyKJN+Vvvws8jDiwsUwEPb4nj1cQnIADHtLZKpGmNeN2+Vf/9ruX+e/eLc1dnUPa3biEfdg/r4iRoxUGYv5xSyMX54ceKzlT+gN3QqQWqxRS6d7deNO7k402pyxo89WHbZCOs2nUoFAqdDUbBMZfGjgXllQOdn/BX8yuyeAefyFMioLRI8KxUNCWPtkhvQkKykdFmUo8ebppNyijlZn409QExL9pCrqi4LYmXJprd16Bdpl50WF/w9yq1Rub0TgBY2Uy3ecsmTQf/pnJ0R63oISVRhX6skq46i3/3je+7h9fquIkmfdkYv3MGmStipLc9DNhzXIHdCQl6KhkelP6rl5gdEtkf2bPCgB7oAjG5G3tEALY2gINt1C3lVtyPoDbCrYbQ+zAfTcxDEqcKiAb+W5rY+biHFYtO7XCVo2xCmjekgXBkkZdBAGrPBM5V65hawlHZ1Ht7p4VhBPfEjRv9kcTeiWnvP41f73/xe6vsPZTPrW5//ZPs0su1d1X/QMA/tl//R/SNFrV8z8+W1qimUg3tCuCfksm15FNbbi+SBMuYsgD3i2v/bgBLLSqNm/+lH+qgs9f4TpifqLW4cTfyyohj9Fs54G98CV5/gq8q0z9f3vZlv/OU5v5mI/5uORhD+/y4NDCX0kTmMmwu3U1IniyhuboH+fUsvJMrlmnkhXePOsfOyRcuEFKwiNZhkw39Gk0LbuBYLPgMiYzH9HUQJaqw53U3zcdk//Fr/RG9EtNU4Q6XYOlktBUfW8qW5A+Kt9ZFbjQV+Nn/8m3ssBM7R7SFaobmthSltgujYZ7r/SWHO+98npOnRHEybiwShoJnf/MwD7lDogLW9MMuSD52HvdgFStL8KynAet1aqBjcIfh6mLK6yCwTUKSA6CLYbprpEdkmhQmvsaoJE0oxIOQ106kuA702qQk9phUluQ9LVJXJQR0OwhcTR1yIfktRZPpAF3RL9foos7wBTKOSlDGTyyWHPss3Ku72ilJEfk9ZAqERv+jhCjk4YAspoWWO80ulHmM+0SPwGcrG700UWT56Cg7zOg3tWh564Zh87MiUgHHH/tDV494798o/oDVkUpsNl8HYCrrliLjGmlVkzK0NdlKkAkOkoTd60nfT62JjpVyjjUeq7Bwy3tN8xAew9/K/xxFZAwhZNEAYGL/fWAByQM+eIDsa+mFbCEx9/cGo0AWBVX2dQcEUfQI2znNm2k3Pr32jQJ59TcIhWOJKcYiQmUfOaGUzn/5j/6DQCu2/s+3ETDWL+3b1d50AZxJg9o+soOHzYv5Em4CBUamFQFw7HolWwWjMaSY8sNNp0NyFp9fnpxC2zi82fVXYnEBsqQWNdkghlcJbyjlaWcl6QbyvvFyD5pGlNlJIKXJJ3z8n0Z5+X3nvlaWxU9Yhd6t3rKtNDuNY0wAxo8/Vq5KVWdBFtUqjOh2W71fp/YmgRsS1AYYDYt2PiGP17lzQGioQx8k5LuM/57mqYOOIFTvKICk+lFIFWPp/sgFqXVzAZ5Rp1YaRceHKHK1YjRtqlK3E3yXsHobNbKfFyrAU/uEAtRWvK2DCfpQyPXh5d+zOJ7ESKgmohVWazsCd8leyahlomqrroENofeEiYjVT8jcTPoG8tMRJ2/fepF/k7lb+1FrT5Z67lGQKXiT82QtPLPu50lr5lDq0UjybdqWStxTsYrRGxECzWfbb1+dE97AtGxwRb22JekV/iBBy56D4Qc5suvwXRv/CJ9+d53TiA65qnNfMzHfFzysJE6rk/qOJUb0KQmWMzYNggKRkCuRECvuj4fX5PtrNy9k71XfgiAG3a/D0Txq6l8Vad0BV0J+bdtuyJwRi7vShpg0paylB+TUREqILOKGDZbVbCa0hOMaaGziA1c4bidStoDRiNVusrDqllVRXAPVGWwEz8+3wJbQaOKRFbg2mbUotsSl8MSG0ytS5xEfmHlaUXvKVAJRyMqIC6xNXpBgE85B2lMc3RjDVOqAHj639PpLrHcl3QnKyjEojK1PtzKl3O0MlIciG3zYTefyXAHNFSXY3TbOCgKWAhWG8Ea1JS0KexarTO2HSrKbwsyFBYO5Hq4QuplAkDfj+9lTJNq5BbTXBMU2vQYDgOHxRgwEvGGXZu1DCHqKSTd9uGkIgLialz/cmcnvyDXx8dW1lhZ9tHgbOqj7OFgEBoFlQJv0jxKMFRjqplEThIemjRnHNoQHKnV0okfJ9ma3oAnmX5bdv5/ILLYx4Ecv8oWYcVwHyiCuhlf/5KkNg+8Fss/mwtw1/9zJKJjHpHMx3zMxyWPsB5qxNFUxASsgUiN9A/pEsFYGgjt6BMpe7ZbihVY5LDFfVaUuCiC9qgRLKab9pnKyjQ6W2AFeOmGKKiPrsrqUextA/yMPpqUgR2YVFpKLRjNpDzcO08nbf9AwGwP5dJioASLgbjQgbEJU1kc1oc+glo/D41qdqKiM1CHfnUbzKra9UZ9VjZTZtokERSbE+zTUno/UFIKoJll4rj3tKMxKvWgK/6YcOocNFY5MqJ1yhJVrcdb31aw7VNiCTK9icHRN2SfFFvqMlMLisJFFqoAs+6Aa3ltaRRR4kSkqMliJOB0VR1mNE0LYA2SBHq4ylbjjUSF425goZJmGLUmUW6HHUdaSJl5LVloeS6UNCFq1NL1YgTsiJeAYiX1bePQvNhQBhwurLJVFo7HhZm/zj80e5neime5bszW+dOnvOrfC7/nuSWzmy02F4xPgNy1e9b44F7PIt171VUiOwEVrUivtbTHJsk41Bnvj1v/f/Qd77p4LP8Nr20CXkM5RCtf3Atflucf+n+PRmALL90/GICePG+68fjL2XMVNLadZqj4g3ymdSCCPWZdkKeqzp4yHPsbdzb01YZiljCWpqdZdSZIJMYbsMLKWc96GtemjAS0mzUVgbCU+s9OivOkwhPZ1l9CKx956rm9vXSDSu9m+e2pSXEKCLoiqNSvLvgQcyGByl4NwIPrO1n7sa/gnPnaW2F/lWRXS3ifUETQzCWgCmkyF2c5VBq+mz4rz+vBE7KeycK1pSrxhiVMoo1tS/HGUlr+sg0ykZVUGTxfwx/jhUXL7i/4S1J9jRoHp0d+wvzRj87H/gRNGRMIIKb8zdXlVvFfRXCVW5ISpC2b1m8KimDyC7Z8T0roL2gq3w3sjwPy7hYA27QmvJY8m1bBSFuXd+v6Dteonn5H4JR4Iopoj2RKcqspBTjd+LB/fOGfvsGJXBaggxY9+FnqrxX3fMlE3rt5o7/Of/SDdU6c8grK+/bezEf3+z6GtSV/vFJTxTsy2U7L6jEMxT2VrX6SMA1wsvV6X6IBf7VparPrXTghe+Knfv2/kL99Ci674R3f/TeNeWozH/MxH5c8rM7kyr8wtg6ApWulMAF4tN2wehjOBm8OGyf/AJaqh2/nUzsp5DMnT50K9b8s9aHPwkJKvqCrXBJWl5FEKRfGFW8Le9RdENsMW7DQ89tftHmgcofmvu19T7MFXJPgQpeRlNzSlJXuVlU1nKWqFUgeUIvf60ia2QYs8dIPfgDA3rPr5Et+Ranu9WHEm3/4KlWI26WBzkRWcHV7jfbNN41f/UebCVabuxbz2EZ+u5IYWiH5UyKh0FhM7Y9D5RyVxLYaKJp7i+gSmIqymBnGCI8saM5oqjhqSqYPSfTwgTwglY1qk8xgpmVTtUlI4kpMU7as3NqaAcrpiOCtikTb1kUTwd2Sdtu/qVQKQvYnzePqlxJZtqLq1/ajUJ9nk7bU2apYX45RDqieSFtzw0j7CIkNkab2NY6uXUfR2uw1S/jx0n3feXaJ3l/Ic3xRYfZhx0jaP46+/JesP+Sv6dm/4zkdf3f3+1jsKc8oUE7CuI4YcYxF92yV01vcgKOMiF7vbSXXdsNfJ7wzbFU1W3/j/1s60x7xTErq0ZBElylTa+tJiLKaahrSnMYS3Oa1azZLoZdJqCZIe74PMuEt52mPqunplwJQ1VXQM6mcvhb8lrkwrL0hNVDMItbS6agI0YC0qxefXsRTjNDqbVO09lNuxmo7lYrlyCQ6qWqKSdDxQ73BnfMHelCt0kx8By6zAeAnkF07veDvqHeWM+Ot2AQk3hgJMEcK7G06Ucm+WYtekFUB5kC8iQAaVwdNkEBRN0CwBM2Zjv2k1BWPoqboh7zbXWRBDVA1BY3gUwsS0l/eybwcI776EjIFEzugTbAelf3ptW7aph3eRh5J0xYu0s+jZmlJFJcKJZYCRNzHtLellQ0skScSNWFcGnEGG8hNbXq//o5oZ6rbbhobafMtLaGgKdO6q3Xuy5IlzFG5Zw6M0TlHD0J9Wwmlx1OScJv1g0J+ScYbH/Lnben3/ON3fqVgm1TWjtuMezpbr4UTwLPhf4qWnA7Tw1ah57anZosnEt4wa70m5LR/jglExzy1mY/5mI9LHtaKKbKbyapp6lhnT7uRuaqO3JWlkgAqNXD1y371WLvPz2oTl7D5x9oh6WfxY8bybwmA1ctremoD0NJc6CS6QkeVqE1pdstIQnSBVU7GWoinUpNGnos63bmYollqnEY6jX9j2oFGUOUqRHwFNkQp1pttE5vQqCYglg/ULzOq/XFYaHxksvsL+3G/59H7cx+Sr2McCjT2qKV6WozPb2xJQ2oMXhEp6QEcTALwqY1+CzaDxLNQ3WMFi/f5fernPiK5MDpL8ahvz8ylsbGT7YwFEorgD7QpIOKsqLmwT47tqAzRT1sWQ2noKovpZRiFI2FiJcsogGuiybdNLU4LZ6J2hytDwKE8H9csxmzOZvGABKC2IEY8JS50zkrlKrUkiTTGac/dpIx+NN0+jUhBhk06Ap/FmizwZALdpZuTq2+TeAjl96zhflo+07iQUqs4+awasC4089FQuENVTbYg9HsLZeEjlg25VgYv/5/U0pqQZEt8Vd0HZWxsEU6MsYf+9fSWd7edbVbjO/VpAGBX4bLf4VLHPCKZj/mYj0seNs/9DFrrotsQVW+rAXte9qvHNV/4RQBO/ffHeGXte/G9zs+wvWX/vs4ENgVveX23X6l/9pxlfV1W+hkBM3g72KyNuVy9cG3OVACpSlvIqUOvg0kiftMG9RTP6HbEwc7UqM8vpFjrAV5d1anAhVldy7NpwIeynsPKPmWyaqd2KZTDN92As9/w+EMq0cNVv76d1c96AHbzNS+hULnYpGhug56qiEm0VlRtRG0Q8vf0qPrsEnRLJ/ulxP2HsPp5jwpuuwcWtgmgGhbqAnNIcKqAHpbMdD8MEUfQiKBZj5EGsecnRHrGBiHoGNkQlnUvcK2NTIrptAi+TWSFKg/FW/K2mxNl42kbBFdOScQL9LwYIJefpw121SRCfAF4TyOITTEOP8Aq27WLir55D2QJRZR6tPBMwsr9ony3VyNnojJfA++/wkeIBz9wMwAbFfzRf/KHALx6nURodbxWVo+vMZr43zS8WXqgkgQqkduYODLRaiFEJnuIkUSMSDZar8ah77NEcRHgc1rilYjlJxCNANj0abkZ7xDegysgCy2fvH6DR5ZPH/sjAJq9JbNB3MAr17wOwPpRn85sy7fDxJ9dJXdVjxeUP+8viGK2xEwIXionZ9KUVO0VixoXEC+5SCuYaQgdlN8dOuM1ZjVgS2MzaH1W1O7tKiRCcdYZk/MBTAvWjBBFkc+lLHT85zu5XDxpnLAy4k1WCQnuwuYr7Fr1sL3Z7R9PfuVVZo2G/zaQ6EoV/KkKTBAE3sFoJKQzccBbyC0dEfcZ3uLPxca1jrEvHpEerQNHomOU2u24cKPfd9FhYvU9VwczdOfqCDgqiJhCx1sLUdwYmxyDOXYbTJVUzDjCTdcGMUM1xmRbeDkBw5fNGEfQoYl3fxEqPaaxrWqAigBlwWMGE9MXE67ZImh+KOBsGhvjf+MCzuh0cpqW0Zm0l6sPPWsvCIHvV5fiRKQcF5eFAoMzllImpUJsYK9aXeOj//FHAdj8z73oz7mbxxjpbE/dgBX1BHreLwSTfQW16kQuW8oyVk39ONl67tkjpzgd9OA3aFPk2xCs/roZ4UD8hCYQHfPUZj7mYz4ueVgt72mIKQRzACosC4WfFVdf9HoLmze+Ej/dROZxLSzTsStobpbXhd7smOJmMTRNg/izlvT6sWaeQVfq7urT6ygC9Vy7/IeTdRXHYttyF9WQCC5rSRbbs82YYLugpdbKUakptpShDQm5TNiGpeBXU5U+pZiRoqCes/0gBD2S0HT4WsnmN+Rw/qefBOD+3/0Njh77CgB/fvwwlR6wSn1akrBg2LQ1s0t6MBqWcJOE/4HbAUZ0S+zt28N6s/CiMoJLqmcFMFSHws/DQs+/Xk1i8+Fw5NOz4bcKwnrm8nchVQ6jzYOOJgoxmzQhbbUN+FF61S+klT9Kn8kP5iKfYIC40mNcoN3Hry5iSZlWmjU6L5vModciNQFu0gJQjcVp9KtpmyNGwQ66ei2Kwt64rEkTAbrNYtjbt5WLQ85g4O+To6c8gHpd1aez470AdMXOJAHMETkefYvNtIwt4t0MAsM2ezqjvO3iiORn8UVg8KIC7xxRk1mfbbJFDe2y337Xz13qmEck8zEf83HJIzBbSzULovboE0CW0YiYzeh2xTDASMm4mdUhIpmJ2FHVTEFUxnInjnrjJf7oqM8Ts+4YIyw3XcEWUzixTcCqFDqJzqB+RfjOdMBkJsJE8spH3JgX+n77f3sAy/2tNMCqOkMQ4EkJMgSpgBxNFcu+ipFgckylxLxBiEi0Gt5NMuj4VX3zW+v8+HopcwtotrLoDynA2invX+BWtnPDjT8PwMbXX+GVKwUfQqOyPBKnTBRL0tXSA4rS/i/RVlEVzMS2oJq9FdipzbXCJH4hluiHgrWMT0HnGYmCmrKlZ+ojEqcbB9JuNNjSpjvjFjG6kuv3NQQdWNtkAUBuoo/I3zyMjfRNpwLJGU5wCOtsSxtJ/mYhXAWWoLvr5Bw0LVOu6O1L9EKGGLYGZmufIC5ly6hs8KiIf9/Tj6LjgbXdZ1oose4tzodY3h+3tdWc1Z5QIz7vYdA3n3kGI31V6XME7WOnzVLTfohYqxuBYquHti/wKoj6s/K4iYI+q8QenDiWCdWTf0HRCIAdqYfNVNKIKuHKZbmYP/4bZAJYdv6hvzFeWptuka3TG3RVPrPywloE3bRT9741xgKLn/4azCq5mW572W/7+E4y6/92+FDGyorwInb4be62a7y44rf5y0t+wkntEntDVSfnDBedFGqemPiLc7QxBena/Yic6FE1ZiKocTFTZqmjeVwQ+487VqXB6cSSR71/eTXhCYHyR/vPUCldRm6wcV3CAd9V23vY/+37PMrpb/hw9/Vr10OjmAmVi8gjcQ0hXYpcCsdMJjwjYTVpqyWAOEZyYc+uW0KrHU6Ux0abY6bXi62kixT9qCFiyZalUjQsPIMZwoTWtNMQpbMbG2dZ46hkMtgia1jpTZ0RJwDN5TKaSgWSxR/HluGnOxu/3yoYiwspHtggBB3SZJNDtXU/jMki6tye5EQO05m4T7ZyIOB6IdsuqyW6Kvsp0qNVMWAmk2h1eJH0Tj8hL0patdLrMhLa/vpXPEhqrofOUUlz+nHxnu2XSXtYx9/TgEu3pmhwcTOe//+7aTP3pZYzZhMue/Jd3vGTHfPUZj7mYz4uedjmlotWQGouCAB3zYk/DaHnD/Z6Tkgza73XELRDVWe1k5VBEPqcrPSDN5+h1inrw873NhBb2O2+Iiwf7scZ6Y+Flfm0dy/rmAHm1zw/40PXfDLs50QWzbIpyWTFKKUOP7MFf7cvehApcJGGadl0Q8OhusU10wqnmycnlcjy/r6qxF2BfdlHZg8e3Yn9gIgu68oEwUqjq71DD5eMnApTZzSz2Avkf3w3rrrGxVXIxN6OcGoqf1581Vx9YLrhHKUKFJta7WponJbNM5zsmy/pxlXd/waH0/TCZkHdLuiJOBcIuIFj0qKO+MjkopQmzWNfVjMMXBCj26zKqCfSKJ+ktQqnkRujx8hVFjrtvhf9vFKwk8AzUbb2FrNzaOmq6BPnGa0ATRZKyh3h+CynUxaENaxs1CzZQSqiwONPODqZ//5TO30a80vLa5xb9+8d7VdYoKW/YvoY9Tg+IsfllkHreCdEQlccUfnMg65dIo+kQyz/bmgvzv8P0Qi0I2MNuZuEkeSQx59/ukWL9q83s8R3CAOru7rsfMGnGgs3+wPw9t+yVE8WW7aJyaKyODWV8j80ikvb5DFHJd+ZHJBw8bkc02/luEBqCtJc/1YHPsJMW2Cr+qKLR36qlHpGw2ngOGiIiysiUcSsBx1KKxoTk/GEBwceLS+rOijX6zCuy0hSuGK3vylzk2EW5eIYFqjWRTjlljARGPKQJjXKV8m2071YcuMIWON/5+jGMTMxNndKZmoKcqkULPyVkqt2Bizm9O43QjfrgnjlpKtrjIYS6jctsl8wGyfc9I1yKWykwDvyUE0xMXPBPCsT1U2LkZwWUiQX35wqLtI+oLQYbbJNA7QqLKGHoyW21K6C+e9rTXI9MIKrpHIM/U+U85JGvGh0vb/RF74FvV/x19pCohKXGZWk9X075vR2//cv7PDVkmSaBayoOSKiW7dlNNJEWTQuYFu9bbKfz3Ypb5FFx4xbXYPvNvz3TDkdppYtKc5lJy7+wL/QMU9t5mM+5uOSh13I/co1SkS1bLOOtXtX09h3hldaft95fA+7ftUDo+NNH+Zf3kB6UCjOj/hVuW58Uxh4cDbQ3IN6QtKON2OoLjTx3krCRxdF5r/WVnRLmkl435RoFKu2FoaKvKdAn2XmtObvx67lLqnVBj8BapsrmIlE4eY4rkxamRoVFddu+i08dVNBqhaWQRIyI1RdZDWpDSRTtd/IW/wR5WQTzLmrtCXhEJoQyyADaLTL7EDGVBzq3KTAiEl5Kscty3NCXiYI6YV9A+pamhgrS+QP6XFzBLlDV4YKjGqHNEAjrGHTqjipSbjB0aiqmwsvR+ZqN4KodIXzMY1NeSqU7Fp2EjRFUGMLqakdBwC3PWxgB7dFn2N1R/lHKZBoSvu0DVuuVcqxgfSilGK4r6TzoD+Hl3/aR6dvVwWV7MdKJ+PONS8lccOVVwNwZlJz4jVfQ5kd0O0tReNyk4XmwrpWEWjLtJVx2iAFEankF4OtY7aqjGz88ysBXNKYRyTzMR/zccnDntuIos0AxiSesYikr9qP0popVSRo5mA8LNofxx0eYg/6WTsT5l5i4ozqJgSD67DKTOoQkRimNFI2K8RpbeMZePWN1wFY2+63vWspj8xVwOkKLxyYzC5itBGQjdAsJRQYUmxYpZxEOZNqGAy0cDUz2b9XpR/8wQsD9opA09qpHX4VB7ZJVLdyzxpDceo+/7BqqoITAG06OY8T+wc9XgZidEJCIsdBey6y1NIRhnB6UCIOC29LFHX+obMBv+otiLDRnTB7VCIFOQSLJ3JGMwVb1+hIxKPBYeEcaYimcqxGOdJAV7mi5fkr5f0qlnSzNKdzyH9nP+BRS4yvkJL04wSQp3YxqgxwiUSSVasln9t3hPPaqDiUzbDPSmRlcnIBcHfc66Ok96ytcUw+/hF5/DO2jlvl2J0TDGQ4HDJ+JEYhkUXr3/eBz+7kI/d7sH+bKJhVDhZSH43v3r2Hncv+eK0IPeDkZsF/qb2HIg1QuzPMZn4/ey35syT0kRWg1iUTQB0nW0OV0Vp6AEHC6Ni/pGgEwAbacwBGWyDlljK23IGuJpGT10mXsNJZOHrUpzbOQCNg61B+4SjidRgbm8ziVZQEo2UqQog825QP7neMC1/JqdxN8tncqzEDblYw1QZAmR3y7iLVVP1z2tokfn9TilC1mQi43KKDxa5XYJtImdyH5VlJ0c5dGOBEdR1Rylou+1z+mD8OTYujMJVqyXj/FCudnKrNUbgTwyYmAAAELElEQVSSSkFf8nAecnl9jSVW7vaAtoKHo2HsPC5ujxf+6IjYmj4UwdiuqI3hskAeq24bRI2UpyWFaXnMuDtccLNzThrFbu8HMW+1WrXHoXu38D8oaETy0cn+LnR2BO5XlUyDZKWTSaPXX2T5k3qz+P2oKKkfFQnD5yKAW2u+klqSbdqMV5BKh93isr9BX1peY1HO60uy5Xtt0cLdLY9N/HHaO/Z/XcktK5/2x+ncwwUXpFkuzfy+PZfm3Nf3k4Zg2MyKhKvWfNvI+9auZlnlcrSQYJf4rX33A/AHr/nv+atTr/hjC8yeiRWc5ONyoz20iNFqHGUQCo/j5/DuNdDu/j3xL3EC0TFPbeZjPubjksdl7OWvgVbYylbP1ov/ZiIuumtnl66Uf0czUahysaR4Tkq6p699PS6brYpfuzxregIOJhGgU6NtY2DP9wVs/aIPMT+3cyc7d/hVYlseoxgXNlrjCr/TxSw2VWukMJnVwai7EtZrx+RkoqUyHRWMxbP3sKwShV1i1wW/aj939MGQ2oTSuSXSx4OwcRZ+uk1LloVvYI/73zOspjTN+fDeaJwtqc1TBXvv85yABQmHX/rROsOhfKZxLYN0oYm7YeB8aDnV2jy057vKBnZqE7gURasMbSOjFR1RQDkIS7fFmx2x7Bpk0RxOP9PNWvqv+nosH3MkhvHNAVmJazkm8XDQzRO2vSDs0KZPKUDkzk/7a2Gw96aQtoXI1zjuDGXigsfG/jhcc/pHAMyqyGPaeNDxw2telq/3+7Sa52Q3++vu73/ARyGd3iorIli+traT1SW/Tx1JR2aT8wzlonvqBx50/b2v/ze8dErS/CQhk+g0lRuiuT1jtBnDd6cNos8L/PDX1xGHHOzLvs+/CsPGioN/MC0ZbYPzhtJsxUj0/Jw+48h3+VC+Iz0oySLMjvobc7hPDlpbf7ghmEiH1Ckl2jliA31czb3Tpy2dFX9BfSwXIaXOWrBCbKrc8ySAcxuvA/DEs4/y9PNegGk0LaPXiYT6TeXEUpLWJDcN3ZeN8aEzxBvjp1/bz/gzKhPp6EjKc/Upf4KrasiPrhXqefABcnQEqd/5/BriYcWGpHKNjZ242ALz3FZadNq/gnOP+P049UG/7eHmMFTWSG2YQHQ/nSV6tujfKAPU37hsi8K6PjZByb3ACmdESWxpmvFTf+Vv1r1f+CUAzhWv88Lzfxp3ttIH2WaLQu9qF+jpYSLqZmH/uE1umvaPT0BdyqxM2jZfI2niYhHmrEC/nxLJh4q7wZ/KovFRbBBBarasZFLVO2Tp/JH/nfUt/qULw4L9/7NP8Tb/vkwk1YDZ2O9zVcFQjOa7qT8IZbXOhQv+QreaDu++icWH/DU53HeGqWTpUz0ehaNNQrPiTeSQiYRd9PEEs/G/AulMe8xTm/mYj/m45PF/A5JBkqhBV22tAAAAAElFTkSuQmCC;fontFamily=宋体;fontSize=10.5;" parent="1" vertex="1">
          <mxGeometry x="100" y="62.5" width="88.39" height="90" as="geometry" />
        </mxCell>
        <mxCell id="X9BF16VxQi2rHE8ZBVEj-5" value="&lt;font face=&quot;Times New Roman&quot;&gt;HSI&lt;/font&gt;输入" style="rounded=1;whiteSpace=wrap;html=1;fontFamily=宋体;fillColor=#dae8fc;strokeColor=#6c8ebf;fontSize=10.5;" parent="1" vertex="1">
          <mxGeometry x="97.58" y="30" width="90.81" height="20" as="geometry" />
        </mxCell>
        <mxCell id="X9BF16VxQi2rHE8ZBVEj-6" value="深度神经网络" style="rounded=0;whiteSpace=wrap;html=1;fontFamily=宋体;fillColor=#d5e8d4;strokeColor=#82b366;fontSize=10.5;" parent="1" vertex="1">
          <mxGeometry x="216.05" y="67.5" width="20" height="80" as="geometry" />
        </mxCell>
        <mxCell id="X9BF16VxQi2rHE8ZBVEj-7" value="光谱特征" style="rounded=0;whiteSpace=wrap;html=1;fontFamily=宋体;fillColor=#d5e8d4;strokeColor=#82b366;fontSize=10.5;" parent="1" vertex="1">
          <mxGeometry x="260" y="91" width="20" height="55" as="geometry" />
        </mxCell>
        <mxCell id="X9BF16VxQi2rHE8ZBVEj-8" value="空间特征" style="rounded=0;whiteSpace=wrap;html=1;fontFamily=宋体;fillColor=#d5e8d4;strokeColor=#82b366;fontSize=10.5;" parent="1" vertex="1">
          <mxGeometry x="260" y="12.5" width="20" height="55" as="geometry" />
        </mxCell>
        <mxCell id="X9BF16VxQi2rHE8ZBVEj-9" value="空间&lt;br style=&quot;font-size: 10.5px;&quot;&gt;|&lt;br style=&quot;font-size: 10.5px;&quot;&gt;光谱特征融合" style="rounded=0;whiteSpace=wrap;html=1;fontFamily=宋体;fillColor=#d5e8d4;strokeColor=#82b366;fontSize=10.5;" parent="1" vertex="1">
          <mxGeometry x="310" y="19" width="20" height="122" as="geometry" />
        </mxCell>
        <mxCell id="X9BF16VxQi2rHE8ZBVEj-10" value="深度神经网络" style="rounded=0;whiteSpace=wrap;html=1;fontFamily=宋体;fillColor=#d5e8d4;strokeColor=#82b366;fontSize=10.5;" parent="1" vertex="1">
          <mxGeometry x="361" y="42.5" width="22.05" height="75" as="geometry" />
        </mxCell>
        <mxCell id="X9BF16VxQi2rHE8ZBVEj-12" value="" style="endArrow=classic;html=1;rounded=0;exitX=1;exitY=0.5;exitDx=0;exitDy=0;entryX=0;entryY=0.5;entryDx=0;entryDy=0;fontFamily=宋体;fontSize=10.5;" parent="1" source="X9BF16VxQi2rHE8ZBVEj-1" target="X9BF16VxQi2rHE8ZBVEj-6" edge="1">
          <mxGeometry width="50" height="50" relative="1" as="geometry">
            <mxPoint x="540" y="220" as="sourcePoint" />
            <mxPoint x="120" y="190" as="targetPoint" />
          </mxGeometry>
        </mxCell>
        <mxCell id="X9BF16VxQi2rHE8ZBVEj-13" value="" style="endArrow=classic;html=1;rounded=0;exitX=0.5;exitY=0;exitDx=0;exitDy=0;entryX=0;entryY=0.5;entryDx=0;entryDy=0;fontFamily=宋体;fontSize=10.5;" parent="1" source="X9BF16VxQi2rHE8ZBVEj-6" target="X9BF16VxQi2rHE8ZBVEj-8" edge="1">
          <mxGeometry width="50" height="50" relative="1" as="geometry">
            <mxPoint x="124" y="150" as="sourcePoint" />
            <mxPoint x="124" y="190" as="targetPoint" />
            <Array as="points">
              <mxPoint x="226" y="40" />
            </Array>
          </mxGeometry>
        </mxCell>
        <mxCell id="X9BF16VxQi2rHE8ZBVEj-14" value="" style="endArrow=classic;html=1;rounded=0;exitX=0.999;exitY=0.63;exitDx=0;exitDy=0;entryX=0;entryY=0.5;entryDx=0;entryDy=0;exitPerimeter=0;fontFamily=宋体;fontSize=10.5;" parent="1" source="X9BF16VxQi2rHE8ZBVEj-6" target="X9BF16VxQi2rHE8ZBVEj-7" edge="1">
          <mxGeometry width="50" height="50" relative="1" as="geometry">
            <mxPoint x="124" y="150" as="sourcePoint" />
            <mxPoint x="124" y="190" as="targetPoint" />
          </mxGeometry>
        </mxCell>
        <mxCell id="X9BF16VxQi2rHE8ZBVEj-15" value="" style="endArrow=classic;html=1;rounded=0;exitX=1;exitY=0.5;exitDx=0;exitDy=0;fontFamily=宋体;fontSize=10.5;" parent="1" source="X9BF16VxQi2rHE8ZBVEj-7" edge="1">
          <mxGeometry width="50" height="50" relative="1" as="geometry">
            <mxPoint x="414" y="150" as="sourcePoint" />
            <mxPoint x="309" y="119" as="targetPoint" />
          </mxGeometry>
        </mxCell>
        <mxCell id="X9BF16VxQi2rHE8ZBVEj-16" value="" style="endArrow=classic;html=1;rounded=0;exitX=1;exitY=0.5;exitDx=0;exitDy=0;entryX=-0.024;entryY=0.178;entryDx=0;entryDy=0;entryPerimeter=0;fontFamily=宋体;fontSize=10.5;" parent="1" source="X9BF16VxQi2rHE8ZBVEj-8" target="X9BF16VxQi2rHE8ZBVEj-9" edge="1">
          <mxGeometry width="50" height="50" relative="1" as="geometry">
            <mxPoint x="124" y="220" as="sourcePoint" />
            <mxPoint x="110" y="360" as="targetPoint" />
          </mxGeometry>
        </mxCell>
        <mxCell id="X9BF16VxQi2rHE8ZBVEj-17" value="" style="endArrow=classic;html=1;rounded=0;exitX=1;exitY=0.5;exitDx=0;exitDy=0;entryX=0;entryY=0.5;entryDx=0;entryDy=0;fontFamily=宋体;fontSize=10.5;" parent="1" source="X9BF16VxQi2rHE8ZBVEj-9" target="X9BF16VxQi2rHE8ZBVEj-10" edge="1">
          <mxGeometry width="50" height="50" relative="1" as="geometry">
            <mxPoint x="124" y="300" as="sourcePoint" />
            <mxPoint x="124" y="339" as="targetPoint" />
          </mxGeometry>
        </mxCell>
        <mxCell id="X9BF16VxQi2rHE8ZBVEj-18" value="" style="endArrow=classic;html=1;rounded=0;exitX=1;exitY=0.5;exitDx=0;exitDy=0;entryX=0;entryY=0.5;entryDx=0;entryDy=0;fontFamily=宋体;fontSize=10.5;" parent="1" source="X9BF16VxQi2rHE8ZBVEj-10" target="X9BF16VxQi2rHE8ZBVEj-19" edge="1">
          <mxGeometry width="50" height="50" relative="1" as="geometry">
            <mxPoint x="685.85" y="90" as="sourcePoint" />
            <mxPoint x="685.85" y="130" as="targetPoint" />
          </mxGeometry>
        </mxCell>
        <mxCell id="X9BF16VxQi2rHE8ZBVEj-19" value="目标识别以及定位" style="rounded=1;whiteSpace=wrap;html=1;fontFamily=宋体;fillColor=#dae8fc;strokeColor=#6c8ebf;fontSize=10.5;" parent="1" vertex="1">
          <mxGeometry x="412" y="26" width="20" height="108" as="geometry" />
        </mxCell>
      </root>
    </mxGraphModel>
  </diagram>
</mxfile>
